<svg xmlns="http://www.w3.org/2000/svg" xmlns:xlink="http://www.w3.org/1999/xlink" width="375" height="187" viewBox="0 0 375 187"><defs><style>.a{fill:#fff;}.b{clip-path:url(#e);}.c{opacity:0.07;}.d{fill:#575757;}.e{filter:url(#c);}.f{filter:url(#a);}</style><filter id="a" x="0" y="0" width="375" height="187" filterUnits="userSpaceOnUse"><feOffset dy="3" input="SourceAlpha"/><feGaussianBlur stdDeviation="7.5" result="b"/><feFlood flood-color="#309afc" flood-opacity="0.102"/><feComposite operator="in" in2="b"/><feComposite in="SourceGraphic"/></filter><filter id="c" x="0" y="0" width="375" height="187" filterUnits="userSpaceOnUse"><feOffset dy="3" input="SourceAlpha"/><feGaussianBlur stdDeviation="7.5" result="d"/><feFlood flood-color="#309afc" flood-opacity="0.102"/><feComposite operator="in" in2="d"/><feComposite in="SourceGraphic"/></filter><clipPath id="e"><g class="f" transform="matrix(1, 0, 0, 1, 0, 0)"><rect class="a" width="330" height="142" transform="translate(587 427)"/></g></clipPath></defs><g transform="translate(-277.5 -292.5)"><g transform="translate(-287 -115)"><g class="e" transform="matrix(1, 0, 0, 1, 564.5, 407.5)"><path class="a" d="M0,0H330V142H0Z" transform="translate(22.5 19.5)"/></g><g class="b"><g class="c" transform="translate(757.567 444.567)"><rect class="a" width="176" height="176" transform="translate(0.433 0.433)"/><path class="d" d="M57.165,0A57.165,57.165,0,1,1,0,57.165,57.165,57.165,0,0,1,57.165,0Z" transform="translate(25.984 25.984)"/><circle class="d" cx="23.5" cy="23.5" r="23.5" transform="translate(62.433 119.433)"/><path class="a" d="M23.5,5A18.5,18.5,0,0,0,10.419,36.581,18.5,18.5,0,0,0,36.581,10.419,18.379,18.379,0,0,0,23.5,5m0-5A23.5,23.5,0,1,1,0,23.5,23.5,23.5,0,0,1,23.5,0Z" transform="translate(62.433 119.433)"/><circle class="d" cx="23.5" cy="23.5" r="23.5" transform="translate(62.433 5.433)"/><path class="a" d="M23.5,5A18.5,18.5,0,0,0,10.419,36.581,18.5,18.5,0,0,0,36.581,10.419,18.379,18.379,0,0,0,23.5,5m0-5A23.5,23.5,0,1,1,0,23.5,23.5,23.5,0,0,1,23.5,0Z" transform="translate(62.433 5.433)"/><circle class="d" cx="23" cy="23" r="23" transform="translate(5.433 62.433)"/><path class="a" d="M23,5A18,18,0,0,0,10.272,35.728,18,18,0,1,0,35.728,10.272,17.882,17.882,0,0,0,23,5m0-5A23,23,0,1,1,0,23,23,23,0,0,1,23,0Z" transform="translate(5.433 62.433)"/><circle class="d" cx="23.5" cy="23.5" r="23.5" transform="translate(119.433 62.433)"/><path class="a" d="M23.5,5A18.5,18.5,0,0,0,10.419,36.581,18.5,18.5,0,0,0,36.581,10.419,18.379,18.379,0,0,0,23.5,5m0-5A23.5,23.5,0,1,1,0,23.5,23.5,23.5,0,0,1,23.5,0Z" transform="translate(119.433 62.433)"/><path class="d" d="M17.058,52.508l-1.382,12.4a3.236,3.236,0,0,0,3.578,3.578L31.634,67.1,59.668,39.07,45.092,24.494,17.058,52.508ZM72.78,19.087l-7.7-7.7a4.871,4.871,0,0,0-6.871,0L50.52,19.066l-.833.834,14.6,14.576,8.5-8.5a4.9,4.9,0,0,0,0-6.892Z" transform="translate(92.105 83.579)"/><path class="a" d="M18.87,68.51a3.245,3.245,0,0,0,.383-.023L31.634,67.1,59.668,39.07,45.092,24.494,17.058,52.508l-1.382,12.4a3.241,3.241,0,0,0,3.195,3.6M64.283,34.476l8.5-8.5a4.9,4.9,0,0,0,0-6.892h0l-7.7-7.7a4.871,4.871,0,0,0-6.871,0L49.686,19.9l14.6,14.576M18.87,73.51A8.241,8.241,0,0,1,10.7,64.373l0-.018,1.577-14.144L42.613,19.9h0L54.669,7.846a9.871,9.871,0,0,1,13.942,0l7.724,7.724a9.9,9.9,0,0,1,0,13.925l-.019.019L64.285,41.545l-.01-.01L33.93,71.879,19.822,73.455A8.279,8.279,0,0,1,18.87,73.51Z" transform="translate(92.105 83.579)"/></g></g></g></g></svg>