<svg xmlns="http://www.w3.org/2000/svg" width="15" height="13.951" viewBox="0 0 15 13.951">
  <g id="Group_4123" data-name="Group 4123" transform="translate(-301 -96)">
    <path id="home-svgrepo-com" d="M17,8.652V13.78a2.5,2.5,0,0,1-2.5,2.5h-.917a.75.75,0,0,1-.75-.75v-.167a.75.75,0,0,1,.75-.75H14.5a.833.833,0,0,0,.833-.833V8.652a.833.833,0,0,0-.327-.662l-5-3.824a.833.833,0,0,0-1.012,0l-5,3.824a.833.833,0,0,0-.327.662V13.78a.833.833,0,0,0,.833.833h.917a.75.75,0,0,1,.75.75v.167a.75.75,0,0,1-.75.75H4.5A2.5,2.5,0,0,1,2,13.78V8.652a2.5,2.5,0,0,1,.981-1.986l5-3.824a2.5,2.5,0,0,1,3.037,0l5,3.824A2.5,2.5,0,0,1,17,8.652Zm-7.583.294h.167a2.25,2.25,0,0,1,2.25,2.25v2.667a2.25,2.25,0,0,1-2.25,2.25H9.417a2.25,2.25,0,0,1-2.25-2.25V11.2A2.25,2.25,0,0,1,9.417,8.946Zm.917,2.25a.75.75,0,0,0-.75-.75H9.417a.75.75,0,0,0-.75.75v2.667a.75.75,0,0,0,.75.75h.167a.75.75,0,0,0,.75-.75Z" transform="translate(299 93.671)" fill="#adadad" fill-rule="evenodd"/>
  </g>
</svg>
