<svg xmlns="http://www.w3.org/2000/svg" width="52" height="52" viewBox="0 0 52 52">
  <defs>
    <style>
      .cls-1 {
        fill: #fd4bc9;
      }

      .cls-2, .cls-4 {
        fill: #ffdbf4;
      }

      .cls-3 {
        fill: none;
      }

      .cls-5, .cls-6 {
        stroke: none;
      }

      .cls-6 {
        fill: #fd4bc9;
      }
    </style>
  </defs>
  <g id="Group_4859" data-name="Group 4859" transform="translate(-317 -453)">
    <rect id="Rectangle_84" data-name="Rectangle 84" class="cls-1" width="52" height="52" rx="10" transform="translate(317 453)"/>
    <g id="Component_14_2" data-name="Component 14 – 2" transform="translate(326 462)">
      <path id="Subtraction_1" data-name="Subtraction 1" class="cls-2" d="M-599.024,100.6a1.232,1.232,0,0,1-1.026-.537c-1.345-1.95-2.477-3.563-3.476-4.986l0,0c-4.529-6.451-5.471-7.794-5.471-11.1A9.988,9.988,0,0,1-599.024,74a9.987,9.987,0,0,1,9.976,9.977c0,3.3-.942,4.647-5.471,11.1l0,.006c-1,1.423-2.131,3.035-3.475,4.984A1.232,1.232,0,0,1-599.024,100.6Zm.267-21.3a4,4,0,0,0-4,4,4,4,0,0,0,4,4,4,4,0,0,0,4-4A4,4,0,0,0-598.757,79.3Z" transform="translate(615.757 -69.301)"/>
      <rect id="Rectangle_92" data-name="Rectangle 92" class="cls-3" width="34" height="34"/>
      <g id="Icon_awesome-user-edit" data-name="Icon awesome-user-edit" class="cls-4" transform="translate(1.8 6.392)">
        <path class="cls-5" d="M 16.35927581787109 23.52284622192383 C 15.94932651519775 23.52280616760254 15.55610656738281 23.3466854095459 15.28042697906494 23.0396556854248 C 15.00349712371826 22.7312068939209 14.87019634246826 22.3175163269043 14.91472625732422 21.90463638305664 L 15.21746635437012 19.18885612487793 L 15.24660682678223 18.9273853302002 L 15.43270683288574 18.74142646789551 L 21.56610679626465 12.61247634887695 L 22.04056739807129 12.13835620880127 L 22.04039764404297 12.13818645477295 L 22.57109642028809 11.6074857711792 L 22.75345611572266 11.42512607574463 L 24.43469619750977 9.743896484375 C 24.77640724182129 9.402186393737793 25.23169708251953 9.213995933532715 25.7166862487793 9.213995933532715 C 26.20168685913086 9.213995933532715 26.6569766998291 9.402186393737793 26.99868583679199 9.743906021118164 L 28.68436622619629 11.42957592010498 C 29.3862361907959 12.13896656036377 29.3862361907959 13.28861618041992 28.68718719482422 13.99516582489014 L 26.82521629333496 15.85715579986572 L 26.29525756835938 16.38711547851562 L 26.29302978515625 16.3848934173584 L 25.81558609008789 16.86233520507812 L 19.68218612670898 22.99573707580566 L 19.49631690979004 23.18160629272461 L 19.23508644104004 23.21077537536621 L 16.52731895446777 23.51312637329102 C 16.4715690612793 23.51957893371582 16.41506385803223 23.52284622192383 16.35927581787109 23.52284622192383 Z"/>
        <path class="cls-6" d="M 16.35934448242188 22.7728443145752 C 16.38699340820312 22.77284622192383 16.4149284362793 22.77121543884277 16.44319725036621 22.76785659790039 L 19.15185737609863 22.46540641784668 L 25.28525733947754 16.33200645446777 L 22.09624671936035 13.14299583435059 L 15.96284675598145 19.27194595336914 L 15.66040706634521 21.98505592346191 C 15.61455535888672 22.41017723083496 15.94762134552002 22.77280426025391 16.35934448242188 22.7728443145752 M 26.29488754272461 15.32682609558105 L 28.15403747558594 13.46767616271973 C 28.56767654418945 13.04959583282471 28.56767654418945 12.37798595428467 28.15403747558594 11.95990657806396 L 26.46834754943848 10.27422618865967 C 26.05471611022949 9.86058521270752 25.37866592407227 9.86058521270752 24.96502685546875 10.27422618865967 L 23.10142707824707 12.13781642913818 L 26.29488754272461 15.32682609558105 M 16.35934638977051 24.27284622192383 L 16.35919761657715 24.27284622192383 C 15.73666667938232 24.27278709411621 15.1400671005249 24.00593566894531 14.72236633300781 23.54071617126465 C 14.30340671539307 23.0740966796875 14.10172653198242 22.44845581054688 14.16905689239502 21.82420539855957 L 14.16963672637939 21.81887626647949 L 14.53037643432617 18.58282661437988 L 23.90436744689941 9.213565826416016 C 24.38773727416992 8.730195999145508 25.0313663482666 8.463995933532715 25.7166862487793 8.463995933532715 C 26.40203666687012 8.463995933532715 27.04567718505859 8.730206489562988 27.52903747558594 9.213596343994141 L 29.22034645080566 10.90492630004883 C 30.20716667175293 11.90233612060547 30.20716667175293 13.52524566650391 29.22034645080566 14.52265644073486 L 29.21469688415527 14.52833652496338 L 26.29562759399414 17.44740676879883 L 26.29339981079102 17.44518280029297 L 19.84077644348145 23.89780616760254 L 16.61272811889648 24.25825309753418 C 16.52877044677734 24.2679328918457 16.44355773925781 24.27284622192383 16.35934638977051 24.27284622192383 Z"/>
      </g>
    </g>
  </g>
</svg>
