<svg xmlns="http://www.w3.org/2000/svg" width="52" height="52" viewBox="0 0 52 52">
  <defs>
    <style>
      .cls-1 {
        fill: #b495fd;
      }

      .cls-2 {
        fill: none;
      }

      .cls-3 {
        fill: #ebe2ff;
      }
    </style>
  </defs>
  <g id="Group_4857" data-name="Group 4857" transform="translate(-677 -687)">
    <rect id="Rectangle_1265" data-name="Rectangle 1265" class="cls-1" width="52" height="52" rx="10" transform="translate(677 687)"/>
    <g id="Group_4829" data-name="Group 4829" transform="translate(0 349)">
      <rect id="Rectangle_92" data-name="Rectangle 92" class="cls-2" width="34" height="34" transform="translate(686 347)"/>
      <path id="temperature-half-svgrepo-com" class="cls-3" d="M20.014,5.5c0-6.221-9.462-6.221-9.462,0V17.253a6.533,6.533,0,1,0,9.458,0l0,0ZM15.283,25.989a4.28,4.28,0,0,1-2.856-7.467l0,0c.008-.007.012-.018.02-.026a1.111,1.111,0,0,0,.141-.187l0-.005a1.154,1.154,0,0,0,.107-.158l0-.005a1.052,1.052,0,0,0,.044-.171v-.006a1.113,1.113,0,0,0,.05-.245v0l.006-.03V5.5c0-.028,0-.061,0-.095a2.48,2.48,0,0,1,4.96,0c0,.033,0,.067,0,.1V17.679c0,.011.006.021.006.032a1.121,1.121,0,0,0,.05.247l0-.008a1.128,1.128,0,0,0,.05.2l0-.008a1.185,1.185,0,0,0,.111.164l0,0a1.14,1.14,0,0,0,.144.194h0c.008.008.011.019.02.026a4.28,4.28,0,0,1-2.853,7.471h0Zm1.126-6.983V12.248a1.126,1.126,0,1,0-2.253,0h0v6.758a2.928,2.928,0,1,0,2.272.007ZM24.744,1.659a3.379,3.379,0,1,0,3.379,3.379h0a3.383,3.383,0,0,0-3.379-3.379Zm0,4.505a1.126,1.126,0,1,1,1.126-1.126h0a1.128,1.128,0,0,1-1.126,1.126Z" transform="translate(684.251 349.17)"/>
    </g>
  </g>
</svg>
