<svg xmlns="http://www.w3.org/2000/svg" width="52" height="52" viewBox="0 0 52 52">
  <defs>
    <style>
      .cls-1 {
        fill: #ffbc6e;
      }

      .cls-2 {
        fill: none;
      }

      .cls-3, .cls-4, .cls-5 {
        fill: #fbeede;
      }

      .cls-4 {
        stroke: #ffbc6e;
        stroke-width: 1.5px;
      }

      .cls-6, .cls-7 {
        stroke: none;
      }

      .cls-7 {
        fill: #ffbc6e;
      }
    </style>
  </defs>
  <g id="Group_4867" data-name="Group 4867" transform="translate(-317 -338)">
    <path id="Path_10478" data-name="Path 10478" class="cls-1" d="M10,0H42A10,10,0,0,1,52,10V42A10,10,0,0,1,42,52H10A10,10,0,0,1,0,42V10A10,10,0,0,1,10,0Z" transform="translate(317 338)"/>
    <g id="Group_4821" data-name="Group 4821">
      <g id="Group_4124" data-name="Group 4124" transform="translate(326 347)">
        <rect id="Rectangle_92" data-name="Rectangle 92" class="cls-2" width="34" height="34"/>
        <path id="Path_10479" data-name="Path 10479" class="cls-3" d="M11,0A11,11,0,1,1,0,11,11,11,0,0,1,11,0Z" transform="translate(5 5)"/>
        <g id="Ellipse_1280" data-name="Ellipse 1280" class="cls-4" transform="translate(12 23)">
          <circle class="cls-6" cx="4.5" cy="4.5" r="4.5"/>
          <circle class="cls-2" cx="4.5" cy="4.5" r="3.75"/>
        </g>
        <g id="Ellipse_1281" data-name="Ellipse 1281" class="cls-4" transform="translate(12 1)">
          <circle class="cls-6" cx="4.5" cy="4.5" r="4.5"/>
          <circle class="cls-2" cx="4.5" cy="4.5" r="3.75"/>
        </g>
        <g id="Ellipse_1283" data-name="Ellipse 1283" class="cls-4" transform="translate(1 12)">
          <circle class="cls-6" cx="4.5" cy="4.5" r="4.5"/>
          <circle class="cls-2" cx="4.5" cy="4.5" r="3.75"/>
        </g>
        <g id="Ellipse_1284" data-name="Ellipse 1284" class="cls-4" transform="translate(23 12)">
          <circle class="cls-6" cx="4.5" cy="4.5" r="4.5"/>
          <circle class="cls-2" cx="4.5" cy="4.5" r="3.75"/>
        </g>
        <g id="Icon_awesome-user-edit" data-name="Icon awesome-user-edit" class="cls-5" transform="translate(5.08 8.036)">
          <path class="cls-6" d="M 16.27458572387695 21.72979164123535 C 15.95928573608398 21.72976112365723 15.65672588348389 21.59417152404785 15.44449615478516 21.35780143737793 C 15.23114585876465 21.12018013000488 15.12846565246582 20.80144119262695 15.16277599334717 20.48329162597656 L 15.42898654937744 18.09524154663086 L 15.44841575622559 17.92092132568359 L 15.57248592376709 17.79695129394531 L 20.96700668334961 12.40635108947754 L 21.320556640625 12.05305099487305 L 21.67397689819336 12.40648078918457 L 24.47881698608398 15.21131134033203 L 24.83237648010254 15.56486129760742 L 24.47881698608398 15.91841125488281 L 19.08429527282715 21.31293106079102 L 18.96038627624512 21.43685150146484 L 18.78623580932617 21.45629119873047 L 16.40387535095215 21.72231101989746 C 16.36333656311035 21.72714042663574 16.31865692138672 21.72979164123535 16.27458572387695 21.72979164123535 Z M 25.01351547241211 15.3876314163208 L 24.65995597839355 15.03457069396973 L 21.85120582580566 12.22974109649658 L 21.4971752166748 11.87620067596436 L 21.85095596313477 11.52240085601807 L 22.0113353729248 11.36201095581055 L 23.49005699157715 9.88330078125 C 23.76044654846191 9.612900733947754 24.12079620361328 9.463991165161133 24.50471687316895 9.463991165161133 C 24.88864517211914 9.463991165161133 25.24899673461914 9.612911224365234 25.51938629150391 9.88330078125 L 27.00199699401855 11.36591053009033 C 27.55744552612305 11.92733097076416 27.55744552612305 12.83773136138916 27.00388526916504 13.39725112915039 L 25.3668155670166 15.03432083129883 L 25.01351547241211 15.3876314163208 Z"/>
          <path class="cls-7" d="M 16.27463722229004 21.22978782653809 C 16.29895401000977 21.22978973388672 16.32352447509766 21.22835540771484 16.34838676452637 21.22540092468262 L 18.73074531555176 20.95938110351562 L 24.12526702880859 15.56486129760742 L 21.32042694091797 12.76003074645996 L 15.92590618133545 18.15063095092773 L 15.65989589691162 20.53690147399902 C 15.61957359313965 20.91080284118652 15.91250991821289 21.22975158691406 16.27463722229004 21.22978782653809 M 25.01326560974121 14.68077087402344 L 26.64844703674316 13.04560089111328 C 27.01224517822266 12.67788124084473 27.01224517822266 12.08718109130859 26.64844703674316 11.71946048736572 L 25.16582679748535 10.23685073852539 C 24.80202484130859 9.873038291931152 24.20741271972656 9.873042106628418 23.84360694885254 10.23685073852539 L 22.20451545715332 11.87594127655029 L 25.01326560974121 14.68077087402344 M 16.27463531494141 22.22979164123535 L 16.27452659606934 22.22979164123535 C 15.81750583648682 22.22974014282227 15.37936592102051 22.03366088867188 15.07245635986328 21.69184112548828 C 14.76442623138428 21.34877014160156 14.61615657806396 20.88874053955078 14.66565608978271 20.42969131469727 L 14.97092628479004 17.69122123718262 L 20.78986930847168 11.87650489807129 L 20.78982543945312 11.87646102905273 L 23.13650703430176 9.529741287231445 C 23.50135612487793 9.164900779724121 23.98725700378418 8.963991165161133 24.50471687316895 8.963991165161133 C 25.02219581604004 8.963991165161133 25.50810623168945 9.164911270141602 25.8729362487793 9.529741287231445 L 27.35933685302734 11.01615142822266 C 28.10472679138184 11.76958084106445 28.10472679138184 12.99548053741455 27.35933685302734 13.74891090393066 L 27.35554695129395 13.75271129608154 L 25.01375579833984 16.09449005126953 L 25.01180267333984 16.0925407409668 L 19.19002532958984 21.91431045532227 L 16.46213722229004 22.21891021728516 C 16.39994812011719 22.22613334655762 16.33689308166504 22.22979164123535 16.27463531494141 22.22979164123535 Z"/>
        </g>
      </g>
    </g>
  </g>
</svg>
