<svg xmlns="http://www.w3.org/2000/svg" width="52" height="52" viewBox="0 0 52 52">
  <defs>
    <style>
      .cls-1 {
        fill: #fd4bc9;
      }

      .cls-2 {
        fill: none;
      }

      .cls-3 {
        fill: #ffdbf4;
      }
    </style>
  </defs>
  <g id="Group_4857" data-name="Group 4857" transform="translate(-677 -859)">
    <path id="Path_11233" data-name="Path 11233" class="cls-1" d="M10,0H42A10,10,0,0,1,52,10V42A10,10,0,0,1,42,52H10A10,10,0,0,1,0,42V10A10,10,0,0,1,10,0Z" transform="translate(677 859)"/>
    <g id="Group_4843" data-name="Group 4843" transform="translate(360 344)">
      <rect id="Rectangle_92" data-name="Rectangle 92" class="cls-2" width="34" height="34" transform="translate(326 524)"/>
      <g id="bus-holiday-tourism-2-svgrepo-com" transform="translate(297.48 406)">
        <path id="Path_11234" data-name="Path 11234" class="cls-3" d="M58.319,125H33.736a3.45,3.45,0,0,0-3.4,2.865l-1.768,10.34a3.449,3.449,0,0,0,3.4,4.027h1.3a2.938,2.938,0,1,1,5.875,0H51.15a2.938,2.938,0,1,1,5.875,0h1.3a3.446,3.446,0,0,0,3.449-3.449V128.449A3.457,3.457,0,0,0,58.319,125Zm-4.063,3.88a.917.917,0,0,1,.921-.921h2.134a.922.922,0,0,1,.921.921v4.6a.922.922,0,0,1-.921.921H55.177a.922.922,0,0,1-.921-.921Zm-6.3,0a.917.917,0,0,1,.921-.921h2.134a.922.922,0,0,1,.921.921v4.6a.922.922,0,0,1-.921.921H48.878a.922.922,0,0,1-.921-.921Zm-6.292,0a.922.922,0,0,1,.921-.921H44.72a.922.922,0,0,1,.921.921v4.6a.922.922,0,0,1-.921.921H42.586a.922.922,0,0,1-.921-.921Zm-3.837,7.278a2.754,2.754,0,0,1-2.784,2.185H31.968a.514.514,0,0,1-.38-.161.426.426,0,0,1-.11-.365l1.776-9.485a.488.488,0,0,1,.482-.38h5.5Zm20.41,1.747H41.665a.512.512,0,0,1,0-1.023H58.239a.508.508,0,0,1,.512.512A.518.518,0,0,1,58.239,137.905Z"/>
        <path id="Path_11235" data-name="Path 11235" class="cls-3" d="M109.415,334.6a1.915,1.915,0,1,0,1.915,1.915A1.912,1.912,0,0,0,109.415,334.6Z" transform="translate(-73.208 -194.283)"/>
        <path id="Path_11236" data-name="Path 11236" class="cls-3" d="M354.015,334.6a1.915,1.915,0,1,0,1.915,1.915A1.912,1.912,0,0,0,354.015,334.6Z" transform="translate(-299.934 -194.283)"/>
      </g>
    </g>
  </g>
</svg>
