<svg xmlns="http://www.w3.org/2000/svg" width="52" height="52" viewBox="0 0 52 52">
  <defs>
    <style>
      .cls-1 {
        fill: #309afc;
      }

      .cls-2 {
        fill: none;
      }

      .cls-3 {
        fill: #c5e3ff;
      }
    </style>
  </defs>
  <g id="Group_4862" data-name="Group 4862" transform="translate(-604 -619)">
    <path id="Path_114" data-name="Path 114" class="cls-1" d="M10,0H42A10,10,0,0,1,52,10V42A10,10,0,0,1,42,52H10A10,10,0,0,1,0,42V10A10,10,0,0,1,10,0Z" transform="translate(604 619)"/>
    <g id="Component_14_5" data-name="Component 14 – 5" transform="translate(613 628)">
      <rect id="Rectangle_92" data-name="Rectangle 92" class="cls-2" width="34" height="34"/>
      <g id="Icon_ionic-ios-chatbubbles" data-name="Icon ionic-ios-chatbubbles" transform="translate(0.625 0.625)">
        <path id="Path_121" data-name="Path 121" class="cls-3" d="M27.285,19.926a1.471,1.471,0,0,1,.2-.741A2.045,2.045,0,0,1,27.613,19a9.838,9.838,0,0,0,1.676-5.483A10.328,10.328,0,0,0,18.742,3.375,10.474,10.474,0,0,0,8.4,11.444a9.757,9.757,0,0,0-.225,2.076A10.3,10.3,0,0,0,18.56,23.788a12.5,12.5,0,0,0,2.866-.468c.686-.188,1.366-.437,1.542-.5a1.605,1.605,0,0,1,.565-.1,1.579,1.579,0,0,1,.613.121l3.443,1.22a.821.821,0,0,0,.237.061.483.483,0,0,0,.486-.486.78.78,0,0,0-.03-.164Z" transform="translate(-0.655 0)"/>
        <path id="Path_122" data-name="Path 122" class="cls-3" d="M19.8,25.592c-.219.061-.5.128-.8.194a11.206,11.206,0,0,1-2.064.273A10.3,10.3,0,0,1,6.55,15.792a11.479,11.479,0,0,1,.091-1.3c.036-.261.079-.522.14-.777.061-.273.134-.546.213-.814l-.486.431a9.036,9.036,0,0,0-3.133,6.794,8.935,8.935,0,0,0,1.506,4.979c.14.213.219.376.194.486s-.723,3.764-.723,3.764a.487.487,0,0,0,.164.468.5.5,0,0,0,.31.109A.436.436,0,0,0,5,29.9l3.406-1.342a.949.949,0,0,1,.729.012,10.219,10.219,0,0,0,3.685.729,9.536,9.536,0,0,0,7.292-3.345s.194-.267.419-.583C20.309,25.446,20.054,25.525,19.8,25.592Z" transform="translate(0 -1.3)"/>
      </g>
    </g>
  </g>
</svg>
