<svg xmlns="http://www.w3.org/2000/svg" width="52" height="52" viewBox="0 0 52 52"><defs><style>.a{fill:#fd4bc9;}.b,.e{fill:#ffdbf4;}.c,.d{fill:none;}.c{stroke:#fd4bc9;stroke-linecap:round;stroke-linejoin:round;stroke-width:2px;}.f,.g{stroke:none;}.g{fill:#fd4bc9;}</style></defs><g transform="translate(-577 -206)"><path class="a" d="M10,0H42A10,10,0,0,1,52,10V42A10,10,0,0,1,42,52H10A10,10,0,0,1,0,42V10A10,10,0,0,1,10,0Z" transform="translate(577 206)"/><g transform="translate(586 215)"><g transform="translate(-843.813 -102.5)"><path class="b" d="M.513,8.21h18.13a.515.515,0,0,1,.513.513V19.84A2.053,2.053,0,0,1,17.1,21.892H2.052A2.053,2.053,0,0,1,0,19.84V8.723A.515.515,0,0,1,.513,8.21ZM19.156,6.328V4.789A2.053,2.053,0,0,0,17.1,2.737H15.051V.513A.515.515,0,0,0,14.538,0h-1.71a.515.515,0,0,0-.513.513V2.737H6.841V.513A.515.515,0,0,0,6.328,0H4.618A.515.515,0,0,0,4.1.513V2.737H2.052A2.053,2.053,0,0,0,0,4.789V6.328a.515.515,0,0,0,.513.513h18.13A.515.515,0,0,0,19.156,6.328Z" transform="translate(851.375 109)"/><g transform="translate(860.821 120.434)"><path class="c" d="M24,3V6.778" transform="translate(-24 -3)"/><path class="c" d="M24,3h0" transform="translate(-24 3.849)"/></g></g><rect class="d" width="34" height="34"/><g class="e" transform="translate(18.434 17)"><path class="f" d="M 7.177048683166504 15.39735889434814 C 3.564238548278809 15.39735889434814 0.6249985694885254 12.4581184387207 0.6249985694885254 8.845308303833008 C 0.6249985694885254 7.271138668060303 1.191258549690247 5.749518394470215 2.219468593597412 4.560738563537598 C 3.142472267150879 3.493607997894287 4.382239818572998 2.754903316497803 5.745968341827393 2.451438665390015 L 5.745968341827393 2.362168550491333 L 5.431268692016602 2.362168550491333 C 4.963038444519043 2.362168550491333 4.582108497619629 1.981238484382629 4.582108497619629 1.51300847530365 L 4.582108497619629 0.3491584956645966 C 4.582108497619629 -0.1190715059638023 4.963038444519043 -0.5000014901161194 5.431268692016602 -0.5000014901161194 L 8.92283821105957 -0.5000014901161194 C 9.391058921813965 -0.5000014901161194 9.771988868713379 -0.1190715059638023 9.771988868713379 0.3491584956645966 L 9.771988868713379 1.51300847530365 C 9.771988868713379 1.981238484382629 9.391058921813965 2.362168550491333 8.92283821105957 2.362168550491333 L 8.608138084411621 2.362168550491333 L 8.608138084411621 2.451845169067383 C 9.455267906188965 2.641024827957153 10.25704765319824 2.997974395751953 10.96478176116943 3.50086498260498 L 11.45564842224121 3.009998559951782 C 11.61620807647705 2.84941840171814 11.82960891723633 2.76097846031189 12.0565185546875 2.76097846031189 C 12.28341865539551 2.76097846031189 12.4968090057373 2.84941840171814 12.65738868713379 3.009998559951782 L 13.48081874847412 3.83340859413147 C 13.81213855743408 4.164758682250977 13.81212902069092 4.703848361968994 13.48081874847412 5.035158634185791 L 12.88587379455566 5.63010311126709 C 13.43871212005615 6.604523181915283 13.72909832000732 7.707707405090332 13.72909832000732 8.845308303833008 C 13.72909832000732 12.4581184387207 10.7898588180542 15.39735889434814 7.177048683166504 15.39735889434814 Z M 6.745968341827393 9.741928100585938 L 7.608138561248779 9.741928100585938 L 7.608138561248779 5.635518550872803 L 6.745968341827393 5.635518550872803 L 6.745968341827393 9.741928100585938 Z"/><path class="g" d="M 7.177048683166504 14.89735889434814 C 10.52022838592529 14.89735889434814 13.22909832000732 12.18847846984863 13.22909832000732 8.845308303833008 C 13.22909832000732 7.629078388214111 12.87121868133545 6.497228622436523 12.25436878204346 5.554498672485352 L 13.12726879119873 4.6816086769104 C 13.26401901245117 4.544858455657959 13.26401901245117 4.323728561401367 13.12726879119873 4.186968326568604 L 12.3038387298584 3.363548517227173 C 12.16707801818848 3.226788282394409 11.94594955444336 3.226788282394409 11.8091983795166 3.363548517227173 L 11.00904846191406 4.163698673248291 C 10.19434833526611 3.494478464126587 9.199248313903809 3.034758567810059 8.108138084411621 2.865998506546021 L 8.108138084411621 1.862168550491333 L 8.92283821105957 1.862168550491333 C 9.1148681640625 1.862168550491333 9.271988868713379 1.705048441886902 9.271988868713379 1.51300847530365 L 9.271988868713379 0.3491584956645966 C 9.271988868713379 0.1571184992790222 9.1148681640625 -1.506500211689854e-06 8.92283821105957 -1.506500211689854e-06 L 5.431268692016602 -1.506500211689854e-06 C 5.23922872543335 -1.506500211689854e-06 5.082108497619629 0.1571184992790222 5.082108497619629 0.3491584956645966 L 5.082108497619629 1.51300847530365 C 5.082108497619629 1.705048441886902 5.23922872543335 1.862168550491333 5.431268692016602 1.862168550491333 L 6.245968341827393 1.862168550491333 L 6.245968341827393 2.865998506546021 C 3.345058441162109 3.311168432235718 1.124998569488525 5.819278717041016 1.124998569488525 8.845308303833008 C 1.124998569488525 12.18847846984863 3.833878517150879 14.89735889434814 7.177048683166504 14.89735889434814 M 6.595118522644043 5.135518550872803 L 7.758978366851807 5.135518550872803 C 7.951018333435059 5.135518550872803 8.108138084411621 5.292638301849365 8.108138084411621 5.484668731689453 L 8.108138084411621 9.892778396606445 C 8.108138084411621 10.08480834960938 7.951018333435059 10.24192810058594 7.758978366851807 10.24192810058594 L 6.595118522644043 10.24192810058594 C 6.403088569641113 10.24192810058594 6.245968341827393 10.08480834960938 6.245968341827393 9.892778396606445 L 6.245968341827393 5.484668731689453 C 6.245968341827393 5.292638301849365 6.403088569641113 5.135518550872803 6.595118522644043 5.135518550872803 M 7.177048683166504 15.89735889434814 C 3.288538455963135 15.89735889434814 0.1249985545873642 12.73381805419922 0.1249985545873642 8.845308303833008 C 0.1249985545873642 7.15104866027832 0.7345285415649414 5.513258457183838 1.84130859375 4.233648300170898 C 2.54398250579834 3.42124080657959 3.41738748550415 2.785664319992065 4.388036251068115 2.367620229721069 C 4.196957111358643 2.134773254394531 4.082108497619629 1.837024927139282 4.082108497619629 1.51300847530365 L 4.082108497619629 0.3491584956645966 C 4.082108497619629 -0.3947715163230896 4.687338352203369 -1.000001549720764 5.431268692016602 -1.000001549720764 L 8.92283821105957 -1.000001549720764 C 9.66675853729248 -1.000001549720764 10.27198886871338 -0.3947715163230896 10.27198886871338 0.3491584956645966 L 10.27198886871338 1.51300847530365 C 10.27198886871338 1.837388157844543 10.15690135955811 2.135417699813843 9.965436935424805 2.368379831314087 C 10.28873538970947 2.507702112197876 10.6013298034668 2.671192646026611 10.90075302124023 2.857774019241333 L 11.10208892822266 2.656438589096069 C 11.3571081161499 2.401418447494507 11.69606876373291 2.26097846031189 12.0565185546875 2.26097846031189 C 12.41696834564209 2.26097846031189 12.7559289932251 2.401418447494507 13.01094818115234 2.656438589096069 L 13.83436870574951 3.4798583984375 C 14.36063861846924 4.006168365478516 14.36062812805176 4.8624587059021 13.83437824249268 5.388718605041504 L 13.5008602142334 5.722236633300781 C 13.97915077209473 6.685573101043701 14.22909832000732 7.750860214233398 14.22909832000732 8.845308303833008 C 14.22909832000732 12.73381805419922 11.06555843353271 15.89735889434814 7.177048683166504 15.89735889434814 Z"/></g></g></g></svg>