<svg xmlns="http://www.w3.org/2000/svg" width="52" height="52" viewBox="0 0 52 52">
  <defs>
    <style>
      .cls-1 {
        fill: #30e8ac;
      }

      .cls-2 {
        fill: none;
      }

      .cls-3 {
        fill: #d7f8ee;
      }
    </style>
  </defs>
  <g id="Group_4863" data-name="Group 4863" transform="translate(-320 -788)">
    <path id="Path_114" data-name="Path 114" class="cls-1" d="M10,0H42A10,10,0,0,1,52,10V42A10,10,0,0,1,42,52H10A10,10,0,0,1,0,42V10A10,10,0,0,1,10,0Z" transform="translate(320 788)"/>
    <g id="Component_14_6" data-name="Component 14 – 6" transform="translate(329 797)">
      <rect id="Rectangle_92" data-name="Rectangle 92" class="cls-2" width="34" height="34"/>
      <path id="Icon_awesome-bus" data-name="Icon awesome-bus" class="cls-3" d="M21.035,5.517h-.345V3.448C20.691,1.517,16.415,0,11.035,0S1.379,1.517,1.379,3.448V5.517H1.035A1.035,1.035,0,0,0,0,6.552V10a1.035,1.035,0,0,0,1.035,1.035h.345v6.9a1.38,1.38,0,0,0,1.379,1.379v1.379A1.38,1.38,0,0,0,4.138,22.07H5.517A1.38,1.38,0,0,0,6.9,20.691V19.311h8.276v1.379a1.38,1.38,0,0,0,1.379,1.379h1.379a1.38,1.38,0,0,0,1.379-1.379V19.311h.276a1.088,1.088,0,0,0,1.1-1.1V11.035h.345A1.035,1.035,0,0,0,22.07,10V6.552A1.035,1.035,0,0,0,21.035,5.517ZM4.828,17.242a1.379,1.379,0,1,1,1.379-1.379A1.38,1.38,0,0,1,4.828,17.242Zm.69-4.828a1.38,1.38,0,0,1-1.379-1.379V5.517A1.38,1.38,0,0,1,5.517,4.138H16.552a1.38,1.38,0,0,1,1.379,1.379v5.517a1.38,1.38,0,0,1-1.379,1.379Zm11.725,4.828a1.379,1.379,0,1,1,1.379-1.379A1.38,1.38,0,0,1,17.242,17.242Z" transform="translate(6 6)"/>
    </g>
  </g>
</svg>
