<svg xmlns="http://www.w3.org/2000/svg" width="52" height="52" viewBox="0 0 52 52">
  <defs>
    <style>
      .cls-1 {
        fill: #309afc;
      }

      .cls-2 {
        fill: none;
      }

      .cls-3 {
        fill: #c5e3ff;
      }
    </style>
  </defs>
  <g id="Group_4858" data-name="Group 4858" transform="translate(-317 -859)">
    <rect id="Rectangle_1280" data-name="Rectangle 1280" class="cls-1" width="52" height="52" rx="10" transform="translate(317 859)"/>
    <g id="Group_4840" data-name="Group 4840" transform="translate(0 693)">
      <rect id="Rectangle_92" data-name="Rectangle 92" class="cls-2" width="34" height="34" transform="translate(326 175)"/>
      <g id="receipt-svgrepo-com" transform="translate(332.901 183.707)">
        <path id="Path_11230" data-name="Path 11230" class="cls-3" d="M20.2,1.639A1.348,1.348,0,0,0,18.851.293H1.346A1.344,1.344,0,0,0,1.01,2.938V4a.337.337,0,0,1,.337-.337H2.02a.337.337,0,1,1,0,.673H1.346A.337.337,0,0,1,1.01,4V19.283l1.01-1.01,2.02,2.02,2.02-2.02,2.02,2.02,2.02-2.02,2.02,2.02,2.02-2.02,2.02,2.02,2.02-2.02,1.01,1.01V4a.337.337,0,0,1-.337.337h-.673a.337.337,0,0,1,0-.673h.673A.337.337,0,0,1,19.187,4V2.938A1.345,1.345,0,0,0,20.2,1.639ZM10.435,11.4a.337.337,0,1,1,0,.673H9.762a.337.337,0,0,1,0-.673Zm-.673-2.02a.346.346,0,0,1,.1-.239.352.352,0,0,1,.478,0,.341.341,0,0,1,0,.478.341.341,0,0,1-.478,0A.348.348,0,0,1,9.762,9.382Zm0-2.02a.337.337,0,0,1,0-.673h5.049a.337.337,0,1,1,0,.673ZM10.383,4a.337.337,0,0,1,.337-.337h1.243a.337.337,0,0,1,0,.673H10.72A.337.337,0,0,1,10.383,4Zm2.486,0a.337.337,0,0,1,.337-.337h1.243a.337.337,0,0,1,0,.673H13.206A.337.337,0,0,1,12.869,4ZM2.926,4a.337.337,0,0,1,.337-.337H4.505a.337.337,0,1,1,0,.673H3.263A.337.337,0,0,1,2.926,4ZM6.732,9.382A.337.337,0,0,1,6.4,9.045,1.008,1.008,0,0,0,5.723,8.1V9.928l.75.584a1.228,1.228,0,0,1,.466.838,1.159,1.159,0,0,1-.267.877,1.68,1.68,0,0,1-.949.561v.3a.337.337,0,1,1-.673,0v-.3A1.686,1.686,0,0,1,3.7,11.14a.337.337,0,0,1,.673,0,1.008,1.008,0,0,0,.673.948V10.257L4.3,9.673a1.228,1.228,0,0,1-.466-.839A1.158,1.158,0,0,1,4.1,7.959,1.679,1.679,0,0,1,5.049,7.4V7.025a.337.337,0,0,1,.673,0V7.4A1.686,1.686,0,0,1,7.069,9.045.337.337,0,0,1,6.732,9.382Zm.259-5.049H5.749a.337.337,0,1,1,0-.673H6.992a.337.337,0,1,1,0,.673ZM7.9,4a.337.337,0,0,1,.337-.337H9.477a.337.337,0,0,1,0,.673H8.234A.337.337,0,0,1,7.9,4Zm6.914,10.435H9.762a.337.337,0,1,1,0-.673h5.049a.337.337,0,1,1,0,.673Zm-3.366-2.693a.337.337,0,0,1,.576-.239.341.341,0,0,1,.1.239.348.348,0,0,1-.1.239.337.337,0,0,1-.576-.239Zm5.288,2.6a.337.337,0,0,1-.576-.239.346.346,0,0,1,.1-.239.352.352,0,0,1,.478,0,.346.346,0,0,1,.1.239A.354.354,0,0,1,16.733,14.333Zm-.239-2.259H13.128a.337.337,0,0,1,0-.673h3.366a.337.337,0,0,1,0,.673Zm0-2.356H11.445a.337.337,0,0,1,0-.673h5.049a.337.337,0,0,1,0,.673Zm.239-2.454a.348.348,0,0,1-.239.1.333.333,0,0,1-.337-.337.346.346,0,0,1,.1-.239.338.338,0,0,1,.478.478Zm.2-2.932H15.692a.337.337,0,0,1,0-.673h1.243a.337.337,0,0,1,0,.673Zm2.253-2.11V1.3H1.01v.919A.673.673,0,0,1,1.346.966h17.5a.673.673,0,0,1,.337,1.256Z"/>
        <path id="Path_11231" data-name="Path 11231" class="cls-3" d="M13.371,24.149a.553.553,0,0,0,.209.377l.337.262V23.483a1.006,1.006,0,0,0-.435.295A.489.489,0,0,0,13.371,24.149Z" transform="translate(-8.868 -15.384)"/>
        <path id="Path_11232" data-name="Path 11232" class="cls-3" d="M17,32.754a1.006,1.006,0,0,0,.435-.295.491.491,0,0,0,.111-.372.551.551,0,0,0-.209-.376L17,31.449Z" transform="translate(-11.277 -20.668)"/>
      </g>
    </g>
  </g>
</svg>
