<svg xmlns="http://www.w3.org/2000/svg" width="52" height="52" viewBox="0 0 52 52">
  <defs>
    <style>
      .cls-1 {
        fill: #30e8ac;
      }

      .cls-2 {
        fill: none;
      }

      .cls-3, .cls-4 {
        fill: #d7f8ee;
      }

      .cls-5, .cls-6 {
        stroke: none;
      }

      .cls-6 {
        fill: #30e8ac;
      }
    </style>
  </defs>
  <g id="Group_4868" data-name="Group 4868" transform="translate(-17 -20)">
    <g id="Group_4867" data-name="Group 4867">
      <path id="Path_114" data-name="Path 114" class="cls-1" d="M10,0H42A10,10,0,0,1,52,10V42A10,10,0,0,1,42,52H10A10,10,0,0,1,0,42V10A10,10,0,0,1,10,0Z" transform="translate(17 20)"/>
    </g>
    <g id="Group_4819" data-name="Group 4819">
      <rect id="Rectangle_92" data-name="Rectangle 92" class="cls-2" width="34" height="34" transform="translate(26 29)"/>
      <g id="Group_4865" data-name="Group 4865" transform="translate(0.001)">
        <g id="Group_4864" data-name="Group 4864" transform="translate(27.999 31)">
          <path id="Path_11242" data-name="Path 11242" class="cls-3" d="M455.72,562.983c.079.47.131.946.241,1.408a9.26,9.26,0,0,0,4.241,5.889c.032.02.067.038.116.065-.057-.5-.133-.977-.159-1.457a.926.926,0,0,0-.338-.682,7.576,7.576,0,0,1-2.384-7.895,7.47,7.47,0,0,1,6.051-5.716,7.588,7.588,0,0,1,7.567,2.611.547.547,0,0,0,.4.2c.531.045,1.059.112,1.625.175-.06-.1-.11-.19-.168-.277a9.251,9.251,0,0,0-7.035-4.28,1.134,1.134,0,0,1-.159-.04h-1.292c-.322.046-.645.087-.966.14a9.334,9.334,0,0,0-7.5,7.089c-.108.487-.164.985-.245,1.478Z" transform="translate(-455.72 -552.984)"/>
          <path id="Path_11243" data-name="Path 11243" class="cls-3" d="M347.389,646.5l5.252,5.253c0-.275,0-.558,0-.841a.719.719,0,1,1,1.434,0q0,1.292,0,2.583a.721.721,0,0,1-.771.781q-1.3,0-2.607,0a.718.718,0,1,1,.007-1.434c.285,0,.569,0,.831,0l-5.228-5.225a9.2,9.2,0,0,0-.322,11.627,9.322,9.322,0,1,0,1.4-12.742Z" transform="translate(-338.241 -638.44)"/>
          <path id="Path_11244" data-name="Path 11244" class="cls-3" d="M587.084,631.045l1.76,1.77,1.03-1.033L588.082,630c.361,0,.643,0,.926,0a.719.719,0,1,0,.011-1.434q-1.3,0-2.606,0a.717.717,0,0,0-.763.764q-.006,1.3,0,2.605a.719.719,0,1,0,1.434-.011C587.085,631.647,587.084,631.368,587.084,631.045Z" transform="translate(-580.817 -623.734)"/>
        </g>
        <g id="Icon_awesome-bus" data-name="Icon awesome-bus" class="cls-4" transform="translate(46.101 48)">
          <path class="cls-5" d="M 10.39151573181152 13.28955554962158 L 9.592164993286133 13.28955554962158 C 8.875705718994141 13.28955554962158 8.292815208435059 12.7066650390625 8.292815208435059 11.99020576477051 L 8.292815208435059 11.69085502624512 L 4.496735572814941 11.69085502624512 L 4.496735572814941 11.99020576477051 C 4.496735572814941 12.7066650390625 3.913845300674438 13.28955554962158 3.197385311126709 13.28955554962158 L 2.398045301437378 13.28955554962158 C 1.681585431098938 13.28955554962158 1.098695397377014 12.7066650390625 1.098695397377014 11.99020576477051 L 1.098695397377014 11.5908088684082 C 0.6297190189361572 11.39454174041748 0.2993454039096832 10.93087196350098 0.2993454039096832 10.39151573181152 L 0.2993454039096832 6.853133678436279 C -0.1615101844072342 6.722193717956543 -0.5000045895576477 6.297517776489258 -0.5000045895576477 5.795265197753906 L -0.5000045895576477 3.796895503997803 C -0.5000045895576477 3.294642925262451 -0.1615101844072342 2.869967222213745 0.2993454039096832 2.73902702331543 L 0.2993454039096832 1.99836540222168 C 0.2993454039096832 1.45507538318634 0.6395254135131836 0.6861953735351562 2.260145425796509 0.1085453927516937 C 3.361125469207764 -0.2838846147060394 4.829505443572998 -0.5000045895576477 6.394775390625 -0.5000045895576477 C 7.960045337677002 -0.5000045895576477 9.428425788879395 -0.2838846147060394 10.52940559387207 0.1085453927516937 C 12.15002536773682 0.6861953735351562 12.49020576477051 1.45507538318634 12.49020576477051 1.99836540222168 L 12.49020576477051 2.739025354385376 C 12.9510555267334 2.869965553283691 13.28955554962158 3.294642925262451 13.28955554962158 3.796895503997803 L 13.28955554962158 5.795265197753906 C 13.28955554962158 6.297517776489258 12.9510555267334 6.722195148468018 12.49020576477051 6.853135585784912 L 12.49020576477051 10.55137538909912 C 12.49020576477051 11.01566886901855 12.19730091094971 11.49319648742676 11.69085502624512 11.64299392700195 L 11.69085502624512 11.99020576477051 C 11.69085502624512 12.7066650390625 11.10797500610352 13.28955554962158 10.39151573181152 13.28955554962158 Z M 9.991835594177246 8.893145561218262 C 9.826775550842285 8.893145561218262 9.692485809326172 9.027425765991211 9.692485809326172 9.192485809326172 C 9.692485809326172 9.357545852661133 9.826775550842285 9.491835594177246 9.991835594177246 9.491835594177246 C 10.15689563751221 9.491835594177246 10.29118537902832 9.357545852661133 10.29118537902832 9.192485809326172 C 10.29118537902832 9.027425765991211 10.15689563751221 8.893145561218262 9.991835594177246 8.893145561218262 Z M 2.797715425491333 8.893145561218262 C 2.632655382156372 8.893145561218262 2.49836540222168 9.027425765991211 2.49836540222168 9.192485809326172 C 2.49836540222168 9.357545852661133 2.632655382156372 9.491835594177246 2.797715425491333 9.491835594177246 C 2.962775468826294 9.491835594177246 3.097065448760986 9.357545852661133 3.097065448760986 9.192485809326172 C 3.097065448760986 9.027425765991211 2.962775468826294 8.893145561218262 2.797715425491333 8.893145561218262 Z M 3.197385311126709 2.898045301437378 C 3.032325506210327 2.898045301437378 2.898045301437378 3.032325506210327 2.898045301437378 3.197385311126709 L 2.898045301437378 6.394775390625 C 2.898045301437378 6.559835433959961 3.032325506210327 6.694125175476074 3.197385311126709 6.694125175476074 L 9.592164993286133 6.694125175476074 C 9.757225036621094 6.694125175476074 9.891515731811523 6.559835433959961 9.891515731811523 6.394775390625 L 9.891515731811523 3.197385311126709 C 9.891515731811523 3.032325506210327 9.757225036621094 2.898045301437378 9.592164993286133 2.898045301437378 L 3.197385311126709 2.898045301437378 Z"/>
          <path class="cls-6" d="M 6.394775390625 -4.76837158203125e-06 C 3.277325630187988 -4.76837158203125e-06 0.7993450164794922 0.8792858123779297 0.7993450164794922 1.99836540222168 L 0.7993450164794922 3.197385787963867 L 0.5995054244995117 3.197385787963867 C 0.2685356140136719 3.197385787963867 -4.76837158203125e-06 3.465665817260742 -4.76837158203125e-06 3.796895027160645 L -4.76837158203125e-06 5.795265197753906 C -4.76837158203125e-06 6.126245498657227 0.2685356140136719 6.394775390625 0.5995054244995117 6.394775390625 L 0.7993450164794922 6.394775390625 L 0.7993450164794922 10.39151573181152 C 0.7993450164794922 10.83289527893066 1.157305717468262 11.19085502624512 1.598695755004883 11.19085502624512 L 1.598695755004883 11.99020576477051 C 1.598695755004883 12.43159580230713 1.956655502319336 12.78955554962158 2.398045539855957 12.78955554962158 L 3.197385787963867 12.78955554962158 C 3.638775825500488 12.78955554962158 3.996735572814941 12.43159580230713 3.996735572814941 11.99020576477051 L 3.996735572814941 11.19085502624512 L 8.792815208435059 11.19085502624512 L 8.792815208435059 11.99020576477051 C 8.792815208435059 12.43159580230713 9.150775909423828 12.78955554962158 9.592164993286133 12.78955554962158 L 10.39151573181152 12.78955554962158 C 10.83289527893066 12.78955554962158 11.19085502624512 12.43159580230713 11.19085502624512 11.99020576477051 L 11.19085502624512 11.19085502624512 L 11.3507251739502 11.19085502624512 C 11.75039577484131 11.19085502624512 11.99020576477051 10.87111568450928 11.99020576477051 10.55137538909912 L 11.99020576477051 6.394775390625 L 12.19003582000732 6.394775390625 C 12.52102565765381 6.394775390625 12.78955554962158 6.126245498657227 12.78955554962158 5.795265197753906 L 12.78955554962158 3.796895027160645 C 12.78955554962158 3.465665817260742 12.52102565765381 3.197385787963867 12.19003582000732 3.197385787963867 L 11.99020576477051 3.197385787963867 L 11.99020576477051 1.99836540222168 C 11.99020576477051 0.8792858123779297 9.512225151062012 -4.76837158203125e-06 6.394775390625 -4.76837158203125e-06 M 9.592164993286133 7.194125175476074 L 3.197385787963867 7.194125175476074 C 2.755995750427246 7.194125175476074 2.398045539855957 6.836165428161621 2.398045539855957 6.394775390625 L 2.398045539855957 3.197385787963867 C 2.398045539855957 2.755995750427246 2.755995750427246 2.398045539855957 3.197385787963867 2.398045539855957 L 9.592164993286133 2.398045539855957 C 10.03355598449707 2.398045539855957 10.39151573181152 2.755995750427246 10.39151573181152 3.197385787963867 L 10.39151573181152 6.394775390625 C 10.39151573181152 6.836165428161621 10.03355598449707 7.194125175476074 9.592164993286133 7.194125175476074 M 2.797715187072754 9.991835594177246 C 2.356325149536133 9.991835594177246 1.99836540222168 9.633874893188477 1.99836540222168 9.192485809326172 C 1.99836540222168 8.751094818115234 2.356325149536133 8.393145561218262 2.797715187072754 8.393145561218262 C 3.239105224609375 8.393145561218262 3.597064971923828 8.751094818115234 3.597064971923828 9.192485809326172 C 3.597064971923828 9.633874893188477 3.239105224609375 9.991835594177246 2.797715187072754 9.991835594177246 M 9.991835594177246 9.991835594177246 C 9.550445556640625 9.991835594177246 9.192485809326172 9.633874893188477 9.192485809326172 9.192485809326172 C 9.192485809326172 8.751094818115234 9.550445556640625 8.393145561218262 9.991835594177246 8.393145561218262 C 10.43322563171387 8.393145561218262 10.79118537902832 8.751094818115234 10.79118537902832 9.192485809326172 C 10.79118537902832 9.633874893188477 10.43322563171387 9.991835594177246 9.991835594177246 9.991835594177246 M 6.394775390625 -1.000004768371582 C 8.01579475402832 -1.000004768371582 9.543785095214844 -0.7735748291015625 10.69728565216064 -0.3624248504638672 C 12.59240531921387 0.3130655288696289 12.99020576477051 1.294225692749023 12.99020576477051 1.99836540222168 L 12.99020576477051 2.41228199005127 C 13.46775341033936 2.689301490783691 13.78955554962158 3.206206321716309 13.78955554962158 3.796895027160645 L 13.78955554962158 5.795265197753906 C 13.78955554962158 6.385954856872559 13.46775341033936 6.902859687805176 12.99020576477051 7.179878234863281 L 12.99020576477051 10.55137538909912 C 12.99020576477051 11.16153144836426 12.67298984527588 11.68394660949707 12.19085502624512 11.9663200378418 L 12.19085502624512 11.99020576477051 C 12.19085502624512 12.98236560821533 11.38367557525635 13.78955554962158 10.39151573181152 13.78955554962158 L 9.592164993286133 13.78955554962158 C 8.667829513549805 13.78955554962158 7.904034614562988 13.08892250061035 7.803929328918457 12.19085502624512 L 4.985621452331543 12.19085502624512 C 4.885516166687012 13.08892250061035 4.121722221374512 13.78955554962158 3.197385787963867 13.78955554962158 L 2.398045539855957 13.78955554962158 C 1.405885696411133 13.78955554962158 0.5986957550048828 12.98236560821533 0.5986957550048828 11.99020576477051 L 0.5986957550048828 11.88672924041748 C 0.1169958114624023 11.56352043151855 -0.2006549835205078 11.013916015625 -0.2006549835205078 10.39151573181152 L -0.2006549835205078 7.179880142211914 C -0.6781988143920898 6.90286111831665 -1.000004768371582 6.385954856872559 -1.000004768371582 5.795265197753906 L -1.000004768371582 3.796895027160645 C -1.000004768371582 3.206206321716309 -0.6781988143920898 2.689299583435059 -0.2006549835205078 2.412281036376953 L -0.2006549835205078 1.99836540222168 C -0.2006549835205078 1.294225692749023 0.1971454620361328 0.3130655288696289 2.092265129089355 -0.3624248504638672 C 3.245765686035156 -0.7735748291015625 4.773755073547363 -1.000004768371582 6.394775390625 -1.000004768371582 Z M 9.391515731811523 3.398045539855957 L 3.398045539855957 3.398045539855957 L 3.398045539855957 6.194125175476074 L 9.391515731811523 6.194125175476074 L 9.391515731811523 3.398045539855957 Z"/>
        </g>
      </g>
    </g>
  </g>
</svg>
