<svg xmlns="http://www.w3.org/2000/svg" width="52" height="52" viewBox="0 0 52 52">
  <defs>
    <style>
      .cls-1 {
        fill: #30e8ac;
      }

      .cls-2 {
        fill: none;
      }

      .cls-3 {
        fill: #d7f8ee;
      }
    </style>
  </defs>
  <g id="Group_4866" data-name="Group 4866" transform="translate(-1037 -165)">
    <rect id="Rectangle_84" data-name="Rectangle 84" class="cls-1" width="52" height="52" rx="10" transform="translate(1037 165)"/>
    <g id="Group_4824" data-name="Group 4824">
      <rect id="Rectangle_92" data-name="Rectangle 92" class="cls-2" width="34" height="34" transform="translate(1046 174)"/>
      <path id="Exclusion_1" data-name="Exclusion 1" class="cls-3" d="M19.014,31.688H12.675c-5.967,0-8.962,0-10.819-1.921S0,24.748,0,18.576v-2.41c0-3.62,0-5.438.824-6.942s2.329-2.438,5.33-4.3L9.324,2.957C12.494.988,14.086,0,15.845,0s3.35.988,6.521,2.957l3.169,1.966c3,1.863,4.508,2.8,5.331,4.3s.824,3.321.824,6.942v2.41c0,6.173,0,9.272-1.856,11.191S24.981,31.688,19.014,31.688Zm1.022-4.108a.746.746,0,0,0,0,1.492h4.256a.748.748,0,0,0,.747-.747V20.664a.748.748,0,0,0-.747-.747H15.82a.747.747,0,1,0,0,1.493h7.727V27.58ZM9.478,28.04h0l1.119.914a.514.514,0,1,0,.65-.8L9.478,26.712V23.657h2.458a.743.743,0,0,0,.736-.631l.178.048.642,5.022a1.118,1.118,0,0,0,1.108.976,1.047,1.047,0,0,0,.143-.009,1.117,1.117,0,0,0,.968-1.25l-.738-5.774a1.116,1.116,0,0,0-.831-.943l-2.389-.617.052-.752a1.251,1.251,0,0,1-.914-.735L9.436,15.562l2.221,2.828a.929.929,0,0,0,.734.357l.074,0,1.921-.153a.459.459,0,0,0-.021.142.516.516,0,0,0,.515.515h4.642a.513.513,0,0,0,.5-.38l1.306-4.857a.516.516,0,0,0-.363-.631.51.51,0,0,0-.134-.018.518.518,0,0,0-.5.383l-1.2,4.475H16.718a.921.921,0,0,0,.316-.774.935.935,0,0,0-.926-.859.75.75,0,0,0-.077,0l-3.215.256L10.9,14.411l1.218.908.039-.551a1.39,1.39,0,0,0-1.288-1.485l-2.36-.168c-.033,0-.066,0-.1,0a1.391,1.391,0,0,0-1.391,1.4L7.073,21.4a1.188,1.188,0,0,0,.291.767H6.412l-1-7.916a.745.745,0,0,0-.737-.652.837.837,0,0,0-.1.006.746.746,0,0,0-.647.835l1.085,8.568a.749.749,0,0,0,.742.652H8.449v3.055L6.676,28.159a.505.505,0,0,0-.186.346.514.514,0,0,0,.837.45l1.122-.915v.517a.515.515,0,1,0,1.029,0V28.04Zm.7-19.973a2.058,2.058,0,1,0,2.058,2.06A2.061,2.061,0,0,0,10.174,8.067Z" transform="translate(1047.155 175.156)"/>
    </g>
  </g>
</svg>
