<svg xmlns="http://www.w3.org/2000/svg" width="35" height="35" viewBox="0 0 35 35"><defs><style>.a,.b{fill:none;}.b{stroke-linecap:round;stroke-linejoin:round;}.c,.d{stroke:none;}.d{fill:#fff;}</style></defs><rect class="a" width="35" height="35" rx="8"/><g transform="translate(-368 -405)"><rect class="a" width="25" height="25" transform="translate(373 410)"/><g transform="translate(0.259 -1)"><g class="b" transform="translate(387.345 418.065)"><path class="c" d="M7.706,12.9H1.792a1.478,1.478,0,0,0,.17-.689v-1.28A4.112,4.112,0,0,0,0,7.409a3.381,3.381,0,0,1,1.017-.156h.42a4.382,4.382,0,0,0,3.672,0H5.53a3.389,3.389,0,0,1,3.384,3.385v1.047A1.21,1.21,0,0,1,7.706,12.9ZM3.273,6.448A3.224,3.224,0,1,1,6.5,3.224,3.227,3.227,0,0,1,3.273,6.448Z"/><path class="d" d="M 7.705665111541748 11.89517498016357 C 7.820885181427002 11.89517498016357 7.914615154266357 11.80144500732422 7.914615154266357 11.68622493743896 L 7.914615154266357 10.63885498046875 C 7.914615154266357 9.323655128479004 6.844944953918457 8.253664970397949 5.530135154724121 8.253664970397949 L 5.316883563995361 8.253664970397949 C 4.665282249450684 8.521334648132324 3.978837013244629 8.656885147094727 3.273104906082153 8.656885147094727 C 2.979496955871582 8.656885147094727 2.68878698348999 8.633238792419434 2.402204990386963 8.586211204528809 C 2.765633344650269 9.296771049499512 2.962125062942505 10.0945463180542 2.962125062942505 10.92656517028809 L 2.962125062942505 11.89517498016357 L 7.705665111541748 11.89517498016357 M 3.273104906082153 5.447935104370117 C 4.499215126037598 5.447935104370117 5.496725082397461 4.450425148010254 5.496725082397461 3.224325180053711 C 5.496725082397461 1.997825145721436 4.499215126037598 0.9999951124191284 3.273104906082153 0.9999951124191284 C 2.04700493812561 0.9999951124191284 1.049494981765747 1.997825145721436 1.049494981765747 3.224325180053711 C 1.049494981765747 4.450425148010254 2.04700493812561 5.447935104370117 3.273104906082153 5.447935104370117 M 7.705665111541748 12.89517498016357 L 1.791754961013794 12.89517498016357 C 1.902974963188171 12.68487548828125 1.962124943733215 12.44709491729736 1.962124943733215 12.20637512207031 L 1.962124943733215 10.92656517028809 C 1.962124943733215 9.484584808349609 1.228624939918518 8.169705390930176 4.954528776579536e-06 7.409265041351318 C 0.3294649422168732 7.305535316467285 0.6715049743652344 7.253664970397949 1.016794919967651 7.253664970397949 L 1.437014937400818 7.253664970397949 C 2.021564960479736 7.521255016326904 2.639204978942871 7.656885147094727 3.273104906082153 7.656885147094727 C 3.909894943237305 7.656885147094727 4.527645111083984 7.521224975585938 5.109204769134521 7.253664970397949 L 5.530135154724121 7.253664970397949 C 7.396345138549805 7.253664970397949 8.914614677429199 8.772254943847656 8.914614677429199 10.63885498046875 L 8.914614677429199 11.68622493743896 C 8.914614677429199 12.35283470153809 8.372275352478027 12.89517498016357 7.705665111541748 12.89517498016357 Z M 3.273104906082153 6.447935104370117 C 1.495604991912842 6.447935104370117 0.04949495568871498 5.001825332641602 0.04949495568871498 3.224325180053711 C 0.04949495568871498 1.446425080299377 1.495604991912842 -4.894104222330498e-06 3.273104906082153 -4.894104222330498e-06 C 5.050614833831787 -4.894104222330498e-06 6.496725082397461 1.446425080299377 6.496725082397461 3.224325180053711 C 6.496725082397461 5.001825332641602 5.050614833831787 6.447935104370117 3.273104906082153 6.447935104370117 Z"/></g><g class="b" transform="translate(374.741 416)"><path class="c" d="M6.89,7.874A3.937,3.937,0,1,0,2.953,3.937,3.937,3.937,0,0,0,6.89,7.874Zm2.756.984H9.132a5.354,5.354,0,0,1-4.484,0H4.134A4.135,4.135,0,0,0,0,12.992v1.279a1.477,1.477,0,0,0,1.476,1.476H12.3a1.477,1.477,0,0,0,1.476-1.476V12.992A4.135,4.135,0,0,0,9.645,8.858Z"/><path class="d" d="M 6.88957405090332 1.000003814697266 C 5.270164489746094 1.000003814697266 3.95267391204834 2.317493438720703 3.95267391204834 3.936903953552246 C 3.95267391204834 5.556313514709473 5.270164489746094 6.87380313873291 6.88957405090332 6.87380313873291 C 8.508983612060547 6.87380313873291 9.826474189758301 5.556313514709473 9.826474189758301 3.936903953552246 C 9.826474189758301 2.317493438720703 8.508983612060547 1.000003814697266 6.88957405090332 1.000003814697266 M 4.133744239807129 9.858034133911133 C 2.405794143676758 9.858034133911133 1.000003814697266 11.26382350921631 1.000003814697266 12.99177360534668 L 1.000003814697266 14.27127361297607 C 1.000003814697266 14.5339241027832 1.21368408203125 14.74760341644287 1.476333618164062 14.74760341644287 L 12.30281448364258 14.74760341644287 C 12.56546401977539 14.74760341644287 12.77914428710938 14.5339241027832 12.77914428710938 14.27127361297607 L 12.77914428710938 12.99177360534668 C 12.77914428710938 11.26382350921631 11.37335395812988 9.858034133911133 9.645403861999512 9.858034133911133 L 9.341095924377441 9.858034133911133 C 8.559853553771973 10.18468284606934 7.736217975616455 10.35014343261719 6.88957405090332 10.35014343261719 C 6.045848846435547 10.35014343261719 5.222533226013184 10.18471145629883 4.438782691955566 9.858034133911133 L 4.133744239807129 9.858034133911133 M 6.88957405090332 3.814697265625e-06 C 9.064094543457031 3.814697265625e-06 10.8264741897583 1.762373924255371 10.8264741897583 3.936903953552246 C 10.8264741897583 6.111423492431641 9.064094543457031 7.873803615570068 6.88957405090332 7.873803615570068 C 4.715054512023926 7.873803615570068 2.95267391204834 6.111423492431641 2.95267391204834 3.936903953552246 C 2.95267391204834 1.762373924255371 4.715054512023926 3.814697265625e-06 6.88957405090332 3.814697265625e-06 Z M 4.133744239807129 8.858034133911133 L 4.647383689880371 8.858034133911133 C 5.333264350891113 9.1717529296875 6.089893817901611 9.350143432617188 6.88957405090332 9.350143432617188 C 7.689254283905029 9.350143432617188 8.448953628540039 9.1717529296875 9.131763458251953 8.858034133911133 L 9.645403861999512 8.858034133911133 C 11.92757415771484 8.858034133911133 13.77914428710938 10.70960426330566 13.77914428710938 12.99177360534668 L 13.77914428710938 14.27127361297607 C 13.77914428710938 15.08633327484131 13.11787414550781 15.74760341644287 12.30281448364258 15.74760341644287 L 1.476333618164062 15.74760341644287 C 0.6612739562988281 15.74760341644287 3.814697265625e-06 15.08633327484131 3.814697265625e-06 14.27127361297607 L 3.814697265625e-06 12.99177360534668 C 3.814697265625e-06 10.70960426330566 1.851573944091797 8.858034133911133 4.133744239807129 8.858034133911133 Z"/></g></g></g></svg>