<svg id="Group_5" data-name="Group 5" xmlns="http://www.w3.org/2000/svg" width="35" height="35" viewBox="0 0 35 35">
  <defs>
    <style>
      .cls-1 {
        fill: none;
      }
    </style>
  </defs>
  <rect id="Rectangle_3" data-name="Rectangle 3" class="cls-1" width="35" height="35" rx="8"/>
  <g id="Group_4" data-name="Group 4" transform="translate(-368 -405)">
    <rect id="Rectangle_4" data-name="Rectangle 4" class="cls-1" width="25" height="25" transform="translate(373 410)"/>
    <g id="Group_3" data-name="Group 3" transform="translate(0.259 -1)">
      <g id="Group_1" data-name="Group 1" transform="translate(387.345 418.065)">
        <path id="Path_3" data-name="Path 3" class="cls-1" d="M7.706,12.9H1.792a1.478,1.478,0,0,0,.17-.689v-1.28A4.112,4.112,0,0,0,0,7.409a3.381,3.381,0,0,1,1.017-.156h.42a4.382,4.382,0,0,0,3.672,0H5.53a3.389,3.389,0,0,1,3.384,3.385v1.047A1.21,1.21,0,0,1,7.706,12.9ZM3.273,6.448A3.224,3.224,0,1,1,6.5,3.224,3.224,3.224,0,0,1,3.273,6.448Z"/>
        <path id="Path_4" data-name="Path 4" d="M7.706,11.9a.209.209,0,0,0,.209-.209V10.639A2.388,2.388,0,0,0,5.53,8.254H5.317A5.387,5.387,0,0,1,2.4,8.586a5.128,5.128,0,0,1,.56,2.34V11.9H7.706M3.273,5.448A2.224,2.224,0,1,0,1.049,3.224,2.226,2.226,0,0,0,3.273,5.448M7.706,12.9H1.792a1.478,1.478,0,0,0,.17-.689v-1.28A4.112,4.112,0,0,0,0,7.409a3.381,3.381,0,0,1,1.017-.156h.42a4.382,4.382,0,0,0,3.672,0H5.53a3.389,3.389,0,0,1,3.384,3.385v1.047A1.21,1.21,0,0,1,7.706,12.9ZM3.273,6.448A3.224,3.224,0,1,1,6.5,3.224,3.227,3.227,0,0,1,3.273,6.448Z"/>
      </g>
      <g id="Group_2" data-name="Group 2" transform="translate(374.741 416)">
        <path id="Path_5" data-name="Path 5" class="cls-1" d="M6.89,7.874A3.937,3.937,0,1,0,2.953,3.937,3.937,3.937,0,0,0,6.89,7.874Zm2.756.984H9.132a5.354,5.354,0,0,1-4.484,0H4.134A4.135,4.135,0,0,0,0,12.991v1.28a1.477,1.477,0,0,0,1.476,1.476H12.3a1.477,1.477,0,0,0,1.476-1.476V12.992a4.135,4.135,0,0,0-4.13-4.134Z"/>
        <path id="Path_6" data-name="Path 6" d="M6.89,1A2.937,2.937,0,1,0,9.826,3.937,2.94,2.94,0,0,0,6.89,1M4.134,9.858A3.137,3.137,0,0,0,1,12.992v1.28a.477.477,0,0,0,.476.476H12.3a.477.477,0,0,0,.476-.476v-1.28A3.137,3.137,0,0,0,9.645,9.858h-.3a6.351,6.351,0,0,1-4.9,0H4.134M6.89,0A3.937,3.937,0,1,1,2.953,3.937,3.937,3.937,0,0,1,6.89,0ZM4.134,8.858h.514a5.354,5.354,0,0,0,4.484,0h.514a4.135,4.135,0,0,1,4.134,4.134v1.28A1.477,1.477,0,0,1,12.3,15.748H1.476A1.477,1.477,0,0,1,0,14.271v-1.28A4.135,4.135,0,0,1,4.134,8.858Z"/>
      </g>
    </g>
  </g>
</svg>
