<svg xmlns="http://www.w3.org/2000/svg" width="18.794" height="18.794" viewBox="0 0 18.794 18.794">
  <path id="ico_delete" d="M8.931,3h5.931M3,5.966H20.794m-1.977,0-.693,10.4a7.224,7.224,0,0,1-.493,2.932,2.966,2.966,0,0,1-1.283,1.2,7.226,7.226,0,0,1-2.958.3H10.4a7.225,7.225,0,0,1-2.958-.3,2.966,2.966,0,0,1-1.283-1.2,7.225,7.225,0,0,1-.493-2.932l-.693-10.4M9.92,10.414v4.943m3.954-4.943v4.943" transform="translate(-2.5 -2.5)" fill="none" stroke="#fd464a" stroke-linecap="round" stroke-linejoin="round" stroke-width="1"/>
</svg>
