<svg xmlns="http://www.w3.org/2000/svg" width="16.079" height="16.077" viewBox="0 0 16.079 16.077">
  <defs>
    <style>
      .cls-1 {
        fill: #30e8ac;
      }
    </style>
  </defs>
  <path id="Path_50" data-name="Path 50" class="cls-1" d="M-22.488,0h11.054A2.512,2.512,0,0,1-8.921,2.512v8.039a2.512,2.512,0,0,1-2.512,2.512h-.5v2.512a.5.5,0,0,1-.31.464.491.491,0,0,1-.192.038.5.5,0,0,1-.356-.147l-2.867-2.868h-6.826A2.512,2.512,0,0,1-25,10.552V2.512A2.512,2.512,0,0,1-22.488,0ZM-24,10.552a1.507,1.507,0,0,0,1.507,1.507h7.034a.5.5,0,0,1,.356.147l2.157,2.158v-1.8a.5.5,0,0,1,.5-.5h1a1.507,1.507,0,0,0,1.507-1.507V2.512A1.507,1.507,0,0,0-11.434,1H-22.488a1.507,1.507,0,0,0-1.071.441A1.507,1.507,0,0,0-24,2.512Zm2.048-3.828a.521.521,0,0,0,.11.164l2.01,2.01a.5.5,0,0,0,.355.147.5.5,0,0,0,.356-.147.5.5,0,0,0,.148-.356.5.5,0,0,0-.148-.356L-20.27,7.034h4.817a1.507,1.507,0,0,1,1.507,1.507.5.5,0,0,0,.5.5.5.5,0,0,0,.5-.5,2.512,2.512,0,0,0-2.512-2.512H-20.27l1.153-1.152a.5.5,0,0,0,.148-.356.5.5,0,0,0-.148-.356.5.5,0,0,0-.356-.148.5.5,0,0,0-.356.148l-2.01,2.01a.521.521,0,0,0-.11.164.508.508,0,0,0,0,.385Z" transform="translate(25)"/>
</svg>
