<svg xmlns="http://www.w3.org/2000/svg" width="15.626" height="15.627" viewBox="0 0 15.626 15.627">
  <defs>
    <style>
      .cls-1 {
        fill: #309afc;
        fill-rule: evenodd;
      }
    </style>
  </defs>
  <path id="layers-intersect-svgrepo-com" class="cls-1" d="M4.167,1.563v2.6h-2.6A1.563,1.563,0,0,0,0,5.73v8.334a1.563,1.563,0,0,0,1.563,1.563H9.9a1.563,1.563,0,0,0,1.563-1.563v-2.6h2.6A1.563,1.563,0,0,0,15.626,9.9V1.563A1.563,1.563,0,0,0,14.063,0H5.73A1.563,1.563,0,0,0,4.167,1.563ZM5.73,1.042a.521.521,0,0,0-.521.521v2.6H9.9A1.563,1.563,0,0,1,11.459,5.73v4.688h2.6A.521.521,0,0,0,14.58,9.9V1.563a.521.521,0,0,0-.521-.521Zm0,10.417A1.563,1.563,0,0,1,4.167,9.9V5.209h-2.6a.521.521,0,0,0-.521.521v8.334a.521.521,0,0,0,.521.521H9.9a.521.521,0,0,0,.521-.521v-2.6Z" transform="translate(0)"/>
</svg>
