<svg xmlns="http://www.w3.org/2000/svg" width="18.268" height="18.268" viewBox="0 0 18.268 18.268">
  <path id="icon_clock_blue" d="M4.488,12.978A8.956,8.956,0,0,1,5.721,8.387,9.126,9.126,0,0,1,9.055,5.053a9.117,9.117,0,0,1,8.12-.5A9.216,9.216,0,0,1,20.087,6.5a8.944,8.944,0,0,1,1.947,2.92,9.071,9.071,0,0,1-4.859,11.957,9.1,9.1,0,0,1-7.106,0A8.989,8.989,0,0,1,5.2,16.523,8.791,8.791,0,0,1,4.488,12.978Zm2.012,0a6.894,6.894,0,0,0,2.1,5.013,6.851,6.851,0,0,0,5.029,2.1,6.9,6.9,0,0,0,3.561-.957,7.2,7.2,0,0,0,2.6-2.6,7.066,7.066,0,0,0,0-7.13,7.157,7.157,0,0,0-2.6-2.6,7.1,7.1,0,0,0-7.122,0,7.3,7.3,0,0,0-2.612,2.6A6.869,6.869,0,0,0,6.5,12.978Zm6.425,0v-5.4A.665.665,0,0,1,13.6,6.9a.682.682,0,0,1,.479.195.632.632,0,0,1,.2.479v2.863l.608-1.055a.657.657,0,0,1,.422-.308.693.693,0,0,1,.836.479.6.6,0,0,1-.065.511l-1.858,3.172a.605.605,0,0,1-.616.43.655.655,0,0,1-.479-.195A.686.686,0,0,1,12.924,12.978Z" transform="translate(-4.488 -3.828)" fill="#309afc"/>
</svg>
