<svg xmlns="http://www.w3.org/2000/svg" width="11.899" height="15.618" viewBox="0 0 11.899 15.618">
  <g id="ico_employee_id" transform="translate(-60.952)">
    <path id="Path_10515" data-name="Path 10515" d="M176.868,341.564h3.743c.495,0,.719-.72.433-1.229a2.412,2.412,0,0,0-1.144-1.065,2.021,2.021,0,0,1-2.32,0,2.413,2.413,0,0,0-1.145,1.065C176.149,340.844,176.373,341.564,176.868,341.564Z" transform="translate(-111.838 -328.921)" fill="#adadad"/>
    <path id="Path_10516" data-name="Path 10516" d="M207.356,226.554a1.53,1.53,0,0,0,1.53-1.53v-.367a1.53,1.53,0,1,0-3.061,0v.367A1.53,1.53,0,0,0,207.356,226.554Z" transform="translate(-140.455 -216.321)" fill="#adadad"/>
    <path id="Path_10517" data-name="Path 10517" d="M71.446,56.889H69.133v.5A1.737,1.737,0,0,1,67.4,59.12h-.992a1.737,1.737,0,0,1-1.735-1.735v-.5H62.357a1.405,1.405,0,0,0-1.405,1.405V69.366a1.405,1.405,0,0,0,1.405,1.405h9.089a1.405,1.405,0,0,0,1.405-1.405V58.294A1.405,1.405,0,0,0,71.446,56.889Zm-.082,12.4H62.439V59.74h8.924Z" transform="translate(0 -55.154)" fill="#adadad"/>
    <path id="Path_10518" data-name="Path 10518" d="M200.35,3.471h.992a1.241,1.241,0,0,0,1.24-1.24V1.24A1.241,1.241,0,0,0,201.342,0h-.992a1.241,1.241,0,0,0-1.24,1.24v.992A1.241,1.241,0,0,0,200.35,3.471ZM200.1,1.24a.248.248,0,0,1,.248-.248h.992a.248.248,0,0,1,.248.248v.5a.248.248,0,0,1-.248.248h-.992a.248.248,0,0,1-.248-.248Z" transform="translate(-133.945)" fill="#adadad"/>
  </g>
</svg>
