<svg xmlns="http://www.w3.org/2000/svg" width="21.5" height="21.5" viewBox="0 0 21.5 21.5">
  <defs>
    <style>
      .cls-1, .cls-2, .cls-3 {
        fill: none;
        stroke: #575757;
        stroke-linecap: round;
        stroke-linejoin: round;
      }

      .cls-1, .cls-2 {
        stroke-width: 1.5px;
      }

      .cls-2 {
        stroke-miterlimit: 10;
      }

      .cls-3 {
        stroke-width: 2px;
      }
    </style>
  </defs>
  <g id="ico_change_pw" transform="translate(-1.25 -1.25)">
    <path id="Path_11170" data-name="Path 11170" class="cls-1" d="M9,22h6c5,0,7-2,7-7V9c0-5-2-7-7-7H9C4,2,2,4,2,9v6C2,20,4,22,9,22Z"/>
    <path id="Path_11171" data-name="Path 11171" class="cls-2" d="M16.28,13.61a4.147,4.147,0,0,1-4.18,1.03L9.51,17.22a1.054,1.054,0,0,1-.82.27l-1.2-.16a1.022,1.022,0,0,1-.82-.82l-.16-1.2a1.119,1.119,0,0,1,.27-.82l2.58-2.58a4.162,4.162,0,1,1,6.92,1.7Z"/>
    <path id="Path_11172" data-name="Path 11172" class="cls-2" d="M10.45,16.28l-.85-.86"/>
    <path id="Path_11173" data-name="Path 11173" class="cls-3" d="M13.394,10.7H13.4"/>
  </g>
</svg>
