<svg xmlns="http://www.w3.org/2000/svg" width="18.189" height="18.05" viewBox="0 0 18.189 18.05">
  <path id="ico_edit" d="M9.626,3.676H6.067a6.315,6.315,0,0,0-2.679.277A2.542,2.542,0,0,0,2.277,5.064,6.315,6.315,0,0,0,2,7.744v7.118a6.315,6.315,0,0,0,.277,2.679,2.542,2.542,0,0,0,1.111,1.111,6.315,6.315,0,0,0,2.679.277h7.118a6.315,6.315,0,0,0,2.679-.277,2.542,2.542,0,0,0,1.111-1.111,6.315,6.315,0,0,0,.277-2.679V11.3M7.084,13.845H8.5A3.63,3.63,0,0,0,9.32,13.8a1.7,1.7,0,0,0,.49-.2,3.627,3.627,0,0,0,.611-.544l8.1-8.1a1.8,1.8,0,0,0-2.542-2.542l-8.1,8.1a3.624,3.624,0,0,0-.544.611,1.694,1.694,0,0,0-.2.49,3.625,3.625,0,0,0-.047.817Z" transform="translate(-1.5 -1.379)" fill="none" stroke="#1e85f1" stroke-linecap="round" stroke-linejoin="round" stroke-width="1"/>
</svg>
