<svg xmlns="http://www.w3.org/2000/svg" width="536" height="269" viewBox="0 0 536 269">
  <g id="img_403" transform="translate(-123.542 -6.364)">
    <g id="Background_Complete" data-name="Background Complete" transform="translate(123.541 19.344)">
      <g id="Group_5717" data-name="Group 5717">
        <g id="Group_5674" data-name="Group 5674" transform="translate(486.443 140.819)">
          <g id="Group_5673" data-name="Group 5673">
            <g id="Group_5672" data-name="Group 5672">
              <g id="Group_5671" data-name="Group 5671">
                <path id="Path_11613" data-name="Path 11613" d="M697.649,239.945a1.729,1.729,0,0,1-.014-.239c0-.173-.008-.4-.015-.679-.008-.616-.019-1.487-.032-2.605-.018-2.281-.044-5.573-.075-9.727l.136.137-49.194.086c.1-.1-.225.221.22-.222v3.391q0,1.686,0,3.346,0,3.317,0,6.512l-.217-.217,35.075.1,10.341.062,2.794.029.73.014a2.256,2.256,0,0,1,.257.014,1.26,1.26,0,0,1-.229.015l-.7.014L693.97,240l-10.291.062-35.227.1h-.218v-.219q0-3.19,0-6.512,0-1.659,0-3.346V226.7c.445-.445.126-.124.226-.223l49.194.086h.137v.136c-.032,4.188-.057,7.507-.075,9.808q-.021,1.659-.032,2.576c-.006.272-.011.487-.015.654A1.128,1.128,0,0,1,697.649,239.945Z" transform="translate(-648.229 -226.453)" fill="#e0e0e0"/>
              </g>
            </g>
          </g>
        </g>
        <g id="Group_5680" data-name="Group 5680" transform="translate(231.273)">
          <g id="Group_5676" data-name="Group 5676">
            <g id="Group_5675" data-name="Group 5675">
              <rect id="Rectangle_1857" data-name="Rectangle 1857" width="49.197" height="13.25" fill="#ebebeb"/>
            </g>
          </g>
          <g id="Group_5679" data-name="Group 5679" transform="translate(20.363 13.346)">
            <g id="Group_5678" data-name="Group 5678">
              <g id="Group_5677" data-name="Group 5677">
                <path id="Path_11614" data-name="Path 11614" d="M445.316,64.278a1.979,1.979,0,0,1-.014-.239c0-.173-.008-.4-.014-.678q-.012-.926-.033-2.606c-.018-2.281-.043-5.573-.075-9.726l.136.136-49.193.086c.1-.1-.225.221.219-.222V54.42q0,1.685,0,3.345,0,3.317,0,6.513l-.218-.218,35.075.1,10.341.062,2.794.029.729.014a1.9,1.9,0,0,1,.257.015,1.319,1.319,0,0,1-.229.014l-.7.014-2.746.029-10.291.062-35.227.1H395.9v-.218q0-3.191,0-6.513,0-1.659,0-3.345V51.029c.445-.445.125-.124.226-.223l49.193.086h.138v.137c-.032,4.187-.058,7.507-.075,9.807q-.022,1.659-.033,2.576c-.006.272-.01.487-.015.654A1.051,1.051,0,0,1,445.316,64.278Z" transform="translate(-395.897 -50.785)" fill="#e0e0e0"/>
              </g>
            </g>
          </g>
        </g>
        <g id="Group_5684" data-name="Group 5684" transform="translate(33.965 187.855)">
          <g id="Group_5683" data-name="Group 5683">
            <g id="Group_5682" data-name="Group 5682">
              <g id="Group_5681" data-name="Group 5681">
                <path id="Path_11615" data-name="Path 11615" d="M212.7,303.836a1.928,1.928,0,0,1-.014-.239c0-.174-.008-.4-.014-.679-.008-.616-.019-1.487-.033-2.605-.018-2.281-.043-5.574-.075-9.727l.136.136-49.193.087c.1-.1-.225.221.22-.222v3.391q0,1.686,0,3.345,0,3.318,0,6.513l-.218-.217,35.075.1,10.341.062,2.794.028.729.015a2.015,2.015,0,0,1,.257.014,1.245,1.245,0,0,1-.229.015l-.7.014-2.747.028-10.291.062-35.227.1h-.217v-.218q0-3.19,0-6.513,0-1.658,0-3.345v-3.391c.445-.446.125-.124.226-.223l49.193.086h.138v.136c-.032,4.188-.058,7.507-.075,9.808-.015,1.106-.026,1.966-.033,2.575-.006.273-.01.488-.015.655A1.039,1.039,0,0,1,212.7,303.836Z" transform="translate(-163.276 -290.344)" fill="#e0e0e0"/>
              </g>
            </g>
          </g>
        </g>
        <g id="Group_5688" data-name="Group 5688" transform="translate(64.04 194.393)">
          <g id="Group_5687" data-name="Group 5687">
            <g id="Group_5686" data-name="Group 5686">
              <g id="Group_5685" data-name="Group 5685">
                <path id="Path_11616" data-name="Path 11616" d="M223.283,319.331a1.534,1.534,0,0,1-.018-.252c-.005-.188-.011-.42-.019-.7q-.015-.974-.042-2.663c-.022-2.322-.053-5.6-.091-9.631l.169.169-24.6.054c-.2.2.269-.271.221-.221v1.742q0,.868,0,1.725,0,1.714,0,3.378c0,2.216-.007,4.358-.01,6.4l-.209-.209,17.628.1,5.106.057,1.374.026a4.089,4.089,0,0,1,.492.025,2.68,2.68,0,0,1-.443.026l-1.331.026-5.059.056-17.766.1h-.208v-.209c0-2.045-.007-4.187-.01-6.4q0-1.663,0-3.378,0-.856,0-1.725v-1.742c-.049.047.421-.423.224-.224l24.6.054h.17l0,.168c-.038,4.07-.068,7.388-.09,9.735-.018,1.108-.032,1.985-.043,2.625-.008.272-.014.493-.018.673A.886.886,0,0,1,223.283,319.331Z" transform="translate(-198.459 -305.81)" fill="#e0e0e0"/>
              </g>
            </g>
          </g>
        </g>
        <g id="Group_5692" data-name="Group 5692" transform="translate(468.3 23.699)">
          <g id="Group_5691" data-name="Group 5691">
            <g id="Group_5690" data-name="Group 5690">
              <g id="Group_5689" data-name="Group 5689">
                <path id="Path_11617" data-name="Path 11617" d="M676.423,76.388a1.927,1.927,0,0,1-.014-.238c0-.173-.008-.4-.014-.679-.008-.616-.019-1.487-.033-2.605-.018-2.281-.043-5.573-.075-9.727l.136.137-49.193.086c.1-.1-.225.221.219-.222v3.391q0,1.686,0,3.346,0,3.317,0,6.512l-.218-.217,35.075.1,10.341.062,2.794.029.729.014a2.017,2.017,0,0,1,.257.014,1.246,1.246,0,0,1-.229.015l-.7.014-2.747.029-10.291.062-35.227.1h-.217v-.219q0-3.19,0-6.512,0-1.659,0-3.346V63.14c.445-.445.125-.124.226-.223L676.423,63h.138v.136c-.032,4.188-.058,7.507-.075,9.808q-.022,1.659-.033,2.576c-.006.272-.01.487-.014.654A1.036,1.036,0,0,1,676.423,76.388Z" transform="translate(-627.004 -62.896)" fill="#e0e0e0"/>
              </g>
            </g>
          </g>
        </g>
        <g id="Group_5696" data-name="Group 5696" transform="translate(498.374 38.428)">
          <g id="Group_5695" data-name="Group 5695">
            <g id="Group_5694" data-name="Group 5694">
              <g id="Group_5693" data-name="Group 5693">
                <path id="Path_11618" data-name="Path 11618" d="M687.011,91.884a1.536,1.536,0,0,1-.018-.253c-.005-.188-.011-.419-.019-.7-.01-.649-.025-1.539-.043-2.662-.021-2.323-.052-5.606-.09-9.631l.168.168-24.6.054c-.2.2.268-.271.221-.221v1.743q0,.868,0,1.725,0,1.713,0,3.377c0,2.216-.007,4.358-.01,6.4l-.209-.208,17.628.1,5.106.056,1.374.026a3.957,3.957,0,0,1,.492.026,2.933,2.933,0,0,1-.443.025l-1.331.026-5.059.057-17.766.1-.208,0v-.21c0-2.045-.007-4.187-.01-6.4q0-1.663,0-3.377,0-.858,0-1.725V78.636c-.05.047.421-.423.224-.224l24.6.054h.171l0,.168c-.038,4.069-.068,7.387-.09,9.735q-.027,1.662-.043,2.624c-.008.272-.014.493-.019.673A.943.943,0,0,1,687.011,91.884Z" transform="translate(-662.187 -78.362)" fill="#e0e0e0"/>
              </g>
            </g>
          </g>
        </g>
        <g id="Group_5702" data-name="Group 5702" transform="translate(0 84.048)">
          <g id="Group_5698" data-name="Group 5698">
            <g id="Group_5697" data-name="Group 5697">
              <rect id="Rectangle_1858" data-name="Rectangle 1858" width="49.197" height="13.25" fill="#ebebeb"/>
            </g>
          </g>
          <g id="Group_5701" data-name="Group 5701" transform="translate(20.363 13.346)">
            <g id="Group_5700" data-name="Group 5700">
              <g id="Group_5699" data-name="Group 5699">
                <path id="Path_11619" data-name="Path 11619" d="M196.783,179.423a1.593,1.593,0,0,1-.014-.238c0-.174-.009-.4-.015-.679q-.012-.924-.033-2.606c-.017-2.281-.043-5.573-.075-9.726l.136.136-49.193.086c.1-.1-.225.222.22-.222v3.392q0,1.686,0,3.345,0,3.318,0,6.513l-.218-.217,35.075.1,10.341.062,2.794.028.73.015a2.052,2.052,0,0,1,.257.014,1.24,1.24,0,0,1-.23.014l-.7.015-2.747.028-10.291.062-35.227.1h-.217v-.218q0-3.19,0-6.513,0-1.659,0-3.345v-3.392c.445-.445.125-.123.226-.222l49.193.086h.138v.136c-.032,4.188-.058,7.507-.075,9.807-.015,1.106-.026,1.967-.033,2.576-.006.272-.01.488-.015.655A1.2,1.2,0,0,1,196.783,179.423Z" transform="translate(-147.363 -165.93)" fill="#e0e0e0"/>
              </g>
            </g>
          </g>
        </g>
        <g id="Group_5708" data-name="Group 5708" transform="translate(335.43 173.189)">
          <g id="Group_5704" data-name="Group 5704">
            <g id="Group_5703" data-name="Group 5703">
              <rect id="Rectangle_1859" data-name="Rectangle 1859" width="49.197" height="13.25" fill="#ebebeb"/>
            </g>
          </g>
          <g id="Group_5707" data-name="Group 5707" transform="translate(20.363 13.346)">
            <g id="Group_5706" data-name="Group 5706">
              <g id="Group_5705" data-name="Group 5705">
                <path id="Path_11620" data-name="Path 11620" d="M557.247,301.545a1.954,1.954,0,0,1-.014-.239c0-.173-.008-.4-.014-.678q-.012-.924-.033-2.606c-.018-2.281-.043-5.573-.075-9.726l.136.136-49.193.086c.1-.1-.225.222.22-.222v3.392q0,1.685,0,3.345,0,3.318,0,6.513l-.218-.218,35.075.1,10.341.062,2.794.028.729.014a1.886,1.886,0,0,1,.257.015,1.325,1.325,0,0,1-.229.014l-.7.015-2.747.028-10.291.062-35.227.1h-.217v-.218q0-3.19,0-6.513,0-1.659,0-3.345V288.3c.445-.445.125-.123.226-.223l49.193.086h.138v.136c-.033,4.188-.058,7.507-.075,9.807q-.022,1.659-.033,2.576c-.006.272-.01.487-.015.654A1.056,1.056,0,0,1,557.247,301.545Z" transform="translate(-507.828 -288.052)" fill="#e0e0e0"/>
              </g>
            </g>
          </g>
        </g>
        <g id="Group_5712" data-name="Group 5712" transform="translate(92.484 229.33)">
          <g id="Group_5711" data-name="Group 5711">
            <g id="Group_5710" data-name="Group 5710">
              <g id="Group_5709" data-name="Group 5709">
                <path id="Path_11621" data-name="Path 11621" d="M272.717,360.174a1.781,1.781,0,0,1-.014-.239c0-.173-.009-.4-.015-.678q-.012-.926-.032-2.606c-.018-2.281-.044-5.573-.075-9.726l.136.136-49.194.086c.1-.1-.225.221.22-.222v3.392q0,1.685,0,3.345,0,3.317,0,6.513l-.217-.218,35.075.1,10.341.062,2.794.029.73.014a1.9,1.9,0,0,1,.257.015,1.335,1.335,0,0,1-.229.014l-.7.014-2.746.029-10.291.062-35.227.1H223.3v-.218q0-3.191,0-6.513v-3.345q0-.844,0-1.693v-1.7c.445-.445.126-.124.226-.223l49.194.086h.137v.137c-.032,4.187-.057,7.507-.075,9.807q-.021,1.659-.033,2.576c-.006.272-.011.487-.015.654A1.143,1.143,0,0,1,272.717,360.174Z" transform="translate(-223.297 -346.681)" fill="#e0e0e0"/>
              </g>
            </g>
          </g>
        </g>
        <g id="Group_5716" data-name="Group 5716" transform="translate(123.507 32.556)">
          <g id="Group_5715" data-name="Group 5715" transform="translate(0 0)">
            <g id="Group_5714" data-name="Group 5714">
              <g id="Group_5713" data-name="Group 5713">
                <path id="Path_11622" data-name="Path 11622" d="M306.178,86.751a1.883,1.883,0,0,1-.013-.239c0-.173-.009-.4-.015-.678q-.012-.926-.033-2.606c-.018-2.281-.043-5.573-.075-9.726l.136.136-49.193.086c.1-.1-.225.221.22-.222v1.7q0,.849,0,1.692,0,1.685,0,3.345,0,3.317,0,6.513l-.218-.218,35.075.1,10.341.062,2.794.029.729.014a1.9,1.9,0,0,1,.257.015,1.32,1.32,0,0,1-.229.014l-.7.014-2.747.029-10.291.062-35.227.1h-.217v-.218q0-3.191,0-6.513V73.5c.445-.445.125-.124.226-.223l49.193.086h.138V73.5c-.032,4.187-.058,7.507-.075,9.807q-.022,1.659-.033,2.576c-.006.272-.01.487-.015.654A1.056,1.056,0,0,1,306.178,86.751Z" transform="translate(-256.759 -73.258)" fill="#e0e0e0"/>
              </g>
            </g>
          </g>
        </g>
      </g>
    </g>
    <g id="Fence" transform="translate(410.299 103.808)">
      <g id="Group_5831" data-name="Group 5831">
        <g id="Group_5826" data-name="Group 5826" transform="translate(0.375)">
          <g id="Group_5807" data-name="Group 5807" transform="translate(17.411)">
            <g id="Group_5805" data-name="Group 5805" transform="translate(3.742 12.13)">
              <g id="Group_5804" data-name="Group 5804">
                <rect id="Rectangle_1860" data-name="Rectangle 1860" width="7.411" height="136.228" fill="#e0e0e0"/>
              </g>
            </g>
            <g id="Group_5806" data-name="Group 5806">
              <path id="Path_11647" data-name="Path 11647" d="M450.371,304.608a7.468,7.468,0,1,1-7.468-7.468A7.469,7.469,0,0,1,450.371,304.608Z" transform="translate(-435.434 -297.14)" fill="#e8505b"/>
            </g>
          </g>
          <g id="Group_5811" data-name="Group 5811" transform="translate(164.674)">
            <g id="Group_5809" data-name="Group 5809" transform="translate(3.743 12.13)">
              <g id="Group_5808" data-name="Group 5808">
                <rect id="Rectangle_1861" data-name="Rectangle 1861" width="7.411" height="136.228" fill="#e0e0e0"/>
              </g>
            </g>
            <g id="Group_5810" data-name="Group 5810">
              <path id="Path_11648" data-name="Path 11648" d="M622.647,304.608a7.469,7.469,0,1,1-7.469-7.468A7.469,7.469,0,0,1,622.647,304.608Z" transform="translate(-607.709 -297.14)" fill="#e8505b"/>
            </g>
          </g>
          <g id="Group_5818" data-name="Group 5818" transform="translate(0 25.276)">
            <g id="Group_5812" data-name="Group 5812">
              <rect id="Rectangle_1862" data-name="Rectangle 1862" width="189.858" height="33.97" fill="#e8505b"/>
            </g>
            <g id="Group_5813" data-name="Group 5813">
              <path id="Path_11649" data-name="Path 11649" d="M436.549,326.709l-.33.562-19.505,33.407h-1.648v-33.97Z" transform="translate(-415.065 -326.709)" fill="#f5f5f5"/>
            </g>
            <g id="Group_5814" data-name="Group 5814" transform="translate(23.674)">
              <path id="Path_11650" data-name="Path 11650" d="M488.558,326.709,468.7,360.679H442.761l7.891-13.495,11.963-20.475Z" transform="translate(-442.761 -326.709)" fill="#f5f5f5"/>
            </g>
            <g id="Group_5815" data-name="Group 5815" transform="translate(71.643)">
              <path id="Path_11651" data-name="Path 11651" d="M544.674,326.709l-19.855,33.97H498.877l19.854-33.97Z" transform="translate(-498.877 -326.709)" fill="#f5f5f5"/>
            </g>
            <g id="Group_5816" data-name="Group 5816" transform="translate(119.608 0.007)">
              <path id="Path_11652" data-name="Path 11652" d="M600.787,326.718,580.928,360.68H554.989l19.86-33.963Z" transform="translate(-554.989 -326.718)" fill="#f5f5f5"/>
            </g>
            <g id="Group_5817" data-name="Group 5817" transform="translate(167.577 0.007)">
              <path id="Path_11653" data-name="Path 11653" d="M633.388,326.718V360.68H611.106l19.859-33.963Z" transform="translate(-611.106 -326.718)" fill="#f5f5f5"/>
            </g>
          </g>
          <g id="Group_5825" data-name="Group 5825" transform="translate(0 77.755)">
            <g id="Group_5819" data-name="Group 5819">
              <rect id="Rectangle_1863" data-name="Rectangle 1863" width="189.858" height="33.97" fill="#e8505b"/>
            </g>
            <g id="Group_5820" data-name="Group 5820">
              <path id="Path_11654" data-name="Path 11654" d="M436.549,388.1l-.33.562-19.505,33.407h-1.648V388.1Z" transform="translate(-415.065 -388.102)" fill="#f5f5f5"/>
            </g>
            <g id="Group_5821" data-name="Group 5821" transform="translate(23.674)">
              <path id="Path_11655" data-name="Path 11655" d="M488.558,388.1,468.7,422.072H442.761l7.891-13.495L462.615,388.1Z" transform="translate(-442.761 -388.102)" fill="#f5f5f5"/>
            </g>
            <g id="Group_5822" data-name="Group 5822" transform="translate(71.643)">
              <path id="Path_11656" data-name="Path 11656" d="M544.674,388.1l-19.855,33.97H498.877l19.854-33.97Z" transform="translate(-498.877 -388.102)" fill="#f5f5f5"/>
            </g>
            <g id="Group_5823" data-name="Group 5823" transform="translate(119.608 0.007)">
              <path id="Path_11657" data-name="Path 11657" d="M600.787,388.11l-19.859,33.963H554.989l19.86-33.963Z" transform="translate(-554.989 -388.11)" fill="#f5f5f5"/>
            </g>
            <g id="Group_5824" data-name="Group 5824" transform="translate(167.577 0.007)">
              <path id="Path_11658" data-name="Path 11658" d="M633.388,388.11v33.963H611.106l19.859-33.963Z" transform="translate(-611.106 -388.11)" fill="#f5f5f5"/>
            </g>
          </g>
        </g>
        <g id="Group_5828" data-name="Group 5828" transform="translate(0 24.901)">
          <g id="Group_5827" data-name="Group 5827">
            <path id="Path_11659" data-name="Path 11659" d="M604.861,360.615s-.013-.2-.02-.586c0-.4-.011-.964-.021-1.7-.01-1.513-.026-3.72-.047-6.6-.026-5.783-.062-14.248-.11-25.083l.2.2-189.848.178H415l.376-.375c0,11.637,0,23.065-.005,33.969l-.371-.37,135.162.163,40.079.108,10.827.05,2.817.025c.636.008.974.025.974.025s-.305.016-.926.024l-2.77.025-10.745.05-39.993.108L415,360.986h-.371v-.372c0-10.9,0-22.333,0-33.969v-.375h.386l189.848.178h.2v.2c-.047,10.885-.085,19.39-.11,25.2-.021,2.862-.037,5.055-.047,6.557-.009.721-.015,1.271-.021,1.665C604.874,360.437,604.861,360.615,604.861,360.615Z" transform="translate(-414.626 -326.27)" fill="#263238"/>
          </g>
        </g>
        <g id="Group_5830" data-name="Group 5830" transform="translate(0 77.38)">
          <g id="Group_5829" data-name="Group 5829">
            <path id="Path_11660" data-name="Path 11660" d="M604.861,422.008s-.013-.2-.02-.586c0-.4-.011-.963-.021-1.7-.01-1.513-.026-3.721-.047-6.6-.026-5.783-.062-14.248-.11-25.083l.2.2-189.848.178H415l.376-.375c0,11.637,0,23.065-.005,33.969l-.371-.371,135.162.164,40.079.108,10.827.05,2.817.024c.636.009.974.025.974.025s-.305.017-.926.025l-2.77.025-10.745.05-39.993.108L415,422.379h-.371v-.372c0-10.9,0-22.333,0-33.969v-.375h.386l189.848.178h.2v.2c-.047,10.884-.085,19.389-.11,25.2-.021,2.862-.037,5.055-.047,6.558-.009.721-.015,1.271-.021,1.664C604.874,421.83,604.861,422.008,604.861,422.008Z" transform="translate(-414.626 -387.663)" fill="#263238"/>
          </g>
        </g>
      </g>
    </g>
    <g id="Floor" transform="translate(153.89 251.944)">
      <g id="Group_5833" data-name="Group 5833">
        <g id="Group_5832" data-name="Group 5832">
          <path id="Path_11661" data-name="Path 11661" d="M648.945,470.659c0,.123-109.677.222-244.938.222-135.309,0-244.962-.1-244.962-.222s109.653-.222,244.962-.222C539.268,470.437,648.945,470.536,648.945,470.659Z" transform="translate(-159.045 -470.437)" fill="#263238"/>
        </g>
      </g>
    </g>
    <g id="Sign" transform="translate(227.339 6.364)">
      <g id="Group_5845" data-name="Group 5845" transform="translate(0)">
        <g id="Group_5837" data-name="Group 5837" transform="translate(55.635 61.181)">
          <g id="Group_5834" data-name="Group 5834" transform="translate(0.223 0.223)">
            <rect id="Rectangle_1864" data-name="Rectangle 1864" width="7.782" height="207.54" fill="#e0e0e0"/>
          </g>
          <g id="Group_5836" data-name="Group 5836">
            <g id="Group_5835" data-name="Group 5835">
              <path id="Path_11662" data-name="Path 11662" d="M307,435.408s-.011-.37-.016-1.079-.009-1.763-.015-3.136c-.008-2.759-.018-6.815-.032-12.042-.016-10.455-.039-25.585-.068-44.322-.023-37.446-.056-89.3-.091-146.961l.222.222h-7.782l.222-.222c-.079,100.007-.147,184.037-.166,207.54l-.056-.056,5.879.033c1.28.01,1.9.024,1.9.024s-.595.014-1.869.024l-5.913.032h-.056v-.056c-.019-23.5-.086-107.533-.167-207.54v-.223h8.228v.223c-.036,57.729-.068,109.639-.091,147.127-.029,18.714-.052,33.826-.068,44.269-.014,5.2-.025,9.242-.032,11.99-.007,1.361-.013,2.4-.016,3.107S307,435.408,307,435.408Z" transform="translate(-298.995 -227.645)" fill="#263238"/>
            </g>
          </g>
        </g>
        <g id="Group_5844" data-name="Group 5844" transform="translate(0)">
          <g id="Group_5840" data-name="Group 5840">
            <g id="Group_5839" data-name="Group 5839">
              <g id="Group_5838" data-name="Group 5838">
                <circle id="Ellipse_1338" data-name="Ellipse 1338" cx="45.252" cy="45.252" r="45.252" transform="translate(0 36.825) rotate(-24.009)" fill="#e8505b"/>
              </g>
            </g>
          </g>
          <g id="Group_5842" data-name="Group 5842" transform="translate(18.627 19.024)">
            <g id="Group_5841" data-name="Group 5841">
              <path id="Path_11663" data-name="Path 11663" d="M337.554,176.121a4.261,4.261,0,0,1-.074-.659c-.033-.471-.078-1.111-.136-1.932q-.041-.642-.091-1.422c-.057-.521-.171-1.085-.264-1.7a29.636,29.636,0,0,0-.857-4.2,38.873,38.873,0,0,0-4.524-10.78A40.406,40.406,0,0,0,283.072,138.2a42.083,42.083,0,0,0-5.264,2.317c-.852.462-1.669,1-2.512,1.5a20.62,20.62,0,0,0-2.435,1.679,36.9,36.9,0,0,0-8.529,8.57,39.071,39.071,0,0,0-5.766,11.115,40,40,0,0,0,0,25.46,39.1,39.1,0,0,0,5.767,11.119,36.945,36.945,0,0,0,8.531,8.573,20.511,20.511,0,0,0,2.435,1.679c.844.5,1.661,1.04,2.513,1.5a42.087,42.087,0,0,0,5.265,2.317,40.508,40.508,0,0,0,48.539-17.23,38.868,38.868,0,0,0,4.522-10.779,29.635,29.635,0,0,0,.857-4.2c.094-.614.207-1.178.264-1.7q.05-.781.091-1.422c.058-.821.1-1.461.136-1.932a4.237,4.237,0,0,1,.074-.658,4.1,4.1,0,0,1,.007.66c-.015.473-.034,1.116-.059,1.94q-.024.645-.054,1.431c-.044.524-.145,1.093-.227,1.712a28.984,28.984,0,0,1-.792,4.236,38.6,38.6,0,0,1-4.442,10.93A40.984,40.984,0,0,1,304.4,216.448a41.119,41.119,0,0,1-21.576-1.734,42.651,42.651,0,0,1-5.365-2.346c-.869-.469-1.7-1.016-2.563-1.524a21.185,21.185,0,0,1-2.484-1.705,37.621,37.621,0,0,1-8.7-8.719,39.8,39.8,0,0,1-5.887-11.327,40.7,40.7,0,0,1,0-25.952,39.766,39.766,0,0,1,5.887-11.323,37.624,37.624,0,0,1,8.7-8.716A21.17,21.17,0,0,1,274.9,141.4c.86-.509,1.693-1.055,2.563-1.523a42.641,42.641,0,0,1,5.364-2.346,41.127,41.127,0,0,1,21.574-1.734,40.979,40.979,0,0,1,27.586,19.416,38.632,38.632,0,0,1,4.443,10.93,29.013,29.013,0,0,1,.792,4.237c.081.62.183,1.188.227,1.713q.029.785.054,1.431c.025.824.044,1.468.059,1.94A4.111,4.111,0,0,1,337.554,176.121Z" transform="translate(-255.701 -135.1)" fill="#fff"/>
            </g>
          </g>
          <g id="Group_5843" data-name="Group 5843" transform="translate(36.189 54.94)">
            <rect id="Rectangle_1865" data-name="Rectangle 1865" width="47.121" height="9.831" fill="#fafafa"/>
          </g>
        </g>
      </g>
    </g>
    <g id="_403_Error" data-name="403 Error" transform="matrix(0.996, 0.087, -0.087, 0.996, 417.105, 40.121)">
      <g id="Group_5859" data-name="Group 5859" transform="translate(0.08 0)">
        <g id="Group_5849" data-name="Group 5849" transform="translate(-0.008 12.732)">
          <g id="Group_5846" data-name="Group 5846" transform="translate(0.54 0)">
            <path id="Path_11684" data-name="Path 11684" d="M0,0,176.557.674l.706,175.639L.706,175.639Z" transform="matrix(0.996, -0.093, 0.093, 0.996, -0.006, 16.315)" fill="#263238"/>
          </g>
          <g id="Group_5848" data-name="Group 5848" transform="translate(-0.005 0.325)">
            <g id="Group_5847" data-name="Group 5847" transform="translate(0 0)">
              <path id="Path_11664" data-name="Path 11664" d="M193.38,175.1s-.037-.282-.094-.824-.139-1.354-.249-2.412c-.214-2.132-.53-5.28-.941-9.384-.813-8.215-2.005-20.246-3.522-35.557-3-30.6-7.3-74.289-12.443-126.7l.269.223L.35,16.181H.332l.257-.307C6.8,79.924,12.623,139.946,17.553,190.78l-.269-.222,127.579-11.251,35.8-3.128,9.451-.814,2.431-.2c.547-.045.832-.061.832-.061s-.265.033-.8.085l-2.4.228-9.4.867-35.736,3.251L17.332,191.046l-.245.022-.024-.244C12.109,139.992,6.261,79.972.021,15.926l-.027-.283.284-.025H.295L176.353-.045l.246-.022.024.244c5.049,52.487,9.259,96.239,12.207,126.881,1.459,15.291,2.605,27.309,3.388,35.513.385,4.086.68,7.22.879,9.342l.218,2.389C193.364,174.836,193.38,175.1,193.38,175.1Z" transform="translate(0 0)" fill="#263238"/>
            </g>
          </g>
        </g>
        <g id="Group_5850" data-name="Group 5850" transform="translate(7.874 14.335)">
          <path id="Path_11685" data-name="Path 11685" d="M0,0,7.719.02,7.771,18.9.052,18.88Z" transform="translate(0 0.721) rotate(-5.318)" fill="#e0e0e0"/>
        </g>
        <g id="Group_5851" data-name="Group 5851" transform="translate(24.334 192.585)">
          <path id="Path_11686" data-name="Path 11686" d="M0,0,7.719.02,7.771,18.9.052,18.88Z" transform="translate(0 0.721) rotate(-5.318)" fill="#e0e0e0"/>
        </g>
        <g id="Group_5852" data-name="Group 5852" transform="translate(162.814 -0.069)">
          <path id="Path_11687" data-name="Path 11687" d="M0,0,7.719.02,7.771,18.9.052,18.88Z" transform="translate(0 0.721) rotate(-5.318)" fill="#e0e0e0"/>
        </g>
        <g id="Group_5853" data-name="Group 5853" transform="translate(179.385 179.376)">
          <path id="Path_11688" data-name="Path 11688" d="M0,0,7.719.02,7.771,18.9.052,18.88Z" transform="translate(0 0.721) rotate(-5.318)" fill="#e0e0e0"/>
        </g>
        <g id="Group_5856" data-name="Group 5856" transform="translate(39.097 17.29)">
          <g id="Group_5854" data-name="Group 5854" transform="translate(0 0)">
            <path id="Path_11689" data-name="Path 11689" d="M38.557,0A38.78,38.78,0,0,1,38.5,77.562,38.78,38.78,0,0,1,38.557,0Z" transform="matrix(0.627, -0.779, 0.779, 0.627, -0.023, 60.03)" fill="#fff"/>
            <path id="Path_11665" data-name="Path 11665" d="M39.292,78.4A39.582,39.582,0,0,1,.168,42.7,38.936,38.936,0,0,1,35.418.144,39.562,39.562,0,0,1,78.2,35.685h0A38.936,38.936,0,0,1,42.952,78.238C41.725,78.348,40.5,78.4,39.292,78.4Zm-.21-77.314q-1.766-.006-3.559.154a38.017,38.017,0,0,0-20.565,67.2A37.942,37.942,0,0,0,77.111,35.784,38.477,38.477,0,0,0,39.081,1.081Z" transform="translate(15.16 15.11)" fill="#e8505b"/>
          </g>
          <g id="Group_5855" data-name="Group 5855" transform="translate(38.944 29.642)">
            <path id="Path_11666" data-name="Path 11666" d="M33.345,20.271a2.719,2.719,0,0,0-4.368-.236A9.52,9.52,0,0,0,27.8,22.69c-.749,2.338-1.41,4.7-2.139,7.049-.078.253-.376.435-.572.65-.161-.244-.426-.473-.463-.733-.191-1.34-.343-2.686-.472-4.034-.254-2.644-.474-5.292-.725-7.937-.423-4.446-.847-8.892-1.312-13.334a2.7,2.7,0,0,0-.594-1.379,2.593,2.593,0,0,0-3-.545,2.434,2.434,0,0,0-1.322,2.5q.669,7.076,1.358,14.149a1.738,1.738,0,0,1,.034.657c-.058.178-.261.409-.419.423a.683.683,0,0,1-.493-.339,1.727,1.727,0,0,1-.1-.651q-.795-8.216-1.588-16.432a9.014,9.014,0,0,0-.126-1.028A1.93,1.93,0,0,0,14.125.053a2.515,2.515,0,0,0-3.168,2.931q.775,8.107,1.563,16.211a4.073,4.073,0,0,1,.046.956.59.59,0,0,1-.375.422.62.62,0,0,1-.494-.31,2.942,2.942,0,0,1-.142-.868c-.42-4.323-.823-8.647-1.262-12.968A2.291,2.291,0,0,0,7.581,4.26,2.275,2.275,0,0,0,5.345,6.89q.648,6.892,1.323,13.78a2.675,2.675,0,0,1,.058.806,2.6,2.6,0,0,1-.4.688c-.2-.2-.546-.393-.572-.616-.194-1.665-.319-3.338-.475-5.008-.165-1.769-.32-3.538-.521-5.3A2.352,2.352,0,0,0,1.986,9.194,2.132,2.132,0,0,0,0,11.635q.355,5.2.7,10.408h0c.2,2.11.381,4.227.5,6.341A32.186,32.186,0,0,0,4.03,40.629a11.5,11.5,0,0,0,8.563,6.747A16.4,16.4,0,0,0,24.6,45a10.922,10.922,0,0,0,5.049-6.565c1.385-5.348,2.664-10.723,3.921-16.1A3.1,3.1,0,0,0,33.345,20.271Z" transform="translate(0 0)" fill="#e8505b"/>
          </g>
        </g>
        <g id="Group_5858" data-name="Group 5858" transform="translate(54.076 118.079)">
          <path id="Path_11681" data-name="Path 11681" d="M29.6,24.141l-5.714.51L24.6,31.93l-5.8.517-.708-7.278L.392,26.747l-.4-4.12L13.881.564l6.4-.571L7.229,21.058l10.551-.941-.628-6.456,5.621-.5.628,6.456,5.714-.509Z" transform="translate(-0.002 5.467)" fill="#a8adaf"/>
          <path id="Path_11682" data-name="Path 11682" d="M.122,17.733C-.9,7.2,4.325.735,11.974.053c7.7-.687,14.078,4.747,15.1,15.275s-4.2,17-11.9,17.684C7.529,33.694,1.146,28.261.122,17.733ZM21.04,15.866C20.287,8.131,16.9,4.832,12.475,5.226,8.1,5.616,5.406,9.458,6.157,17.194S10.3,28.23,14.674,27.839C19.1,27.445,21.791,23.6,21.04,15.866Z" transform="translate(31.163 2.906)" fill="#a8adaf"/>
          <path id="Path_11683" data-name="Path 11683" d="M25.492,22.3c.525,5.4-3.121,10.436-11.784,11.209A20.553,20.553,0,0,1,1.232,30.885l2.13-4.853a15.26,15.26,0,0,0,9.752,2.317c4.285-.383,6.637-2.485,6.347-5.46C19.181,20,16.878,18.315,12,18.751l-2.949.263-.4-4.073,6.484-9.306L.484,6.942,0,1.952,21.976-.008l.387,3.983L15.43,13.92C21.587,14.155,25.025,17.5,25.492,22.3Z" transform="translate(59.86 -0.023)" fill="#a8adaf"/>
        </g>
      </g>
    </g>
  </g>
</svg>
