<svg id="img_profile_pic" xmlns="http://www.w3.org/2000/svg" xmlns:xlink="http://www.w3.org/1999/xlink" width="100" height="100" viewBox="0 0 100 100">
  <defs>
    <clipPath id="clip-path">
      <circle id="Ellipse_280" data-name="Ellipse 280" cx="50" cy="50" r="50" fill="none"/>
    </clipPath>
  </defs>
  <g id="Group_3605" data-name="Group 3605" transform="translate(0 0)" clip-path="url(#clip-path)">
    <circle id="Ellipse_277" data-name="Ellipse 277" cx="50" cy="50" r="50" fill="#fce3c3"/>
    <g id="Group_3604" data-name="Group 3604" transform="translate(5.779 15.528)">
      <g id="Group_3603" data-name="Group 3603">
        <path id="Path_9937" data-name="Path 9937" d="M1362.747,72.706A12.786,12.786,0,0,0,1347.32,60.2c-1.029-5.152-.139-11.433.114-15.241.585-8.825.3-20.3-7.412-26.627a18.016,18.016,0,0,0-16.888-2.678c-6.3,2.276-10.113,8.086-11.909,13.918-1.151,3.737-1.554,7.592-2.538,11.3a5.422,5.422,0,0,0-7.568,3.67,13.363,13.363,0,0,0-14.282,17.736,12.394,12.394,0,0,0,4.606,22.883,12.977,12.977,0,0,0,12.63,10.006c.268,0,.534-.011.8-.027a14.135,14.135,0,0,0,25.718,1.257,14.134,14.134,0,0,0,22.078-11.2A12.784,12.784,0,0,0,1362.747,72.706Z" transform="translate(-1280.833 -14.648)" fill="#602826"/>
        <path id="Path_9938" data-name="Path 9938" d="M1584.832,1278l1.829-4.063-1.626-33.522h14.943l-3.16,33.115,3.047,2.844,8.736,6.7h-16.569l-6.388-1.016Z" transform="translate(-1517.769 -970.004)" fill="#ffcfca"/>
        <path id="Path_9939" data-name="Path 9939" d="M1609.09,1402.705a1.7,1.7,0,0,0-.274-.622c-.555-.788-1.706-1.118-2.5-1.583l-.809-.473q-1.689-.982-3.375-1.968l-6.076-3.786-6.7-4.672-10.565.2-1.756,3.948c-.537,1.156-.808,2.011-1.341,3.167a6.78,6.78,0,0,0-.673,1.968,2.477,2.477,0,0,0-.021.515,3.28,3.28,0,0,0,.428,1.414,4.228,4.228,0,0,0,1.719,1.677,8.416,8.416,0,0,0,3,.713c6.447.7,12.891,1.418,19.363,1.81a41.026,41.026,0,0,0,6.9.209C1607.832,1405.072,1609.475,1404.453,1609.09,1402.705Z" transform="translate(-1510.098 -1086.283)" fill="#602826"/>
        <path id="Path_9940" data-name="Path 9940" d="M1389.746,1270.024l1.944-4.01-.667-33.554,14.937.427-4.1,33.011,2.965,2.93,8.541,6.951-16.562-.473-6.356-1.2Z" transform="translate(-1365.719 -963.808)" fill="#ffcfca"/>
        <path id="Path_9941" data-name="Path 9941" d="M1413.246,1396.457a1.707,1.707,0,0,0-.255-.63c-.532-.8-1.674-1.166-2.455-1.654l-.795-.5q-1.661-1.03-3.319-2.064l-5.965-3.958-6.569-4.863-10.566-.1-1.868,3.9c-.57,1.14-.865,1.987-1.432,3.127a6.81,6.81,0,0,0-.729,1.948,2.489,2.489,0,0,0-.036.514,3.277,3.277,0,0,0,.388,1.427,4.224,4.224,0,0,0,1.67,1.726,8.424,8.424,0,0,0,2.975.8c6.424.887,12.844,1.785,19.3,2.362a40.993,40.993,0,0,0,6.9.406C1411.922,1398.786,1413.582,1398.215,1413.246,1396.457Z" transform="translate(-1357.546 -1080.9)" fill="#602826"/>
        <path id="Path_9942" data-name="Path 9942" d="M1775.219,738.051a30.059,30.059,0,0,0,1.956-2.681,0,0,0,0,0,0,0c.05-.071.1-.143.143-.219q.734-1.148,1.361-2.36c-.117-.2-.237-.407-.354-.612-.533-.934-1.038-1.887-1.535-2.846-.138.445-.246.871-.312,1.043q-.333.872-.715,1.722a33.419,33.419,0,0,1-1.89,3.609,3.542,3.542,0,0,0-.692,1.788,1.186,1.186,0,0,0,.061.367,1.347,1.347,0,0,0,.382.6l.043.036a.649.649,0,0,0,.087.061.811.811,0,0,0,.629.133.86.86,0,0,0,.1-.028h0a1.418,1.418,0,0,0,.563-.412C1775.107,738.186,1775.165,738.118,1775.219,738.051Z" transform="translate(-1664.569 -571.67)" fill="#ffcfca"/>
        <path id="Path_9943" data-name="Path 9943" d="M1773.972,752.276a.646.646,0,0,1-.087-.061l-.043-.036a1.347,1.347,0,0,1-.382-.6c.111-.163.222-.328.334-.49l2.134-3.138c.161-.236.492-1.02.835-1.018.531,0,.449.911.333,1.212a2.634,2.634,0,0,1-.308.536A22.678,22.678,0,0,1,1773.972,752.276Z" transform="translate(-1664.785 -585.386)" fill="#f9bfbb"/>
        <path id="Path_9944" data-name="Path 9944" d="M1775.829,743.824c.139-.172.278-.346.414-.52q.418-.531.812-1.084.674-.947,1.274-1.945.467-.772.887-1.572c.2-.376.384-.757.566-1.141-.328-.566-.658-1.13-.982-1.7-.339-.594-.667-1.2-.988-1.8a13.44,13.44,0,0,0-.724,2.087c-.08.21-.164.422-.249.633a33.355,33.355,0,0,1-2.356,4.7c-.132.218-.268.44-.383.671a2.418,2.418,0,0,0-.308,1.117c0,.648.567,1.334,1.2,1.2a1.3,1.3,0,0,0,.663-.441C1775.717,743.959,1775.775,743.89,1775.829,743.824Z" transform="translate(-1665.045 -575.356)" fill="#ffcfca"/>
        <path id="Path_9945" data-name="Path 9945" d="M1784.9,754.106a14.312,14.312,0,0,1,.433-1.8c.471-1.487,1.257-2.87,1.634-4.386l-.011.2a.179.179,0,0,1,.106-.044.437.437,0,0,1,.342.243,3.608,3.608,0,0,1,.472,1.184q-.419.8-.887,1.571-.6,1-1.275,1.946Q1785.319,753.575,1784.9,754.106Z" transform="translate(-1673.703 -586.159)" fill="#f9bfbb"/>
        <path id="Path_9946" data-name="Path 9946" d="M1787.073,747.348c.076-.124.143-.255.208-.385a20.385,20.385,0,0,0,1.1-2.71,36.607,36.607,0,0,0,1.065-4.2q.04-.207.079-.414-.933-1.587-1.849-3.186-.462-.81-.9-1.637a1.427,1.427,0,0,0-.113.276,4.418,4.418,0,0,0-.061,1.455,19.5,19.5,0,0,1-.032,2.63c-.013.154-.026.311-.045.466a0,0,0,0,1,0,0,19.285,19.285,0,0,1-.511,2.852q-.039.154-.084.311a13.872,13.872,0,0,0-.751,3.842c.013.553.2,1.218.739,1.351a.962.962,0,0,0,.851-.266A1.819,1.819,0,0,0,1787.073,747.348Z" transform="translate(-1673.915 -575.941)" fill="#ffcfca"/>
        <path id="Path_9947" data-name="Path 9947" d="M1790.319,735.364q-.934-1.588-1.849-3.187c-.532-.934-1.038-1.887-1.535-2.846-.137.445-.246.871-.311,1.043-.135.354-.279.7-.426,1.053a24.044,24.044,0,0,1,1.82,4.631c.3.958.558,1.927.793,2.9.119.342.239.683.365,1.022a36.492,36.492,0,0,0,1.064-4.2C1790.268,735.64,1790.294,735.5,1790.319,735.364Z" transform="translate(-1674.713 -571.67)" fill="#f9bfbb" opacity="0.3"/>
        <g id="Group_3592" data-name="Group 3592" transform="translate(2.868 166.893)">
          <path id="Path_9948" data-name="Path 9948" d="M1296.438,775.4a15.508,15.508,0,0,0,.438,1.54c.447,1.36.945,2.7,1.38,4.067a6.158,6.158,0,0,1,.371,1.811,2.279,2.279,0,0,1-.637,1.687,1.42,1.42,0,0,1-1.706.211,2.339,2.339,0,0,1-.767-1.4q-.28-1.034-.562-2.069c-.253-.931-.506-1.863-.717-2.8a10.051,10.051,0,0,1,.045-5.791c.224-.579,1.62-2.316,2.04-.967a6.4,6.4,0,0,1-.083,1.774A8.9,8.9,0,0,0,1296.438,775.4Z" transform="translate(-1293.832 -771.181)" fill="#f4b9b8"/>
        </g>
        <g id="Group_3593" data-name="Group 3593" transform="translate(2.061 168.096)">
          <path id="Path_9949" data-name="Path 9949" d="M1292.782,780.851a15.281,15.281,0,0,0,.438,1.54c.446,1.36.945,2.7,1.38,4.067a6.182,6.182,0,0,1,.371,1.811,2.278,2.278,0,0,1-.638,1.687,1.419,1.419,0,0,1-1.705.211,2.337,2.337,0,0,1-.767-1.4l-.563-2.069c-.253-.932-.506-1.863-.716-2.806a10.047,10.047,0,0,1,.044-5.791c.225-.579,1.621-2.316,2.04-.966a6.4,6.4,0,0,1-.083,1.774A8.863,8.863,0,0,0,1292.782,780.851Z" transform="translate(-1290.176 -776.633)" fill="#f9bfbb"/>
        </g>
        <path id="Path_9950" data-name="Path 9950" d="M1405.311,357.046q-1.915-4.8-3.833-9.6a69.938,69.938,0,0,0-3.908-8.6c-.663-1.187-1.565-2.741-2.315-3.921l-10.769-19.805-6.813-12.53a74.486,74.486,0,0,1-4.123-8.4,66.666,66.666,0,0,1-3.009-11.2c-1.563-7.787-2.84-15.676-5.482-23.167-2.011-5.705-4.884-11.239-9.279-15.4-6.517-6.162-15.689-8.523-24.492-7.926a37.429,37.429,0,0,0-4.533.586,37.952,37.952,0,0,0-11.732,4.375,27.076,27.076,0,0,0-9.277,8.431,36.077,36.077,0,0,0-2.087,3.525c-2.4,4.6-3.956,9.575-5.9,14.378-3.462,8.533-8.432,16.608-10.045,25.674-1.674,9.415,2.417,32.229,2.388,45.577-.267,5.075-2.135,11.536-2.584,14.341a26.009,26.009,0,0,0-.478,6.737,49.525,49.525,0,0,0,1.475,6.971,2.972,2.972,0,0,0,.4,1.032,1.093,1.093,0,0,0,1.727.1c.923-1.276.421-3.178.108-4.587a24.527,24.527,0,0,1-.734-3.974,8.148,8.148,0,0,1,.8-3.734c.377-.87.719-1.751,1.117-2.617.11-.238.228-.484.36-.715.049-.089.1-.175.156-.26a2.608,2.608,0,0,1,1.048-.993,1.766,1.766,0,0,1,1.384-.093c.423.219.4.772.441,1.18a5.981,5.981,0,0,1-.09,1.451,13.554,13.554,0,0,0-.255,1.961,3.552,3.552,0,0,0,.03.534,3.093,3.093,0,0,0,.082.419c.4,1.477,2.4,2.789,3.157.815a5.98,5.98,0,0,0,.281-1.329c.3-2.143,1.055-4.23.967-6.4a37.623,37.623,0,0,0-.473-4.128c-.348-2.283-1.366-5.609-1.605-6.706,1.422-13.612,2.138-25.174,2.922-38.736a18.715,18.715,0,0,1,.578-4.265,19.059,19.059,0,0,1,2.559-4.865q9.291-14.211,17.654-29c1.95-3.447,3.915-7.129,3.825-11.088a19.445,19.445,0,0,0,18.342,2.263c7.426,16.645,10.893,35,19.8,50.9,7.14,12.751,17.724,22.794,26.353,34.589.312.427.174,1.709.2,2.253.094,1.765-.053,3.527.163,5.287a24.7,24.7,0,0,0,1.228,5.221c.271.765,1.008,1.467,1.79.78a.9.9,0,0,0,.2-.167,3.881,3.881,0,0,0,.726-3,7.023,7.023,0,0,1,.532-3.45,1.085,1.085,0,0,1,.708-.643,1.179,1.179,0,0,1,.594.072,3.279,3.279,0,0,1,1.523,1.113,5.771,5.771,0,0,1,.552.841c.159.282.3.574.438.869.172.366.332.733.5,1.081.035.072.069.142.1.21l.1.19c.206.409.412.817.619,1.227q.561,1.117,1.125,2.233.49.974.982,1.948a9.153,9.153,0,0,0,2.212,3.21A.973.973,0,0,0,1405.311,357.046Z" transform="translate(-1285.609 -187.489)" fill="#ffcfca"/>
        <g id="Group_3594" data-name="Group 3594" transform="translate(6.682 162.625)">
          <path id="Path_9951" data-name="Path 9951" d="M1314.063,756.716c-.1.278-.184.563-.257.849a13.539,13.539,0,0,1,.256-1.961,5.955,5.955,0,0,0,.09-1.451c-.037-.408-.018-.961-.441-1.18a1.765,1.765,0,0,0-1.384.093,2.6,2.6,0,0,0-1.048.993c-.055.085-.108.171-.157.26.085-.26.181-.516.289-.768a3.231,3.231,0,0,1,1-1.394,1.5,1.5,0,0,1,1.627-.146,1.734,1.734,0,0,1,.691,1.231A7.512,7.512,0,0,1,1314.063,756.716Z" transform="translate(-1311.122 -751.833)" fill="#f9bfbb"/>
        </g>
        <g id="Group_3595" data-name="Group 3595" transform="translate(39.814 30.797)">
          <path id="Path_9952" data-name="Path 9952" d="M1478.873,176.6a8.2,8.2,0,0,1-3.5.907,30.032,30.032,0,0,1-4.384.25c-2.854-.115-5.444-1.13-8.151-2.038q.07-2.469.137-4.939a61.743,61.743,0,0,0-.036-6.176c-.047-.63-.109-1.258-.19-1.884-.191-1.559-.47-3.105-.748-4.655q-.345-1.907-.688-3.817a9.85,9.85,0,0,0,2.332,1.577c3.789,2.09,7.654,4.035,11.545,5.929a18.307,18.307,0,0,0,3.621,1.448l.035,7.215Z" transform="translate(-1461.31 -154.251)" fill="#ffcfca"/>
        </g>
        <g id="Group_3596" data-name="Group 3596" transform="translate(39.814 30.797)">
          <path id="Path_9953" data-name="Path 9953" d="M1478.843,170.42a44.264,44.264,0,0,1-12.415-5.254c-1.217-.758-2.48-1.569-3.681-2.443-.191-1.559-.47-3.105-.748-4.655q-.345-1.907-.688-3.817a9.85,9.85,0,0,0,2.332,1.577c3.789,2.09,7.654,4.035,11.545,5.929a18.307,18.307,0,0,0,3.621,1.448Z" transform="translate(-1461.31 -154.251)" fill="#f9bfbb"/>
        </g>
        <path id="Path_9954" data-name="Path 9954" d="M1475.949,54.637a29.6,29.6,0,0,0-.831-3.058,16.3,16.3,0,0,0-5.791-8.065,13.44,13.44,0,0,0-17.3,1.491,13.594,13.594,0,0,0-2.577,3.747,17.259,17.259,0,0,0-1.079,10.63,27.794,27.794,0,0,0,3.506,8.943,22.85,22.85,0,0,0,3.563,4.612,16.759,16.759,0,0,0,2.639,2.112,13.411,13.411,0,0,0,6.36,2.2,9.831,9.831,0,0,0,10.105-6.42A26.337,26.337,0,0,0,1475.949,54.637Z" transform="translate(-1411.119 -35.219)" fill="#ffcfca"/>
        <g id="Group_3598" data-name="Group 3598" transform="translate(32.956 22.23)">
          <g id="Group_3597" data-name="Group 3597">
            <path id="Path_9955" data-name="Path 9955" d="M1439,125.239a6.345,6.345,0,0,1-6.241-.585,6.246,6.246,0,0,1-2.532-4.728,5.909,5.909,0,0,1,.044-1.006,4.524,4.524,0,0,1,.542-1.675,3.891,3.891,0,0,1,3.727-1.8,4.494,4.494,0,0,1,3.413,2.452l.4,2.824Z" transform="translate(-1430.225 -115.419)" fill="#ffcfca"/>
          </g>
        </g>
        <path id="Path_9956" data-name="Path 9956" d="M1462.318,34.754a23.035,23.035,0,0,1-9.634,11.658,30.7,30.7,0,0,1-14.613,4.365c-.364.019.694-6.756.889-7.406a16.037,16.037,0,0,1,6.29-8.559,15.239,15.239,0,0,1,1.39-.839,15.965,15.965,0,0,1,9.725-1.659,12.033,12.033,0,0,1,3.907,1.188C1460.508,33.624,1462.422,34.462,1462.318,34.754Z" transform="translate(-1403.325 -28.287)" fill="#602826"/>
        <path id="Path_9957" data-name="Path 9957" d="M1445.081,312.1c.962-7.661,1.691-15.307,3.242-22.882,1.376-6.72,2.95-13.832.395-20.458a18.26,18.26,0,0,0-3.718-2.9c-11.47-7.076-25.873-6.353-38.589-1.887-.678,10.521.689,21.089,1.572,31.624.264,1.511.453,3.035.631,4.559,1.112,9.531,1.71,19.107,2.352,28.679.3-.04.612-.068.927-.079a32.374,32.374,0,0,1,6.414.64l16.38,2.742c2.117.354,4.243.712,6.327,1.217,1.221-5.493,2.523-10.972,3.821-16.447A32.692,32.692,0,0,1,1445.081,312.1Z" transform="translate(-1378.566 -206.325)" fill="#ffcfca"/>
        <path id="Path_9958" data-name="Path 9958" d="M1488.83,723.667l-11.784-1.284c-2.235-27.193-4.969-66.072-5.079-82.012-1.109-2.462-2.2-4.638-3.259-6.613-6.215-11.558-11.594-16.271-15.834-31.584-1.583-5.711-3-11.923-4.173-18.339-2.509-13.724-3.895-28.384-3.348-41.1,9.059.878,19.637,2.84,28.443.429,3.3,8.777,8.344,21.257,10.564,30.405,4.47,18.412,11.41,56.751,11.784,63.955C1496.584,646.036,1491.8,710.013,1488.83,723.667Z" transform="translate(-1408.968 -426.241)" fill="#397272"/>
        <path id="Path_9959" data-name="Path 9959" d="M1481.469,648.352q-.121,7.2-.451,14.4c-.041.89-.019,1.883-.063,2.844-6.215-11.558-11.594-16.271-15.834-31.583-1.583-5.711-3-11.924-4.173-18.339q.448-1.2.855-2.419c3.228-9.674,4.073-20.021,7.382-29.668a63.96,63.96,0,0,1,8.8,18.443c2.846,9.734,3.333,19.985,3.492,30.123Q1481.607,640.251,1481.469,648.352Z" transform="translate(-1421.215 -458.074)" fill="#326b69"/>
        <path id="Path_9960" data-name="Path 9960" d="M1381.239,715.208a88.773,88.773,0,0,0-12.574-1.017c-2.438-24.61.61-85.355.61-85.355a169.15,169.15,0,0,1-7.72-44.389c-.1-3.784-.639-15.354,1.828-25.266,3.251-13.061,8.533-18.853,11.987-24.206a79.382,79.382,0,0,0,33.115,2.141c-2.3,14.659-5.182,38.978-7.482,53.636-4.986,31.791-8.7,60.452-14.053,92.177C1385.324,692.565,1383.293,704.556,1381.239,715.208Z" transform="translate(-1343.656 -420.19)" fill="#397272"/>
        <path id="Path_9961" data-name="Path 9961" d="M1406.709,271.455a15.053,15.053,0,0,1-6.217,4.63c-.668.274-1.274.5-1.845.7a29.993,29.993,0,0,1-7.094,1.335l-2.367,23.707a36.967,36.967,0,0,1-9.331,1.4,127.024,127.024,0,0,1-14.684-.528c-4.486-.366-9.049-1.093-13.1-3.157q.159-8.606-.349-17.21-.207-3.59-.524-7.174c0-.029-.006-.057-.008-.085a24.476,24.476,0,0,0-1.682,2.393,76.671,76.671,0,0,1-15.528-13.654c.1-.236.2-.473.295-.715a30.763,30.763,0,0,1,2-3.994c1.615-2.792,3.26-5.581,5.006-8.3q.488-.759,1-1.5a34.149,34.149,0,0,1,8.389-8.675,27.54,27.54,0,0,1,5.709-3.062c1.046-.41,6.873-2.009,6.934-1.91a4.159,4.159,0,0,0,2.736,2.038,23.035,23.035,0,0,0,9.788.628,13.969,13.969,0,0,0,4.338-1.853,46.413,46.413,0,0,1,8.6,3.381,28.817,28.817,0,0,1,3.586,2.6,29.916,29.916,0,0,1,7.958,10.5,119.045,119.045,0,0,1,4.618,12.964C1405.545,267.754,1406.146,269.6,1406.709,271.455Z" transform="translate(-1322.255 -186.898)" fill="#f9713d"/>
        <path id="Path_9962" data-name="Path 9962" d="M1589.821,324.212a24.682,24.682,0,0,0,.031-3.2,22.5,22.5,0,0,0-.648-3.718,64.741,64.741,0,0,0-2.475-7.944c.217.423.461.835.7,1.241a27.139,27.139,0,0,1,3.921,9.6c.4,2.669.136,5.455.766,8.067a12,12,0,0,0,3.368,5.829c.051.047.1.1.152.14a29.981,29.981,0,0,1-7.094,1.335C1589.151,331.552,1589.592,328.261,1589.821,324.212Z" transform="translate(-1519.248 -244.335)" fill="#ef5d30"/>
        <path id="Path_9963" data-name="Path 9963" d="M1416.624,385.471c-.908,4.665-1.871,9.459-4.071,13.624q-.207-3.59-.524-7.174C1413.947,390.054,1415.937,388.055,1416.624,385.471Z" transform="translate(-1383.087 -303.666)" fill="#ef5d30"/>
        <g id="Group_3602" data-name="Group 3602" transform="translate(48.987 17.642)">
          <path id="Path_9964" data-name="Path 9964" d="M1504.1,96.5a4.642,4.642,0,0,1,.852.017l1.507.122c.166.013.374.005.447-.145a.3.3,0,0,0-.008-.241.923.923,0,0,0-.789-.427,4.528,4.528,0,0,0-2.315.262c-.141.06-.95.429-.893.618C1502.948,96.872,1503.932,96.514,1504.1,96.5Z" transform="translate(-1502.894 -95.523)" fill="#211a17"/>
          <path id="Path_9965" data-name="Path 9965" d="M1547.992,95.255a4.642,4.642,0,0,0-.848.079l-1.494.232c-.165.026-.373.033-.457-.112a.3.3,0,0,1-.01-.241c.1-.3.448-.422.756-.484a4.525,4.525,0,0,1,2.327.091c.146.049.979.358.937.551C1549.164,95.544,1548.155,95.26,1547.992,95.255Z" transform="translate(-1535.838 -94.621)" fill="#211a17"/>
          <g id="Group_3599" data-name="Group 3599" transform="translate(4.212 10.667)">
            <path id="Path_9966" data-name="Path 9966" d="M1529.036,146.149a3.607,3.607,0,0,1-2.855,2.58,3.539,3.539,0,0,1-3.152-1.932,7.443,7.443,0,0,1-1.044-3.2l.237-.019,7-.576.259-.022A7.489,7.489,0,0,1,1529.036,146.149Z" transform="translate(-1521.985 -142.975)" fill="#ce7872"/>
            <path id="Path_9967" data-name="Path 9967" d="M1530.055,143.075a4.32,4.32,0,0,1-6.995.576Z" transform="translate(-1522.824 -143.053)" fill="#fff"/>
            <path id="Path_9968" data-name="Path 9968" d="M1532.723,155.558a3.607,3.607,0,0,1-2.855,2.58,3.54,3.54,0,0,1-3.152-1.932,7.37,7.37,0,0,1,1.072-.589,5.86,5.86,0,0,1,4.936-.059Z" transform="translate(-1525.672 -152.384)" fill="#ea8c8b"/>
          </g>
          <g id="Group_3600" data-name="Group 3600" transform="translate(1.534 3.814)">
            <path id="Path_9969" data-name="Path 9969" d="M1512.288,113.6c.028.953-.494,1.743-1.167,1.763s-1.241-.736-1.27-1.689.493-1.743,1.167-1.763S1512.259,112.645,1512.288,113.6Z" transform="translate(-1509.849 -111.908)" fill="#211a17"/>
            <path id="Path_9970" data-name="Path 9970" d="M1515.894,117.06a.3.3,0,0,0,.019.609A.3.3,0,0,0,1515.894,117.06Z" transform="translate(-1514.338 -115.924)" fill="#fff"/>
          </g>
          <g id="Group_3601" data-name="Group 3601" transform="translate(10.47 3.545)">
            <path id="Path_9971" data-name="Path 9971" d="M1550.354,112.452c.029.953.6,1.71,1.27,1.69s1.2-.81,1.167-1.763-.6-1.71-1.271-1.689S1550.325,111.5,1550.354,112.452Z" transform="translate(-1550.352 -110.689)" fill="#211a17"/>
            <path id="Path_9972" data-name="Path 9972" d="M1556.508,115.019a.3.3,0,0,0,.018.609A.3.3,0,0,0,1556.508,115.019Z" transform="translate(-1554.928 -114.064)" fill="#fff"/>
          </g>
          <path id="Path_9973" data-name="Path 9973" d="M1536.013,127.606a1.118,1.118,0,0,0-1.39.038l1.086,1.877a.827.827,0,0,0,.663-.553A1.21,1.21,0,0,0,1536.013,127.606Z" transform="translate(-1527.624 -120.155)" fill="#ce7872"/>
        </g>
        <ellipse id="Ellipse_278" data-name="Ellipse 278" cx="3.251" cy="2.641" rx="3.251" ry="2.641" transform="matrix(0.998, -0.069, 0.069, 0.998, 44.54, 25.829)" fill="#f9bfbb"/>
        <ellipse id="Ellipse_279" data-name="Ellipse 279" cx="1.824" cy="1.482" rx="1.824" ry="1.482" transform="translate(61.281 25.262) rotate(-3.968)" fill="#f9bfbb"/>
      </g>
    </g>
  </g>
</svg>
