<svg xmlns="http://www.w3.org/2000/svg" width="35" height="35" viewBox="0 0 35 35"><defs><style>.a,.b,.c{fill:none;}.b{stroke:#fff;}.d,.e{stroke:none;}.e{fill:#fff;}</style></defs><rect class="a" width="35" height="35" rx="8"/><g transform="translate(-368 -623)"><rect class="a" width="25" height="25" transform="translate(373 628)"/><g class="b" transform="translate(376 632)"><ellipse class="d" cx="9" cy="9" rx="9" ry="9"/><ellipse class="a" cx="9" cy="9" rx="8.5" ry="8.5"/></g><g class="c" transform="translate(381.719 635.966)"><path class="d" d="M3.159,0a3.305,3.305,0,0,0-2.4.844A2.791,2.791,0,0,0,0,2.481l1.279.166a1.55,1.55,0,0,1,.4-.883,1.9,1.9,0,0,1,1.484-.486,2.257,2.257,0,0,1,1.56.435,1.069,1.069,0,0,1,.358.844C5.078,3.62,4.643,3.914,4,4.477A3.646,3.646,0,0,0,2.52,7.355v.32H3.8v-.32A2.128,2.128,0,0,1,4.835,5.436,3.668,3.668,0,0,0,6.357,2.558,2.457,2.457,0,0,0,5.6.755,3.535,3.535,0,0,0,3.159,0ZM2.52,8.953v1.279H3.8V8.953Z"/><path class="e" d="M 3.159180641174316 1.9073486328125e-06 C 4.233560562133789 1.9073486328125e-06 5.052140712738037 0.2558126449584961 5.602120876312256 0.7546424865722656 C 6.139310836791992 1.253472328186035 6.356740951538086 1.944151878356934 6.356740951538086 2.558102130889893 C 6.356740951538086 4.054592132568359 5.474220752716064 4.87318229675293 4.834700584411621 5.435962200164795 C 4.1951904296875 5.998742580413818 3.79870080947876 6.292932510375977 3.79870080947876 7.354542255401611 L 3.79870080947876 7.674302101135254 L 2.519670724868774 7.674302101135254 L 2.519670724868774 7.354542255401611 C 2.519670724868774 5.858052253723145 3.363830804824829 5.039462566375732 4.003340721130371 4.476672172546387 C 4.642850875854492 3.913892269134521 5.077720642089844 3.619712352752686 5.077720642089844 2.558102130889893 C 5.077720642089844 2.225552558898926 4.975400924682617 1.944151878356934 4.719590663909912 1.713932037353516 C 4.463790893554688 1.483702659606934 4.003340721130371 1.279052734375 3.159180641174316 1.279052734375 C 2.30224084854126 1.279052734375 1.918530941009521 1.522072792053223 1.675520896911621 1.765091896057129 C 1.432500839233398 2.008111953735352 1.330180644989014 2.327872276306152 1.2790207862854 2.647632122039795 L 4.76837158203125e-07 2.481362342834473 C 0.06395053863525391 1.995322227478027 0.2430105209350586 1.355792045593262 0.7546205520629883 0.844172477722168 C 1.266230583190918 0.3325519561767578 2.072020530700684 1.9073486328125e-06 3.159180641174316 1.9073486328125e-06 Z M 2.519670724868774 8.953351974487305 L 3.79870080947876 8.953351974487305 L 3.79870080947876 10.23240280151367 L 2.519670724868774 10.23240280151367 L 2.519670724868774 8.953351974487305 Z"/></g></g></svg>