<svg id="Group_4865" data-name="Group 4865" xmlns="http://www.w3.org/2000/svg" width="39" height="39" viewBox="0 0 39 39">
  <defs>
    <style>
      .cls-1 {
        fill: #e8f4ff;
      }

      .cls-2 {
        fill: #309afc;
      }
    </style>
  </defs>
  <rect id="Rectangle_847" data-name="Rectangle 847" class="cls-1" width="39" height="39" rx="19.5"/>
  <path id="Path_115" data-name="Path 115" class="cls-2" d="M19,28.336a.691.691,0,0,0-.678.544,1.337,1.337,0,0,1-.267.582,1.008,1.008,0,0,1-.859.315,1.025,1.025,0,0,1-.859-.315,1.337,1.337,0,0,1-.267-.582.691.691,0,0,0-.678-.544h0a.7.7,0,0,0-.678.848A2.384,2.384,0,0,0,17.2,31.164a2.379,2.379,0,0,0,2.481-1.979A.7.7,0,0,0,19,28.336Z" transform="translate(2.321 -0.557)"/>
  <path id="Path_116" data-name="Path 116" class="cls-2" d="M23.615,19.738c-.822-1.083-2.438-1.718-2.438-6.568,0-4.978-2.2-6.978-4.247-7.458C16.738,5.664,16.6,5.6,16.6,5.4V5.243a1.309,1.309,0,0,0-1.28-1.312h-.032a1.309,1.309,0,0,0-1.28,1.312V5.4c0,.2-.139.267-.331.315-2.054.485-4.247,2.481-4.247,7.458,0,4.85-1.617,5.479-2.438,6.568a1.059,1.059,0,0,0,.848,1.7H22.783A1.06,1.06,0,0,0,23.615,19.738Zm-2.081.309H9.093a.234.234,0,0,1-.176-.389,6.463,6.463,0,0,0,1.12-1.782,12.09,12.09,0,0,0,.763-4.706A8.182,8.182,0,0,1,11.915,8.54,3.423,3.423,0,0,1,13.98,7.068a1.87,1.87,0,0,0,.992-.56.422.422,0,0,1,.635-.011,1.933,1.933,0,0,0,1,.571A3.423,3.423,0,0,1,18.675,8.54a8.182,8.182,0,0,1,1.115,4.631,12.09,12.09,0,0,0,.763,4.706A6.537,6.537,0,0,0,21.7,19.685.221.221,0,0,1,21.534,20.048Z" transform="translate(4.233 5.331)"/>
</svg>
