<svg xmlns="http://www.w3.org/2000/svg" width="35" height="35" viewBox="0 0 35 35"><defs><style>.a,.b{fill:none;}.b{stroke:#fff;}.c{fill:#fff;}</style></defs><rect class="a" width="35" height="35" rx="8"/><g transform="translate(-368 -732)"><rect class="a" width="25" height="25" transform="translate(373 737)"/><path class="b" d="M17.252,10.6a.97.97,0,0,0-1.3,0L13.132,12.99a1.879,1.879,0,0,1-1.221.452H8.3a.518.518,0,0,1,0-1.034h2.388a1.035,1.035,0,0,0,.052-2.068H5.858a3.455,3.455,0,0,0-2.259.85L2.181,12.408H.488A.5.5,0,0,0,0,12.925v3.1a.5.5,0,0,0,.488.517H11.374a1.892,1.892,0,0,0,1.221-.452l4.614-3.91A1.074,1.074,0,0,0,17.252,10.6Z" transform="translate(377 741)"/><path class="c" d="M13.559,10.562c-1.188-.309-1.57-.625-1.57-1.123,0-.571.526-.971,1.413-.971.932,0,1.277.445,1.309,1.1h1.157a2.084,2.084,0,0,0-1.68-1.994V6.427h-1.57V7.557a2.043,2.043,0,0,0-1.832,1.89c0,1.209,1,1.811,2.46,2.162,1.311.314,1.57.772,1.57,1.264,0,.359-.254.934-1.413.934-1.078,0-1.5-.484-1.56-1.1H10.688a2.2,2.2,0,0,0,1.929,2v1.136h1.57V14.723c1.018-.2,1.832-.785,1.832-1.861,0-1.481-1.272-1.989-2.46-2.3Z" transform="translate(372.481 733.652)"/></g></svg>