<svg xmlns="http://www.w3.org/2000/svg" width="94.249" height="87.517" viewBox="0 0 94.249 87.517">
  <g id="payment_p_overtime" transform="translate(-64 -96)">
    <path id="Path_11235" data-name="Path 11235" d="M91.581,154.127h-.053A29.085,29.085,0,0,1,93.085,96a27.178,27.178,0,0,1,2.788.137,1.058,1.058,0,0,1,.463,1.946A23.875,23.875,0,0,0,88.8,131a24.312,24.312,0,0,0,3.24,4.092,1.049,1.049,0,0,1-1.494,1.473,26.119,26.119,0,0,1-3.524-4.449,25.971,25.971,0,0,1,5.649-34,26.976,26.976,0,0,0-1.041,53.909,1.063,1.063,0,0,1,1,1.1A1.052,1.052,0,0,1,91.581,154.127Zm17.872-41.139c-.863,0-1.536-.842-1.82-1.189a2.088,2.088,0,0,0-2.546-.757c-.494.158-1.82.6-2.5-.305s.063-2.062.347-2.5a2.094,2.094,0,0,0-.074-2.661c-.305-.421-1.126-1.546-.484-2.482s1.988-.579,2.493-.442a2.1,2.1,0,0,0,2.5-.894c.305-.421,1.115-1.546,2.209-1.231s1.157,1.7,1.189,2.23a2.113,2.113,0,0,0,1.62,2.114c.494.158,1.82.589,1.851,1.725s-1.262,1.63-1.757,1.82a2.109,2.109,0,0,0-1.5,2.2c0,.526,0,1.914-1.062,2.293A1.272,1.272,0,0,1,109.452,112.988Zm-3.471-4.208a4.008,4.008,0,0,1,2.914,1.273,4.026,4.026,0,0,1,2.314-3.377,4.029,4.029,0,0,1-2.493-3.24,4.028,4.028,0,0,1-3.85,1.367,4.043,4.043,0,0,1,.116,4.092A4.7,4.7,0,0,1,105.981,108.78ZM112.092,107.434Z" fill="#1e85f1"/>
    <path id="Path_11236" data-name="Path 11236" d="M384.917,373.467h-4.975a1.052,1.052,0,0,1,0-2.1h4.975V321.714H321.8v14.548a1.052,1.052,0,1,1-2.1,0V321.7a2.11,2.11,0,0,1,2.1-2.1h63.113a2.11,2.11,0,0,1,2.1,2.1v49.649A2.112,2.112,0,0,1,384.917,373.467Zm-17.745,0H321.8a2.11,2.11,0,0,1-2.1-2.1V353.408a1.052,1.052,0,0,1,2.1,0v17.956h45.368a1.052,1.052,0,0,1,0,2.1Z" transform="translate(-228.803 -200.08)" fill="#1e85f1"/>
    <path id="Path_11237" data-name="Path 11237" d="M312.683,548.683m-1.683,0A1.683,1.683,0,1,0,312.683,547,1.683,1.683,0,0,0,311,548.683Z" transform="translate(-221.018 -403.56)" fill="#1e85f1"/>
    <path id="Path_11238" data-name="Path 11238" d="M818.683,806.683m-1.683,0A1.683,1.683,0,1,0,818.683,805,1.683,1.683,0,0,0,817,806.683Z" transform="translate(-673.793 -634.421)" fill="#1e85f1"/>
    <path id="Path_11239" data-name="Path 11239" d="M335,764h64.376" transform="translate(-242.494 -597.734)" fill="#1e85f1"/>
    <path id="Path_11240" data-name="Path 11240" d="M385.953,422.071H321.578a1.052,1.052,0,0,1,0-2.1h64.376a1.052,1.052,0,0,1,0,2.1Zm-2.419,16.2H323.787a3.787,3.787,0,0,1,0-7.574h59.747a3.787,3.787,0,1,1,0,7.574Zm-59.747-5.47a1.683,1.683,0,0,0,0,3.366h59.747a1.683,1.683,0,1,0,0-3.366ZM353.713,416a17.651,17.651,0,1,1,17.651-17.651A17.674,17.674,0,0,1,353.713,416Zm0-33.2a15.547,15.547,0,1,0,15.547,15.547A15.564,15.564,0,0,0,353.713,382.8Z" transform="translate(-229.072 -254.753)" fill="#1e85f1"/>
    <path id="Path_11241" data-name="Path 11241" d="M578.358,457.3l-6.206-.01a1.052,1.052,0,0,1,0-2.1l5.144.01v-9.141a1.052,1.052,0,1,1,2.1,0l.011,10.193a1.086,1.086,0,0,1-.305.747A1.106,1.106,0,0,1,578.358,457.3Z" transform="translate(-453.759 -312.289)" fill="#1e85f1"/>
    <path id="Path_11242" data-name="Path 11242" d="M645.425,552.833a1.019,1.019,0,0,1-.589-.179l-10.792-7.248a1.053,1.053,0,1,1,1.178-1.746l10.792,7.247a1.051,1.051,0,0,1,.284,1.462A1.064,1.064,0,0,1,645.425,552.833Z" transform="translate(-509.665 -400.409)" fill="#1e85f1"/>
  </g>
</svg>
