<svg xmlns="http://www.w3.org/2000/svg" width="91.706" height="85.128" viewBox="0 0 91.706 85.128">
  <g id="payment_p_atd" transform="translate(-645.048 -417.702)">
    <path id="team-attendance" d="M77.306,92.527a.9.9,0,0,0,.633.234.88.88,0,0,0,.62-.275L80.371,90.6l-.007-.014,8.545-8.828a.836.836,0,0,0,.241-.62.853.853,0,0,0-.282-.6l-1.515-1.46a1.145,1.145,0,0,0-.73-.234.676.676,0,0,0-.516.269L82.842,82.8,81.4,84.422C80.412,85.5,78.112,87.9,77.671,87.9s-1.012-.716-1.177-.868l-1.921-1.763a.919.919,0,0,0-.64-.234.893.893,0,0,0-.62.275l-1.2,1.253a.857.857,0,0,0,.034,1.226l5.165,4.737Zm24.727,0a.9.9,0,0,0,.633.234.88.88,0,0,0,.62-.275L105.1,90.6l-.014-.014,8.545-8.828a.836.836,0,0,0,.241-.62.846.846,0,0,0-.275-.6l-1.515-1.46a1.164,1.164,0,0,0-.737-.234.676.676,0,0,0-.516.269l-4.7,5.309c-1,1.081-3.3,3.477-3.739,3.477s-1.012-.716-1.177-.868L99.3,85.269a.9.9,0,0,0-.633-.234.893.893,0,0,0-.62.275l-1.212,1.253a.849.849,0,0,0,.041,1.226l5.158,4.737Zm23.839,0a.9.9,0,0,0,.633.234.88.88,0,0,0,.62-.275l1.818-1.894-.014-.014,8.545-8.828a.836.836,0,0,0,.241-.62.849.849,0,0,0-.275-.606l-1.515-1.46a1.158,1.158,0,0,0-.73-.234.7.7,0,0,0-.523.269l-4.7,5.309c-1,1.074-3.3,3.477-3.739,3.477s-1.012-.716-1.177-.868l-1.921-1.763a.9.9,0,0,0-1.253.041l-1.212,1.26a.835.835,0,0,0-.241.62.877.877,0,0,0,.275.606l5.165,4.744ZM77.051,110.134a.9.9,0,0,0,.634.234.88.88,0,0,0,.62-.275l1.818-1.894-.007-.007,8.545-8.828a.835.835,0,0,0,.241-.62.849.849,0,0,0-.275-.606l-1.515-1.46a1.217,1.217,0,0,0-.737-.227.7.7,0,0,0-.523.269l-4.7,5.309c-.991,1.081-3.291,3.477-3.732,3.477s-1.012-.716-1.178-.868l-1.928-1.763a.9.9,0,0,0-1.253.041l-1.205,1.253a.836.836,0,0,0-.241.62.849.849,0,0,0,.275.606l5.158,4.737Zm0,17.69a.9.9,0,0,0,.634.234.88.88,0,0,0,.62-.275l1.818-1.894-.014-.014,8.545-8.828a.857.857,0,0,0-.034-1.226l-1.515-1.46a1.158,1.158,0,0,0-.73-.234.676.676,0,0,0-.516.269l-4.7,5.309c-1,1.074-3.3,3.477-3.739,3.477s-1.012-.716-1.178-.868l-1.921-1.763a.977.977,0,0,0-.64-.22.893.893,0,0,0-.62.275l-1.212,1.26a.835.835,0,0,0-.241.62.855.855,0,0,0,.282.606l5.158,4.731Zm24.734-17.69a.9.9,0,0,0,.633.234.88.88,0,0,0,.62-.275l1.818-1.894-.014-.007,8.545-8.828a.836.836,0,0,0,.241-.62.853.853,0,0,0-.282-.6l-1.515-1.46a1.145,1.145,0,0,0-.73-.234.676.676,0,0,0-.516.269l-4.7,5.309c-1,1.081-3.3,3.477-3.739,3.477s-1.012-.716-1.177-.868l-1.921-1.763a.9.9,0,0,0-.633-.234.89.89,0,0,0-.62.269l-1.212,1.26a.836.836,0,0,0-.241.62.855.855,0,0,0,.282.606Zm23.839,0a.9.9,0,0,0,.633.234.88.88,0,0,0,.62-.275L128.7,108.2l-.014-.014,8.545-8.828a.836.836,0,0,0,.241-.62.849.849,0,0,0-.275-.606l-1.515-1.46a1.159,1.159,0,0,0-.73-.234.7.7,0,0,0-.523.269l-4.7,5.323c-1,1.074-3.3,3.477-3.739,3.477s-1.012-.716-1.178-.868l-1.921-1.763a.9.9,0,0,0-1.253.041l-1.212,1.26a.835.835,0,0,0-.241.62.877.877,0,0,0,.275.606l5.164,4.731Zm1.315,7.492c-1.942,0-3.491-.007-3.491-.007v9.868s1.549-.007,3.491-.007h2.809c1.942,0,3.56.007,3.56.007v-9.868s-1.618.007-3.56.007Zm-28.156-.007v9.861s1.577-.007,3.519-.007h2.809c1.942,0,3.532.007,3.532.007l-.014-6.335c0-1.942.014-3.526.014-3.526H98.783Z" transform="translate(586.346 360.919)" fill="#1e85f1"/>
    <path id="Path_11263" data-name="Path 11263" d="M185.721,205.495H101.8c-1.538,0-2.8-.956-2.8-2.124v-41.1a1.451,1.451,0,0,1,2.8,0v41.1h83.925a1.1,1.1,0,1,1,0,2.124Zm3.588-.792a1.269,1.269,0,0,1-1.4-1.062V130.724H176.042a1.1,1.1,0,1,1,0-2.124H187.91c1.538,0,2.8.956,2.8,2.124v72.917A1.269,1.269,0,0,1,189.308,204.7ZM100.4,150.267A1.269,1.269,0,0,1,99,149.2v-18.48c0-1.168,1.258-2.124,2.8-2.124h11.771a1.1,1.1,0,1,1,0,2.124H101.8V149.2A1.269,1.269,0,0,1,100.4,150.267Zm62.643-19.542H126.358a1.1,1.1,0,1,1,0-2.124h36.7a1.269,1.269,0,0,1,1.4,1.062C164.453,130.246,163.823,130.724,163.041,130.724Z" transform="translate(546.048 297.335)" fill="#1e85f1"/>
    <path id="Path_11264" data-name="Path 11264" d="M15123.437,5454.5v13.466" transform="translate(-14459.059 -5035.299)" fill="none" stroke="#1e85f1" stroke-linecap="round" stroke-width="3"/>
    <path id="Path_11265" data-name="Path 11265" d="M15123.437,5454.5v13.466" transform="translate(-14406.391 -5035.299)" fill="none" stroke="#1e85f1" stroke-linecap="round" stroke-width="3"/>
  </g>
</svg>
