<svg xmlns="http://www.w3.org/2000/svg" width="85.799" height="91.406" viewBox="0 0 85.799 91.406">
  <g id="d_leave" transform="translate(-92 -64.6)">
    <path id="Path_11243" data-name="Path 11243" d="M138.5,202.55H101.043A2.049,2.049,0,0,1,99,200.508V160.979a1.021,1.021,0,0,1,2.043,0v39.529H138.5a1.021,1.021,0,1,1,0,2.043Zm26.485-40.734a1.024,1.024,0,0,1-1.021-1.021V130.643H155.29a1.021,1.021,0,0,1,0-2.043h8.672A2.049,2.049,0,0,1,166,130.643v30.152a1.024,1.024,0,0,1-1.021,1.021Zm-64.962-12.38A1.024,1.024,0,0,1,99,148.415V130.643a2.049,2.049,0,0,1,2.043-2.043h8.6a1.021,1.021,0,1,1,0,2.043h-8.6v17.773A1.024,1.024,0,0,1,100.021,149.437Zm45.77-18.794h-26.8a1.021,1.021,0,0,1,0-2.043H145.8a1.021,1.021,0,1,1-.01,2.043Z" transform="translate(-6.285 -57.463)" fill="#1e85f1"/>
    <path id="Path_11244" data-name="Path 11244" d="M93.634,371.234m-1.634,0a1.634,1.634,0,1,0,1.634-1.634A1.634,1.634,0,0,0,92,371.234Z" transform="translate(0 -273.847)" fill="#1e85f1"/>
    <path id="Path_11245" data-name="Path 11245" d="M238.814,77.674a3.067,3.067,0,0,1-3.064-3.064V67.664a3.069,3.069,0,0,1,3.064-3.064h4.494a3.067,3.067,0,0,1,3.064,3.064V74.61a3.069,3.069,0,0,1-3.064,3.064Zm0-11.031a1.011,1.011,0,0,0-1.021,1.021V74.61a1.024,1.024,0,0,0,1.021,1.021h4.494a1.011,1.011,0,0,0,1.021-1.021V67.664a1.024,1.024,0,0,0-1.021-1.021Zm-35.75,11.031A3.067,3.067,0,0,1,200,74.61V67.664a3.067,3.067,0,0,1,3.064-3.064h4.494a3.073,3.073,0,0,1,3.064,3.064V74.61a3.073,3.073,0,0,1-3.064,3.064Zm0-11.031a1.024,1.024,0,0,0-1.021,1.021V74.61a1.024,1.024,0,0,0,1.021,1.021h4.494a1.024,1.024,0,0,0,1.021-1.021V67.664a1.024,1.024,0,0,0-1.021-1.021Z" transform="translate(-96.969)" fill="#1e85f1"/>
    <path id="Path_11246" data-name="Path 11246" d="M101,255.6h65.064" transform="translate(-8.081 -171.491)" fill="#1e85f1"/>
    <path id="Path_11247" data-name="Path 11247" d="M101,245.6h65.064v2.043H101Zm45.269,52.879H110.857a1.463,1.463,0,0,1-1.021-.419,1.42,1.42,0,0,1-.419-1.021V256.172a1.447,1.447,0,0,1,1.44-1.45H157.75a1.445,1.445,0,0,1,1.44,1.44v9.05a1.021,1.021,0,1,1-2.043,0v-8.437h-45.7v39.661h34.82a1.021,1.021,0,1,1,0,2.043ZM111.449,256.172Z" transform="translate(-8.081 -162.512)" fill="#1e85f1"/>
    <path id="Path_11248" data-name="Path 11248" d="M197.8,448.62l35.668-.02" transform="translate(-94.993 -344.778)" fill="#1e85f1"/>
    <path id="Path_11249" data-name="Path 11249" d="M188.821,440.663a1.021,1.021,0,1,1,0-2.043l35.668-.02a1.021,1.021,0,1,1,0,2.043Z" transform="translate(-86.015 -335.799)" fill="#1e85f1"/>
    <path id="Path_11250" data-name="Path 11250" d="M197.8,552.6h35.443" transform="translate(-94.993 -438.155)" fill="#1e85f1"/>
    <path id="Path_11251" data-name="Path 11251" d="M224.264,544.643H188.821a1.021,1.021,0,1,1,0-2.043h35.443a1.021,1.021,0,1,1,0,2.043Z" transform="translate(-86.015 -429.176)" fill="#1e85f1"/>
    <path id="Path_11252" data-name="Path 11252" d="M197.8,656.5h35.443" transform="translate(-94.993 -531.442)" fill="#1e85f1"/>
    <path id="Path_11253" data-name="Path 11253" d="M224.264,648.543H188.821a1.021,1.021,0,1,1,0-2.043h35.443a1.021,1.021,0,1,1,0,2.043Z" transform="translate(-86.015 -522.464)" fill="#1e85f1"/>
    <path id="Path_11254" data-name="Path 11254" d="M303.6,351v40.468" transform="translate(-189.987 -257.147)" fill="#1e85f1"/>
    <path id="Path_11255" data-name="Path 11255" d="M294.621,383.511a1.024,1.024,0,0,1-1.021-1.021V342.021a1.021,1.021,0,1,1,2.043,0V382.49A1.024,1.024,0,0,1,294.621,383.511Z" transform="translate(-181.008 -248.168)" fill="#1e85f1"/>
    <path id="Path_11256" data-name="Path 11256" d="M427,351v40.468" transform="translate(-300.783 -257.147)" fill="#1e85f1"/>
    <path id="Path_11257" data-name="Path 11257" d="M418.021,383.511A1.024,1.024,0,0,1,417,382.49V342.021a1.021,1.021,0,0,1,2.043,0V382.49A1.024,1.024,0,0,1,418.021,383.511Z" transform="translate(-291.804 -248.168)" fill="#1e85f1"/>
    <path id="Path_11258" data-name="Path 11258" d="M546.7,351v40.468" transform="translate(-408.256 -257.147)" fill="#1e85f1"/>
    <path id="Path_11259" data-name="Path 11259" d="M537.721,383.511a1.024,1.024,0,0,1-1.021-1.021V342.021a1.021,1.021,0,0,1,2.043,0V382.49A1.018,1.018,0,0,1,537.721,383.511Z" transform="translate(-399.278 -248.168)" fill="#1e85f1"/>
    <path id="Path_11260" data-name="Path 11260" d="M543.093,489.73h-.041a1,1,0,0,1-.7-.327c-.021-.02-1.593-1.747-3.156-3.524-3.391-3.881-3.391-4.239-3.391-4.688V438.537a2.236,2.236,0,0,1,2.237-2.237h35.423a2.236,2.236,0,0,1,2.237,2.237v6.833a1.021,1.021,0,0,1-2.043,0v-6.833a.194.194,0,0,0-.194-.194H538.027a.194.194,0,0,0-.194.194V481a79.071,79.071,0,0,0,5.311,6.272l6.231-5.73a1.015,1.015,0,0,1,1.43.051l5.373,5.689,5.934-5.607a1.024,1.024,0,0,1,1.45.051l4.995,5.465a78.256,78.256,0,0,0,5.066-6.18c0-1.747-.031-15.352-.031-23.319a1.021,1.021,0,1,1,2.043,0c0,8.478.031,23.36.031,23.5,0,.449,0,.8-3.279,4.678-1.512,1.787-3.034,3.514-3.054,3.524a1.072,1.072,0,0,1-.756.347h-.01a1.022,1.022,0,0,1-.756-.337l-5.066-5.546-5.924,5.6a1.017,1.017,0,0,1-.735.276,1.031,1.031,0,0,1-.715-.317l-5.373-5.7-6.251,5.751A.869.869,0,0,1,543.093,489.73ZM573.694,480.905ZM537.781,480.895Z" transform="translate(-398.47 -333.734)" fill="#1e85f1"/>
    <path id="Path_11261" data-name="Path 11261" d="M901.634,574.234m-1.634,0a1.634,1.634,0,1,0,1.634-1.634A1.634,1.634,0,0,0,900,574.234Z" transform="translate(-725.47 -456.112)" fill="#1e85f1"/>
    <path id="Path_11262" data-name="Path 11262" d="M616.079,605.607a.99.99,0,0,1-.735-.317l-6.537-6.843a1.019,1.019,0,0,1,1.471-1.41l5.894,6.169,15.515-12.339a1.025,1.025,0,1,1,1.277,1.6l-16.24,12.921A1.082,1.082,0,0,1,616.079,605.607Z" transform="translate(-463.765 -472.317)" fill="#1e85f1"/>
  </g>
</svg>
