<svg xmlns="http://www.w3.org/2000/svg" width="35" height="35" viewBox="0 0 35 35"><defs><style>.a{fill:none;}.b{fill:#fff;}</style></defs><g transform="translate(-368 -383)"><rect class="a" width="35" height="35" rx="8" transform="translate(368 383)"/><g transform="translate(372 388)"><path class="b" d="M7.886,2.5h7.543a.5.5,0,0,1,.354.146L21.439,8.3a.5.5,0,0,1,.146.354V19.971A2.388,2.388,0,0,1,19.2,22.356H7.886A2.388,2.388,0,0,1,5.5,19.971V4.886A2.388,2.388,0,0,1,7.886,2.5Zm7.335,1H7.886A1.387,1.387,0,0,0,6.5,4.886V19.971a1.387,1.387,0,0,0,1.386,1.386H19.2a1.387,1.387,0,0,0,1.386-1.386V8.864Z"/><path class="b" d="M26.657,9.157H21a.5.5,0,0,1-.5-.5V3a.5.5,0,1,1,1,0V8.157h5.157a.5.5,0,0,1,0,1Z" transform="translate(-5.572)"/><path class="b" d="M19.543,20H12a.5.5,0,0,1,0-1h7.543a.5.5,0,1,1,0,1Z" transform="translate(-2.229 -6.129)"/><path class="b" d="M19.543,26H12a.5.5,0,1,1,0-1h7.543a.5.5,0,1,1,0,1Z" transform="translate(-2.229 -8.358)"/><path class="b" d="M13.886,14H12a.5.5,0,0,1,0-1h1.886a.5.5,0,0,1,0,1Z" transform="translate(-2.229 -3.9)"/></g></g></svg>