<svg xmlns="http://www.w3.org/2000/svg" width="18" height="18" viewBox="0 0 18 18"><defs><style>.a,.b{fill:none;}.b{stroke:#fff;stroke-linecap:round;stroke-linejoin:round;}</style></defs><rect class="a" width="18" height="18"/><g transform="translate(0.5 0.5)"><path class="b" d="M17.394,15.447A1.947,1.947,0,1,1,15.447,13.5,1.947,1.947,0,0,1,17.394,15.447Z" transform="translate(-6.808 -6.808)"/><path class="b" d="M13.441,10.586a1.071,1.071,0,0,0,.214,1.181l.039.039a1.3,1.3,0,1,1-1.837,1.837l-.039-.039a1.08,1.08,0,0,0-1.83.766v.11a1.3,1.3,0,1,1-2.6,0v-.058a1.124,1.124,0,0,0-1.882-.766l-.039.039a1.3,1.3,0,1,1-1.837-1.837l.039-.039a1.08,1.08,0,0,0-.766-1.83H2.8a1.3,1.3,0,1,1,0-2.6h.058a1.124,1.124,0,0,0,.766-1.882l-.039-.039A1.3,1.3,0,1,1,5.42,3.635l.039.039a1.071,1.071,0,0,0,1.181.214h.052a1.071,1.071,0,0,0,.649-.98V2.8a1.3,1.3,0,1,1,2.6,0v.058a1.08,1.08,0,0,0,1.83.766l.039-.039A1.3,1.3,0,1,1,13.643,5.42l-.039.039a1.071,1.071,0,0,0-.214,1.181v.052a1.071,1.071,0,0,0,.98.649h.11a1.3,1.3,0,1,1,0,2.6h-.058a1.071,1.071,0,0,0-.98.649Z" transform="translate(0 0)"/></g></svg>