<svg xmlns="http://www.w3.org/2000/svg" width="35" height="35" viewBox="0 0 35 35">
  <defs>
    <style>
      .cls-1 {
        fill: none;
      }
    </style>
  </defs>
  <g id="Group_4" data-name="Group 4" transform="translate(-1358 -774)">
    <g id="transportation" transform="translate(1358 774)">
      <rect id="Rectangle_1" data-name="Rectangle 1" class="cls-1" width="35" height="35" rx="8"/>
      <g id="Group_2" data-name="Group 2" transform="translate(-368 -514)">
        <rect id="Rectangle_2" data-name="Rectangle 2" class="cls-1" width="25" height="25" transform="translate(373 519)"/>
        <g id="Group_1" data-name="Group 1" transform="translate(373.24 516.588)">
          <path id="Path_1" data-name="Path 1" class="cls-1" d="M10.259,13.888H1.564a.421.421,0,0,1-.462-.4l.016-.094.463-2.974c.039-.21.227.005.454.005H9.789c.225,0,.415-.2.453.006l.464,3.169.016-.019C10.722,13.824,10.512,13.888,10.259,13.888Zm-.348,3.748a.864.864,0,1,1,.884-.867.877.877,0,0,1-.884.867Zm-8.011,0a.864.864,0,1,1,.864-.864.864.864,0,0,1-.864.864Zm1.071-9.69H8.419V9.431H2.971C2.476,9.431,2.476,7.946,2.971,7.946ZM11.24,9.284c-.158-.764-.7-1.071-1.455-1.378a12.786,12.786,0,0,0-3.857-.673,12.737,12.737,0,0,0-3.852.673c-.755.308-1.3.615-1.463,1.378L0,13.536v5.8H.884c0,2.476,1.664,2.476,1.664,0H9.2c0,2.476,1.664,2.476,1.664,0h1.017v-5.8Zm10.925,10.1-.04-.072.02-.027.02-.027a4.711,4.711,0,0,0,1.009-.565,1.625,1.625,0,0,0,.564-.99,1.711,1.711,0,0,0,.032-.348v-9a1.311,1.311,0,0,0-.149-.671,2.514,2.514,0,0,0-.461-.627,3.134,3.134,0,0,0-.708-.462,4.04,4.04,0,0,0-.664-.176V6.46H15.351V6.424c-.5.023-.374.074-.546.157a2.954,2.954,0,0,0-.683.443,2.611,2.611,0,0,0-.525.6,1.408,1.408,0,0,0-.227.667V17.43a1.235,1.235,0,0,0,.135.481,2.459,2.459,0,0,0,.3.469,2.949,2.949,0,0,0,.382.406,2.54,2.54,0,0,0,.4.3c.062.026.177.066.339.117s.233.079.221.1l-2.639,4h1.538l1.924-2.971h5.31L23.2,23.3h1.56l-2.6-3.915ZM17.707,6.955H19.47c.388,0,.706.107.706.5s-.318.5-.706.5H17.707c-.388,0-.706-.107-.706-.5S17.319,6.955,17.707,6.955Zm4.577,4.532A1.41,1.41,0,0,1,20.873,12.9h-5.1a1.41,1.41,0,0,1-1.411-1.411v-1.14a1.41,1.41,0,0,1,1.411-1.41h5.1a1.41,1.41,0,0,1,1.41,1.411ZM16.4,17.758a.991.991,0,0,1-.74.307.934.934,0,0,1-.723-.307,1.082,1.082,0,0,1-.278-.752.971.971,0,0,1,.29-.7.95.95,0,0,1,.712-.3,1.056,1.056,0,0,1,.74.278.971.971,0,0,1,.3.743,1.014,1.014,0,0,1-.3.731Zm4.4,0a1.041,1.041,0,0,1-.3-.752.918.918,0,0,1,.318-.723A1.105,1.105,0,0,1,21.56,16a.945.945,0,0,1,.721.3.994.994,0,0,1,.279.7,1.061,1.061,0,0,1-.289.752.962.962,0,0,1-.732.307.98.98,0,0,1-.739-.307Z"/>
          <path id="Path_2" data-name="Path 2" d="M15.2,6.936l-.02,0a.907.907,0,0,1-.153.093,2.432,2.432,0,0,0-.568.365,2.21,2.21,0,0,0-.424.478,1.082,1.082,0,0,0-.163.421v1.859a1.913,1.913,0,0,1,1.9-1.718H17.5a.967.967,0,0,1-1-.986,1.036,1.036,0,0,1,.123-.49H15.351a.5.5,0,0,1-.154-.024m6.727.019a.5.5,0,0,1-.068,0h-1.3a1.036,1.036,0,0,1,.123.49.967.967,0,0,1-1,.986h1.195a1.91,1.91,0,0,1,1.91,1.911v1.14a1.91,1.91,0,0,1-1.91,1.911h-5.1a1.911,1.911,0,0,1-1.9-1.717v5.75a1,1,0,0,0,.09.273,1.975,1.975,0,0,0,.238.368l0,.006a2.444,2.444,0,0,0,.32.338,2.1,2.1,0,0,0,.287.22c.04.015.118.043.268.09a.726.726,0,0,1,.526.371.513.513,0,0,1-.006.422.491.491,0,0,1-.035.063L13.437,22.8h.337l1.776-2.743a.5.5,0,0,1,.42-.228h5.31a.5.5,0,0,1,.42.228L23.474,22.8h.355l-2.081-3.139c-.007-.011-.014-.023-.021-.035l-.04-.072a.5.5,0,0,1,.034-.536l.04-.055a.5.5,0,0,1,.216-.169,4.217,4.217,0,0,0,.9-.5,1.145,1.145,0,0,0,.374-.7,1.286,1.286,0,0,0,.02-.24v-9a.826.826,0,0,0-.087-.43,2.012,2.012,0,0,0-.368-.507,2.769,2.769,0,0,0-.59-.379,1.51,1.51,0,0,0-.3-.081m-.381,11.609a1.485,1.485,0,0,1-1.093-.458A1.55,1.55,0,0,1,20.01,17a1.424,1.424,0,0,1,.486-1.091,1.6,1.6,0,0,1,1.065-.4h.009a1.447,1.447,0,0,1,1.086.458,1.5,1.5,0,0,1,.414,1.042,1.57,1.57,0,0,1-.426,1.1,1.478,1.478,0,0,1-1.1.464m-5.875-3.059a1.561,1.561,0,0,1,1.074.411l0,0a1.462,1.462,0,0,1,.454,1.106,1.521,1.521,0,0,1-.439,1.079,1.5,1.5,0,0,1-1.1.459,1.44,1.44,0,0,1-1.094-.471,1.591,1.591,0,0,1-.408-1.087,1.478,1.478,0,0,1,.429-1.047,1.457,1.457,0,0,1,1.078-.454M8.919,8.154V9.431a.5.5,0,0,1-.4.49H9.78c.016,0,.049-.016.071-.024a.868.868,0,0,1,.3-.065.585.585,0,0,1,.579.505l0,.017.441,3.018a.5.5,0,0,1,.044.2c0,.135-.046.811-.963.811H1.564a.914.914,0,0,1-.962-.9A.5.5,0,0,1,.609,13.4l.015-.091.463-2.971,0-.014a.581.581,0,0,1,.574-.5.838.838,0,0,1,.315.072c.021.008.052.021.068.025h.8C2.4,9.849,2.1,9.372,2.1,8.688a2.1,2.1,0,0,1,.016-.257c-.611.261-.909.479-1.01.941L.5,13.572v5.264H.884a.5.5,0,0,1,.5.5c0,.909.238,1.269.332,1.346.094-.077.332-.437.332-1.346a.5.5,0,0,1,.5-.5H9.2a.5.5,0,0,1,.5.5c0,.909.238,1.269.332,1.346.094-.077.332-.437.332-1.346a.5.5,0,0,1,.5-.5h.517V13.574l-.637-4.2c-.1-.455-.359-.682-1.151-1a5.87,5.87,0,0,0-.678-.215M1.9,18.136A1.364,1.364,0,1,1,3.288,16.77,1.376,1.376,0,0,1,1.9,18.136m8.011,0a1.364,1.364,0,1,1,1.384-1.367,1.378,1.378,0,0,1-1.384,1.367M21.789,6.416a4.041,4.041,0,0,1,.664.176,3.132,3.132,0,0,1,.708.462,2.516,2.516,0,0,1,.461.627,1.311,1.311,0,0,1,.149.671v9a1.711,1.711,0,0,1-.032.348,1.625,1.625,0,0,1-.564.99,4.707,4.707,0,0,1-1.009.565l-.04.055.04.072h0l2.6,3.915H23.2L21.28,20.326H15.97L14.046,23.3H12.508l2.635-3.992c.012-.025-.063-.054-.221-.1s-.277-.091-.339-.117a2.546,2.546,0,0,1-.4-.3,2.944,2.944,0,0,1-.382-.406,2.456,2.456,0,0,1-.3-.469,1.234,1.234,0,0,1-.135-.481V8.3a1.408,1.408,0,0,1,.227-.667,2.609,2.609,0,0,1,.525-.6,2.954,2.954,0,0,1,.683-.443c.171-.083.05-.135.546-.157V6.46h6.438Zm-2.319,1.53c.388,0,.706-.107.706-.5s-.318-.5-.706-.5H17.707c-.388,0-.706.107-.706.5s.317.5.706.5Zm1.4,4.952a1.41,1.41,0,0,0,1.41-1.411v-1.14a1.41,1.41,0,0,0-1.41-1.411h-5.1a1.41,1.41,0,0,0-1.41,1.41v1.14a1.41,1.41,0,0,0,1.41,1.411h5.1Zm.67,5.166a.967.967,0,0,0,.737-.307,1.061,1.061,0,0,0,.289-.752.994.994,0,0,0-.279-.7.955.955,0,0,0-.729-.3,1.105,1.105,0,0,0-.733.278.918.918,0,0,0-.318.722,1.041,1.041,0,0,0,.3.752A.979.979,0,0,0,21.544,18.064Zm-5.88,0a.991.991,0,0,0,.74-.307,1.014,1.014,0,0,0,.3-.731.971.971,0,0,0-.3-.743,1.056,1.056,0,0,0-.74-.278.95.95,0,0,0-.712.3.971.971,0,0,0-.29.7,1.082,1.082,0,0,0,.278.752A.934.934,0,0,0,15.664,18.065ZM5.928,7.233a12.786,12.786,0,0,1,3.857.673c.756.308,1.3.615,1.455,1.378l.645,4.252v5.8H10.868c0,2.476-1.664,2.476-1.664,0H2.548c0,2.476-1.664,2.476-1.664,0H0v-5.8L.613,9.284c.158-.764.708-1.071,1.463-1.378A12.737,12.737,0,0,1,5.928,7.233Zm2.49,2.2V7.946H2.971c-.5,0-.5,1.486,0,1.486Zm1.37.99H2.035c-.227,0-.415-.215-.454-.005L1.1,13.484a.421.421,0,0,0,.462.4h8.694c.253,0,.463-.064.463-.311l-.016.019-.464-3.169C10.2,10.218,10.014,10.422,9.789,10.422ZM1.9,17.636a.864.864,0,1,0,0-1.728.864.864,0,1,0,0,1.728Zm8.011,0a.864.864,0,1,0-.887-.867A.875.875,0,0,0,9.911,17.636Z"/>
        </g>
      </g>
    </g>
  </g>
</svg>
