<svg xmlns="http://www.w3.org/2000/svg" width="35" height="35" viewBox="0 0 35 35"><defs><style>.a,.b{fill:none;}.b{stroke-linecap:round;stroke-linejoin:round;}.c,.d{stroke:none;}.d{fill:#fff;}</style></defs><rect class="a" width="35" height="35" rx="8"/><g transform="translate(-368 -514)"><rect class="a" width="25" height="25" transform="translate(373 519)"/><g class="b" transform="translate(373.24 516.588)"><path class="c" d="M10.259,13.888H1.564a.421.421,0,0,1-.462-.4l.016-.094.463-2.974c.039-.21.227.005.454.005H9.789c.225,0,.415-.2.453.006l.464,3.169.016-.019C10.722,13.824,10.512,13.888,10.259,13.888Zm-.348,3.748a.864.864,0,1,1,.884-.867A.877.877,0,0,1,9.911,17.636Zm-8.011,0a.864.864,0,1,1,0-1.728.864.864,0,1,1,0,1.728ZM2.971,7.946H8.419V9.431H2.971C2.476,9.431,2.476,7.946,2.971,7.946ZM11.24,9.284c-.158-.764-.7-1.071-1.455-1.378a12.786,12.786,0,0,0-3.857-.673,12.737,12.737,0,0,0-3.852.673c-.755.308-1.3.615-1.463,1.378L0,13.536v5.8H.884c0,2.476,1.664,2.476,1.664,0H9.2c0,2.476,1.664,2.476,1.664,0h1.017v-5.8L11.24,9.284Zm10.925,10.1-.04-.072.02-.027.02-.027a4.711,4.711,0,0,0,1.009-.565,1.625,1.625,0,0,0,.564-.99,1.711,1.711,0,0,0,.032-.348v-9a1.311,1.311,0,0,0-.149-.671,2.514,2.514,0,0,0-.461-.627,3.134,3.134,0,0,0-.708-.462,4.04,4.04,0,0,0-.664-.176V6.46H15.351V6.424c-.5.023-.374.074-.546.157a2.954,2.954,0,0,0-.683.443,2.611,2.611,0,0,0-.525.6,1.408,1.408,0,0,0-.227.667V17.43a1.235,1.235,0,0,0,.135.481,2.459,2.459,0,0,0,.3.469,2.949,2.949,0,0,0,.382.406,2.54,2.54,0,0,0,.4.3c.062.026.177.066.339.117s.233.079.221.1L12.508,23.3h1.538l1.924-2.971h5.31L23.2,23.3H24.76l-2.6-3.915ZM17.707,6.955h1.763c.388,0,.706.107.706.5s-.318.5-.706.5H17.707c-.388,0-.706-.107-.706-.5S17.319,6.955,17.707,6.955Zm4.577,4.532A1.41,1.41,0,0,1,20.873,12.9h-5.1a1.41,1.41,0,0,1-1.411-1.411v-1.14a1.41,1.41,0,0,1,1.411-1.41h5.1a1.41,1.41,0,0,1,1.41,1.411ZM16.4,17.758a.991.991,0,0,1-.74.307.934.934,0,0,1-.723-.307,1.082,1.082,0,0,1-.278-.752.971.971,0,0,1,.29-.7.95.95,0,0,1,.712-.3,1.056,1.056,0,0,1,.74.278.971.971,0,0,1,.3.743,1.014,1.014,0,0,1-.3.731Zm4.4,0a1.041,1.041,0,0,1-.3-.752.918.918,0,0,1,.318-.723,1.105,1.105,0,0,1,.742-.278.945.945,0,0,1,.721.3.994.994,0,0,1,.279.7,1.061,1.061,0,0,1-.289.752.962.962,0,0,1-.732.307.98.98,0,0,1-.739-.307Z"/><path class="d" d="M 15.197678565979 6.935920715332031 C 15.19010353088379 6.936714172363281 15.18340110778809 6.937480926513672 15.17749881744385 6.938207626342773 C 15.14213371276855 6.964967727661133 15.0924596786499 6.998392105102539 15.02478313446045 7.031257629394531 C 14.78844356536865 7.146476745605469 14.59802341461182 7.268947601318359 14.45727348327637 7.396677017211914 C 14.32462310791016 7.516057968139648 14.13616275787354 7.695858001708984 14.03333282470703 7.874897003173828 C 13.96346282958984 7.998716354370117 13.87057304382324 8.177057266235352 13.87057304382324 8.295726776123047 L 13.87057304382324 10.15431594848633 C 13.96718883514404 9.190776824951172 14.78280067443848 8.436027526855469 15.7718334197998 8.436027526855469 L 17.49874496459961 8.436027526855469 C 16.57732582092285 8.347314834594727 16.50143432617188 7.668458938598633 16.50143432617188 7.450407028198242 C 16.50143432617188 7.350231170654297 16.5174446105957 7.15278434753418 16.62409782409668 6.959997177124023 L 15.35140323638916 6.959997177124023 C 15.29777336120605 6.959997177124023 15.24610805511475 6.95155143737793 15.197678565979 6.935920715332031 M 21.9243335723877 6.955358505249023 C 21.9019660949707 6.958419799804688 21.87915229797363 6.959997177124023 21.85594367980957 6.959997177124023 L 20.55353927612305 6.959997177124023 C 20.66019058227539 7.15278434753418 20.67620277404785 7.350231170654297 20.67620277404785 7.450407028198242 C 20.67620277404785 7.668458938598633 20.60031127929688 8.347314834594727 19.67889213562012 8.436027526855469 L 20.87394332885742 8.436027526855469 C 21.38434219360352 8.436027526855469 21.8641529083252 8.634817123413086 22.22500228881836 8.995786666870117 C 22.58584213256836 9.356758117675781 22.78447341918945 9.836637496948242 22.78429412841797 10.34686660766602 L 22.78429412841797 11.48666763305664 C 22.78447341918945 11.99705696105957 22.58584213256836 12.47694778442383 22.2249927520752 12.83791732788086 C 21.86414337158203 13.19888687133789 21.38434219360352 13.39767646789551 20.87397384643555 13.39767646789551 L 15.77131366729736 13.39767646789551 C 15.26091289520264 13.39767646789551 14.78110313415527 13.19888687133789 14.42027282714844 12.83793640136719 C 14.10550689697266 12.52305793762207 13.91418170928955 12.11770057678223 13.87057304382324 11.68063163757324 L 13.87057304382324 17.43030738830566 C 13.87057304382324 17.49899673461914 13.9356107711792 17.6472225189209 13.9603271484375 17.70282363891602 C 14.01319599151611 17.81454849243164 14.09093761444092 17.93503189086914 14.19788360595703 18.07100677490234 C 14.1993932723999 18.07291793823242 14.20087337493896 18.07484817504883 14.20235347747803 18.07677841186523 C 14.28686332702637 18.1875171661377 14.39072322845459 18.29745864868164 14.52198314666748 18.41478729248047 C 14.61894035339355 18.50243759155273 14.71518135070801 18.57643127441406 14.80855655670166 18.6351490020752 C 14.84820938110352 18.65011596679688 14.92667007446289 18.67774963378906 15.07663345336914 18.72499847412109 C 15.2949333190918 18.79570770263672 15.50113296508789 18.86250686645508 15.60229301452637 19.09600830078125 C 15.66083335876465 19.23112678527832 15.65846347808838 19.38497734069824 15.59580326080322 19.51809692382812 C 15.58560276031494 19.53975677490234 15.57386302947998 19.5606575012207 15.56067276000977 19.58063697814941 L 13.43716716766357 22.79701614379883 L 13.7741641998291 22.79701614379883 L 15.55074310302734 20.0539665222168 C 15.64290332794189 19.91167831420898 15.80088329315186 19.82577705383301 15.97041320800781 19.82577705383301 L 21.28001403808594 19.82577705383301 C 21.44962310791016 19.82577705383301 21.60767364501953 19.91176605224609 21.69981384277344 20.05416679382324 L 23.47443580627441 22.79701614379883 L 23.82897186279297 22.79701614379883 L 21.74819374084473 19.65818786621094 C 21.74070358276367 19.64688682556152 21.73368263244629 19.63528823852539 21.72713279724121 19.62341690063477 L 21.68752288818359 19.55160713195801 C 21.59381294250488 19.38170623779297 21.60684394836426 19.17294692993164 21.72096252441406 19.01602745056152 L 21.76063346862793 18.96148681640625 C 21.81535339355469 18.88627624511719 21.88997268676758 18.82780838012695 21.97609329223633 18.79267692565918 C 22.29522514343262 18.66249465942383 22.59795379638672 18.49313926696777 22.87589263916016 18.2893180847168 C 23.05158424377441 18.1563835144043 23.16376495361328 17.94751739501953 23.24993896484375 17.59265327453613 C 23.26301193237305 17.52581405639648 23.26991271972656 17.44300842285156 23.26991271972656 17.35255813598633 L 23.26991271972656 8.352176666259766 C 23.26991271972656 8.182746887207031 23.25559234619141 8.052097320556641 23.18313407897949 7.922327041625977 C 23.05618286132812 7.692358016967773 22.94599342346191 7.540647506713867 22.81478309631348 7.415136337280273 C 22.66293334960938 7.269956588745117 22.40483283996582 7.12940788269043 22.2243824005127 7.036567687988281 C 22.18215560913086 7.014892578125 22.08145332336426 6.987655639648438 21.9243335723877 6.955358505249023 M 21.5436840057373 18.56417846679688 C 21.11798858642578 18.56417846679688 20.73994064331055 18.40571022033691 20.45032691955566 18.10592651367188 C 20.1633129119873 17.81306838989258 20.00303649902344 17.41071701049805 20.00997161865234 17.00075912475586 C 20.01129913330078 16.56726455688477 20.17942428588867 16.18985939025879 20.49613380432129 15.90932750701904 C 20.79007339477539 15.64863681793213 21.16834259033203 15.50506687164307 21.56124305725098 15.50506687164307 L 21.5697135925293 15.50509738922119 C 21.99968338012695 15.50509738922119 22.37511253356934 15.66348743438721 22.65546417236328 15.96321678161621 C 22.92635345458984 16.2529468536377 23.06953239440918 16.61332702636719 23.06953239440918 17.00541687011719 C 23.06953239440918 17.42464828491211 22.92278289794922 17.80282592773438 22.64384269714355 18.10044860839844 C 22.35693168640137 18.40423202514648 21.9751091003418 18.56369590759277 21.5436840057373 18.56417846679688 M 15.66885280609131 15.5056037902832 C 16.08169746398926 15.50674343109131 16.45314788818359 15.6487398147583 16.74327278137207 15.91641712188721 C 16.74490356445312 15.91792678833008 16.74652290344238 15.91943740844727 16.74813461303711 15.92096710205078 C 17.04951286315918 16.20655822753906 17.20232391357422 16.57858657836914 17.20232391357422 17.02670669555664 C 17.20232391357422 17.43670654296875 17.05038261413574 17.80989837646484 16.76335334777832 18.10551834106445 C 16.47239303588867 18.40589714050293 16.09220314025879 18.56466674804688 15.66387271881104 18.56466674804688 C 15.22967338562012 18.56466674804688 14.85181331634521 18.40217590332031 14.56976318359375 18.09325790405273 C 14.30305290222168 17.79873657226562 14.16207313537598 17.42273712158203 14.16207313537598 17.00591659545898 C 14.16207313537598 16.61021423339844 14.31032180786133 16.24835395812988 14.59080219268799 15.95920276641846 C 14.86919021606445 15.66481971740723 15.26360034942627 15.4987678527832 15.66885280609131 15.5056037902832 M 8.918513298034668 8.15447998046875 L 8.918513298034668 9.43122673034668 C 8.918513298034668 9.673860549926758 8.745676040649414 9.876132965087891 8.516408920288086 9.921648025512695 L 9.779864311218262 9.921648025512695 C 9.795661926269531 9.91796875 9.828712463378906 9.905988693237305 9.851202964782715 9.8978271484375 C 9.926982879638672 9.870357513427734 10.03075313568115 9.832727432250977 10.15496349334717 9.832696914672852 C 10.39737319946289 9.832696914672852 10.67037296295166 9.989007949829102 10.73381328582764 10.33821678161621 C 10.73483276367188 10.3438663482666 10.73576354980469 10.34953689575195 10.73660278320312 10.35521697998047 L 11.17805004119873 13.37321281433105 C 11.20628452301025 13.43621444702148 11.22171306610107 13.5056037902832 11.22171306610107 13.57759666442871 C 11.22171306610107 13.7129373550415 11.17528343200684 14.38808727264404 10.25870323181152 14.38808727264404 L 1.564353942871094 14.38808727264404 C 1.015913009643555 14.38808727264404 0.6023330688476562 13.99962711334229 0.6023330688476562 13.4844970703125 C 0.6023330688476562 13.45668792724609 0.6046524047851562 13.42891693115234 0.6092739105224609 13.40148735046387 L 0.6245765686035156 13.31058311462402 L 1.087142944335938 10.33928680419922 C 1.087852478027344 10.33474731445312 1.088623046875 10.3302173614502 1.089452743530273 10.32569694519043 C 1.153182983398438 9.979396820068359 1.423652648925781 9.82432746887207 1.663494110107422 9.82426643371582 C 1.793813705444336 9.824247360229492 1.900653839111328 9.86613655090332 1.978673934936523 9.896717071533203 C 2.000028610229492 9.905088424682617 2.031154632568359 9.91728401184082 2.047046661376953 9.921648025512695 L 2.848766326904297 9.921648025512695 C 2.395895004272461 9.849227905273438 2.099832534790039 9.371932983398438 2.099832534790039 8.688417434692383 C 2.099832534790039 8.601005554199219 2.105165481567383 8.514656066894531 2.115503311157227 8.431066513061523 C 1.504657745361328 8.691623687744141 1.206029891967773 8.910024642944336 1.105607986450195 9.371709823608398 L 0.5000038146972656 13.57184791564941 L 0.5000038146972656 18.83536720275879 L 0.8839435577392578 18.83536720275879 C 1.160083770751953 18.83536720275879 1.383943557739258 19.05922698974609 1.383943557739258 19.33536720275879 C 1.383943557739258 20.24461936950684 1.622140884399414 20.60417175292969 1.716135025024414 20.68146514892578 C 1.810131072998047 20.60417938232422 2.048334121704102 20.24462890625 2.048334121704102 19.33536720275879 C 2.048334121704102 19.05922698974609 2.272193908691406 18.83536720275879 2.548334121704102 18.83536720275879 L 9.204402923583984 18.83536720275879 C 9.48054313659668 18.83536720275879 9.704402923583984 19.05922698974609 9.704402923583984 19.33536720275879 C 9.704402923583984 20.24411773681641 9.94231128692627 20.60385513305664 10.03634357452393 20.6813850402832 C 10.1303768157959 20.60385513305664 10.36829280853271 20.24412727355957 10.36829280853271 19.33536720275879 C 10.36829280853271 19.05922698974609 10.59215354919434 18.83536720275879 10.86829280853271 18.83536720275879 L 11.38495349884033 18.83536720275879 L 11.38495349884033 13.57369804382324 L 10.7479772567749 9.373188018798828 C 10.65010547637939 8.918169021606445 10.38879013061523 8.691400527954102 9.596623420715332 8.369247436523438 C 9.430618286132812 8.30181884765625 9.19661808013916 8.227649688720703 8.918513298034668 8.15447998046875 M 1.899612426757812 18.13630676269531 C 1.137323379516602 18.13630676269531 0.5171527862548828 17.52324676513672 0.5171527862548828 16.76969718933105 C 0.5171527862548828 16.01887702941895 1.137323379516602 15.40803718566895 1.899612426757812 15.40803718566895 C 2.665184020996094 15.40803718566895 3.288013458251953 16.01887702941895 3.288013458251953 16.76969718933105 C 3.288013458251953 17.52324676513672 2.665184020996094 18.13630676269531 1.899612426757812 18.13630676269531 M 9.910563468933105 18.13630676269531 C 9.14582347869873 18.13630676269531 8.523653030395508 17.52324676513672 8.523653030395508 16.76969718933105 C 8.523653030395508 16.01887702941895 9.14582347869873 15.40803718566895 9.910563468933105 15.40803718566895 C 10.67367362976074 15.40803718566895 11.29451274871826 16.01887702941895 11.29451274871826 16.76969718933105 C 11.29451274871826 17.52324676513672 10.67367362976074 18.13630676269531 9.910563468933105 18.13630676269531 M 21.78909301757812 6.415916442871094 C 21.78909301757812 6.429286956787109 22.24616241455078 6.485746383666992 22.45266342163086 6.591716766357422 C 22.69135284423828 6.714527130126953 22.96867370605469 6.870517730712891 23.16031265258789 7.053747177124023 C 23.35394287109375 7.238956451416016 23.49210357666016 7.447437286376953 23.62086296081543 7.68067741394043 C 23.74862289428711 7.909467697143555 23.76991271972656 8.134786605834961 23.76991271972656 8.352176666259766 L 23.76991271972656 17.35255813598633 C 23.76991271972656 17.53231811523438 23.74862289428711 17.65017700195312 23.73822402954102 17.70068740844727 C 23.63373374938965 18.13597679138184 23.47477340698242 18.46478652954102 23.1741828918457 18.69060707092285 C 22.86225318908691 18.91968727111816 22.52329254150391 19.10945701599121 22.16495323181152 19.25563812255859 L 22.12533378601074 19.31010818481445 L 22.16494369506836 19.38191604614258 L 22.16494369506836 19.38190841674805 L 24.76032257080078 23.29701614379883 L 23.2024040222168 23.29701614379883 L 21.28001403808594 20.32577705383301 L 15.97041320800781 20.32577705383301 L 14.04604339599609 23.29701614379883 L 12.5079231262207 23.29701614379883 L 15.14341354370117 19.30515670776367 C 15.15530300140381 19.27989768981934 15.08003330230713 19.25167846679688 14.92255306243896 19.20066833496094 C 14.76062297821045 19.149658203125 14.64573287963867 19.11004638671875 14.58383274078369 19.08379745483398 C 14.45507335662842 19.00703811645508 14.32087326049805 18.90700721740723 14.18667316436768 18.78568649291992 C 14.05148315429688 18.66485595703125 13.91976356506348 18.5306568145752 13.8048734664917 18.38010787963867 C 13.68998336791992 18.23402786254883 13.58401298522949 18.07803726196289 13.50576305389404 17.91114807128906 C 13.43148326873779 17.74426651000977 13.37057304382324 17.58381652832031 13.37057304382324 17.43030738830566 L 13.37057304382324 8.295726776123047 C 13.37057304382324 8.075857162475586 13.46961307525635 7.856477737426758 13.59787273406982 7.629177093505859 C 13.72613334655762 7.405838012695312 13.92471313476562 7.203296661376953 14.12279319763184 7.025026321411133 C 14.32087326049805 6.845266342163086 14.56798362731934 6.697696685791016 14.80568313598633 6.581817626953125 C 14.97702312469482 6.498617172241211 14.85619354248047 6.447116851806641 15.35140323638916 6.424337387084961 L 15.35140323638916 6.459997177124023 L 21.85594367980957 6.459997177124023 L 21.78909301757812 6.459997177124023 L 21.78909301757812 6.415916442871094 Z M 19.47053337097168 7.94561767578125 C 19.85827255249023 7.94561767578125 20.17620277404785 7.838157653808594 20.17620277404785 7.450407028198242 C 20.17620277404785 7.062168121337891 19.85827255249023 6.955196380615234 19.47053337097168 6.955196380615234 L 17.70710372924805 6.955196380615234 C 17.3188533782959 6.955196380615234 17.00143432617188 7.062168121337891 17.00143432617188 7.450407028198242 C 17.00143432617188 7.838157653808594 17.31886291503906 7.94561767578125 17.70710372924805 7.94561767578125 L 19.47053337097168 7.94561767578125 Z M 20.87397003173828 12.89767646789551 C 21.65300941467285 12.89767646789551 22.2845630645752 12.26594734191895 22.28429412841797 11.48683738708496 L 22.28429412841797 10.34686660766602 C 22.2845630645752 9.567756652832031 21.65305328369141 8.936027526855469 20.87394332885742 8.936027526855469 L 15.7718334197998 8.936027526855469 C 15.77164268493652 8.936027526855469 15.77150535583496 8.936027526855469 15.771315574646 8.936027526855469 C 14.99246788024902 8.936027526855469 14.36099338531494 9.56745719909668 14.36099338531494 10.34637641906738 L 14.36099338531494 11.48683738708496 C 14.36071300506592 12.26599502563477 14.99221229553223 12.89767646789551 15.771315574646 12.89767646789551 C 15.77145767211914 12.89767646789551 15.77169036865234 12.89767646789551 15.7718334197998 12.89767646789551 L 20.87345314025879 12.89767646789551 C 20.87364387512207 12.89767646789551 20.87378120422363 12.89767646789551 20.87397003173828 12.89767646789551 Z M 21.54368591308594 18.06417465209961 C 21.84076690673828 18.06427764892578 22.08578872680664 17.96312713623047 22.28033256530762 17.75713729858398 C 22.47247314453125 17.55212783813477 22.56953239440918 17.30055618286133 22.56953239440918 17.00541687011719 C 22.56953239440918 16.73651695251465 22.47544288635254 16.50278854370117 22.29023361206055 16.30469703674316 C 22.10223007202148 16.10369873046875 21.85655784606934 16.00513458251953 21.56124877929688 16.00506591796875 C 21.29109954833984 16.00506591796875 21.03015327453613 16.10402679443359 20.8278923034668 16.28340721130371 C 20.61544418334961 16.47158813476562 20.50996398925781 16.71027755737305 20.50996398925781 17.00591659545898 C 20.5042839050293 17.28655624389648 20.61213302612305 17.55760765075684 20.80907249450684 17.75763702392578 C 21.00621032714844 17.9621696472168 21.25138664245605 18.06417465209961 21.54368591308594 18.06417465209961 Z M 15.66387271881104 18.06466674804688 C 15.95704364776611 18.06466674804688 16.20563316345215 17.962646484375 16.40421295166016 17.75763702392578 C 16.60279273986816 17.55311584472656 16.70232391357422 17.3089771270752 16.70232391357422 17.02670669555664 C 16.70232391357422 16.71621704101562 16.60279273986816 16.47207641601562 16.40421295166016 16.28389739990234 C 16.20563316345215 16.10067749023438 15.95704364776611 16.00559616088867 15.66387271881104 16.00559616088867 C 15.39481353759766 16.00013160705566 15.1360034942627 16.10898590087891 14.95177364349365 16.30519866943359 C 14.75864315032959 16.50327682495117 14.66207313537598 16.73701858520508 14.66207313537598 17.00591659545898 C 14.66207313537598 17.30105590820312 14.75517272949219 17.55311584472656 14.9403829574585 17.75763702392578 C 15.1275634765625 17.962646484375 15.36824321746826 18.06466674804688 15.66387271881104 18.06466674804688 Z M 5.92811393737793 7.232517242431641 C 7.242893218994141 7.232517242431641 9.030093193054199 7.599466323852539 9.784783363342285 7.905996322631836 C 10.5409631729126 8.213518142700195 11.0822229385376 8.520547866821289 11.24019336700439 9.284156799316406 L 11.88495349884033 13.53599739074707 L 11.88495349884033 19.33536720275879 L 10.86829280853271 19.33536720275879 C 10.86829280853271 21.81139755249023 9.204402923583984 21.81139755249023 9.204402923583984 19.33536720275879 L 2.548334121704102 19.33536720275879 C 2.548334121704102 21.81139755249023 0.8839435577392578 21.81139755249023 0.8839435577392578 19.33536720275879 L 3.814697265625e-06 19.33536720275879 L 3.814697265625e-06 13.53599739074707 L 0.6130638122558594 9.284156799316406 C 0.7710323333740234 8.520547866821289 1.320713043212891 8.213518142700195 2.075902938842773 7.905996322631836 C 2.830602645874023 7.599956512451172 4.607892990112305 7.232517242431641 5.92811393737793 7.232517242431641 Z M 8.418512344360352 9.43122673034668 L 8.418512344360352 7.94561767578125 L 2.971242904663086 7.94561767578125 C 2.476032257080078 7.94561767578125 2.476032257080078 9.43122673034668 2.971242904663086 9.43122673034668 L 8.418512344360352 9.43122673034668 Z M 9.788743019104004 10.4216480255127 L 2.035303115844727 10.4216480255127 C 1.808496475219727 10.4216480255127 1.619819641113281 10.20621871948242 1.581193923950195 10.41619682312012 L 1.102333068847656 13.4844970703125 C 1.102333068847656 13.73259735107422 1.310813903808594 13.88808727264404 1.564353942871094 13.88808727264404 L 10.25870323181152 13.88808727264404 C 10.51175308227539 13.88808727264404 10.72171306610107 13.82371711730957 10.72171306610107 13.57759666442871 L 10.70537281036377 13.59641647338867 L 10.24186325073242 10.42758750915527 C 10.20373249053955 10.21761322021484 10.01357173919678 10.42164611816406 9.788743019104004 10.4216480255127 Z M 1.899612426757812 17.63630676269531 C 2.391353607177734 17.63630676269531 2.788013458251953 17.24955749511719 2.788013458251953 16.76969718933105 C 2.788013458251953 16.29231643676758 2.391353607177734 15.90803718566895 1.899612426757812 15.90803718566895 C 1.414312362670898 15.90803718566895 1.017152786254883 16.29231643676758 1.017152786254883 16.76969718933105 C 1.017152786254883 17.24955749511719 1.414802551269531 17.63630676269531 1.899612426757812 17.63630676269531 Z M 9.910563468933105 17.63630676269531 C 10.39735317230225 17.63630676269531 10.79451274871826 17.24955749511719 10.79451274871826 16.76969718933105 C 10.79451274871826 16.29231643676758 10.39686298370361 15.90803718566895 9.910563468933105 15.90803718566895 C 9.421302795410156 15.90803718566895 9.023653030395508 16.29231643676758 9.023653030395508 16.76969718933105 C 9.023653030395508 17.24955749511719 9.42180347442627 17.63630676269531 9.910563468933105 17.63630676269531 Z"/></g></g></svg>